{
copyright = "Copyright \U00A9 2019 IBM Corp. with Reserved Font Name \"Plex\"\012This Font Software is licensed under the SIL Open Font License, Version 1.1.\012This license is copied below, and is also available with a FAQ at: http://scripts.sil.org/OFL.";
customParameters = (
{
name = licenseURL;
value = "http://scripts.sil.org/OFL";
},
{
name = vendorID;
value = "";
},
{
name = glyphOrder;
value = (
    ".notdef",
    uni0000,
    uni000D,
    space,
    a,
    b,
    c,
    d,
    e,
    f,
    g,
    "g.alt02",
    h,
    i,
    j,
    k,
    l,
    m,
    n,
    o,
    p,
    q,
    r,
    s,
    t,
    u,
    v,
    w,
    x,
    y,
    z,
    A,
    B,
    C,
    D,
    E,
    F,
    G,
    H,
    I,
    J,
    K,
    L,
    M,
    N,
    O,
    P,
    Q,
    R,
    S,
    T,
    U,
    V,
    W,
    X,
    Y,
    Z,
    zero,
    one,
    two,
    three,
    four,
    five,
    six,
    seven,
    eight,
    nine,
    ampersand,
    at,
    hyphen,
    uni00AD,
    endash,
    emdash,
    underscore,
    period,
    ellipsis,
    colon,
    comma,
    semicolon,
    quotesingle,
    quotedbl,
    quoteleft,
    quoteright,
    quotedblleft,
    quotedblright,
    quotesinglbase,
    quotedblbase,
    guilsinglleft,
    guilsinglright,
    guillemotleft,
    guillemotright,
    exclamdown,
    exclam,
    questiondown,
    question,
    parenleft,
    parenright,
    bracketleft,
    bracketright,
    braceleft,
    braceright,
    slash,
    backslash,
    fraction,
    percent,
    perthousand,
    bar,
    brokenbar,
    section,
    paragraph,
    copyright,
    registered,
    trademark,
    ordfeminine,
    ordmasculine,
    degree,
    asterisk,
    dagger,
    daggerdbl,
    numbersign,
    asciicircum,
    asciitilde,
    plus,
    minus,
    plusminus,
    multiply,
    divide,
    equal,
    approxequal,
    notequal,
    less,
    greater,
    lessequal,
    greaterequal,
    periodcentered,
    bullet,
    lozenge,
    logicalnot,

glyphs = (
{
glyphname = .notdef;
layers = (
{
layerId = "0D764256-9FC1-4D23-B14D-BAC78E5C0998";
name = "Light Italic";
paths = (
{
closed = 1;
nodes = (
"32 0 LINE",
"32 780 LINE",
"440 780 LINE",
"440 0 LINE"
);
},
{
closed = 1;
nodes = (
"48 16 LINE",
"424 16 LINE",
"424 764 LINE",
"48 764 LINE"
);
}
);
width = 472;
}
);
},
{
glyphname = a;
layers = (
{
layerId = "0D764256-9FC1-4D23-B14D-BAC78E5C0998";
name = "Light Italic";
paths = (
{
closed = 1;
nodes = (
"413 0 LINE SMOOTH",
"398 0 OFFCURVE",
"390 6 OFFCURVE",
"390 19 CURVE SMOOTH",
"390 26 OFFCURVE",
"391 28 OFFCURVE",
"392 35 CURVE",
"407 111 LINE",
"404 111 LINE",
"361 36 OFFCURVE",
"308 -12 OFFCURVE",
"223 -12 CURVE SMOOTH",
"171 -12 OFFCURVE",
"130 9 OFFCURVE",
"102 42 CURVE SMOOTH",
"74 75 OFFCURVE",
"60 123 OFFCURVE",
"60 176 CURVE SMOOTH",
"60 268 OFFCURVE",
"83 353 OFFCURVE",
"125 416 CURVE SMOOTH",
"167 479 OFFCURVE",
"229 518 OFFCURVE",
"309 518 CURVE SMOOTH",
"394 518 OFFCURVE",
"446 476 OFFCURVE",
"465 413 CURVE",
"468 413 LINE",
"486 506 LINE",
"507 506 LINE",
"410 19 LINE",
"495 19 LINE",
"491 0 LINE"
);
},
{
closed = 1;
nodes = (
"266 7 OFFCURVE",
"298 18 OFFCURVE",
"333 47 CURVE SMOOTH",
"372 79 OFFCURVE",
"411 133 OFFCURVE",
"426 204 CURVE SMOOTH",
"454 346 LINE SMOOTH",
"461 379 OFFCURVE",
"454 418 OFFCURVE",
"431 448 CURVE SMOOTH",
"408 478 OFFCURVE",
"369 499 OFFCURVE",
"309 499 CURVE SMOOTH",
"194 499 OFFCURVE",
"119 414 OFFCURVE",
"94 282 CURVE SMOOTH",
"87 247 LINE SMOOTH",
"83 224 OFFCURVE",
"81 204 OFFCURVE",
"81 176 CURVE SMOOTH",
"81 129 OFFCURVE",
"92 88 OFFCURVE",
"116 57 CURVE SMOOTH",
"139 26 OFFCURVE",
"174 7 OFFCURVE",
"223 7 CURVE SMOOTH"
);
}
);
width = 567;
}
);
leftKerningGroup = a;
rightKerningGroup = a;
unicode = 0061;
},
{
glyphname = b;
layers = (
{
layerId = "0D764256-9FC1-4D23-B14D-BAC78E5C0998";
name = "Light Italic";
paths = (
{
closed = 1;
nodes = (
"201 740 LINE",
"222 740 LINE",
"153 395 LINE",
"156 395 LINE",
"199 470 OFFCURVE",
"252 518 OFFCURVE",
"337 518 CURVE SMOOTH",
"389 518 OFFCURVE",
"430 497 OFFCURVE",
"458 464 CURVE SMOOTH",
"486 431 OFFCURVE",
"500 383 OFFCURVE",
"500 330 CURVE SMOOTH",
"500 238 OFFCURVE",
"478 153 OFFCURVE",
"436 90 CURVE SMOOTH",
"394 27 OFFCURVE",
"331 -12 OFFCURVE",
"251 -12 CURVE SMOOTH",
"166 -12 OFFCURVE",
"114 30 OFFCURVE",
"95 93 CURVE",
"92 93 LINE",
"74 0 LINE",
"53 0 LINE"
);
},
{
closed = 1;
nodes = (
"366 7 OFFCURVE",
"439 92 OFFCURVE",
"466 224 CURVE SMOOTH",
"473 259 LINE SMOOTH",
"477 282 OFFCURVE",
"479 302 OFFCURVE",
"479 330 CURVE SMOOTH",
"479 377 OFFCURVE",
"468 418 OFFCURVE",
"445 449 CURVE SMOOTH",
"421 480 OFFCURVE",
"386 499 OFFCURVE",
"337 499 CURVE SMOOTH",
"294 499 OFFCURVE",
"262 488 OFFCURVE",
"227 459 CURVE SMOOTH",
"188 427 OFFCURVE",
"149 373 OFFCURVE",
"134 302 CURVE SMOOTH",
"106 160 LINE SMOOTH",
"99 127 OFFCURVE",
"106 89 OFFCURVE",
"129 59 CURVE SMOOTH",
"152 29 OFFCURVE",
"191 7 OFFCURVE",
"251 7 CURVE SMOOTH"
);
}
);
width = 560;
}
);
leftKerningGroup = b;
rightKerningGroup = b;
unicode = 0062;
},
{
glyphname = c;
layers = (
{
layerId = "0D764256-9FC1-4D23-B14D-BAC78E5C0998";
name = "Light Italic";
paths = (
{
closed = 1;
nodes = (
"168 -12 OFFCURVE",
"129 9 OFFCURVE",
"102 45 CURVE SMOOTH",
"74 80 OFFCURVE",
"61 129 OFFCURVE",
"61 186 CURVE SMOOTH",
"61 279 OFFCURVE",
"82 362 OFFCURVE",
"123 422 CURVE SMOOTH",
"163 482 OFFCURVE",
"224 518 OFFCURVE",
"301 518 CURVE SMOOTH",
"381 518 OFFCURVE",
"436 471 OFFCURVE",
"451 403 CURVE",
"432 398 LINE",
"417 463 OFFCURVE",
"367 499 OFFCURVE",
"299 499 CURVE SMOOTH",
"196 499 OFFCURVE",
"119 422 OFFCURVE",
"96 297 CURVE SMOOTH",
"87 248 LINE SMOOTH",
"83 224 OFFCURVE",
"81 211 OFFCURVE",
"81 186 CURVE SMOOTH",
"81 137 OFFCURVE",
"91 92 OFFCURVE",
"115 60 CURVE SMOOTH",
"138 27 OFFCURVE",
"172 7 OFFCURVE",
"223 7 CURVE SMOOTH",
"302 7 OFFCURVE",
"358 52 OFFCURVE",
"405 123 CURVE",
"422 114 LINE",
"373 38 OFFCURVE",
"311 -12 OFFCURVE",
"223 -12 CURVE SMOOTH"
);
}
);
width = 479;
}
);
leftKerningGroup = c;
rightKerningGroup = c;
unicode = 0063;
},
{
glyphname = d;
layers = (
{
layerId = "0D764256-9FC1-4D23-B14D-BAC78E5C0998";
name = "Light Italic";
paths = (
{
closed = 1;
nodes = (
"413 0 LINE SMOOTH",
"398 0 OFFCURVE",
"390 6 OFFCURVE",
"390 19 CURVE SMOOTH",
"390 26 OFFCURVE",
"391 28 OFFCURVE",
"392 35 CURVE",
"407 111 LINE",
"404 111 LINE",
"361 36 OFFCURVE",
"308 -12 OFFCURVE",
"223 -12 CURVE SMOOTH",
"171 -12 OFFCURVE",
"130 9 OFFCURVE",
"102 42 CURVE SMOOTH",
"74 75 OFFCURVE",
"60 123 OFFCURVE",
"60 176 CURVE SMOOTH",
"60 268 OFFCURVE",
"83 353 OFFCURVE",
"125 416 CURVE SMOOTH",
"167 479 OFFCURVE",
"229 518 OFFCURVE",
"309 518 CURVE SMOOTH",
"394 518 OFFCURVE",
"446 476 OFFCURVE",
"465 413 CURVE",
"468 413 LINE",
"533 740 LINE",
"554 740 LINE",
"410 19 LINE",
"495 19 LINE",
"491 0 LINE"
);
},
{
closed = 1;
nodes = (
"266 7 OFFCURVE",
"298 18 OFFCURVE",
"333 47 CURVE SMOOTH",
"372 79 OFFCURVE",
"411 133 OFFCURVE",
"426 204 CURVE SMOOTH",
"454 346 LINE SMOOTH",
"461 379 OFFCURVE",
"454 418 OFFCURVE",
"431 448 CURVE SMOOTH",
"408 478 OFFCURVE",
"369 499 OFFCURVE",
"309 499 CURVE SMOOTH",
"194 499 OFFCURVE",
"119 414 OFFCURVE",
"94 282 CURVE SMOOTH",
"87 247 LINE SMOOTH",
"83 224 OFFCURVE",
"81 204 OFFCURVE",
"81 176 CURVE SMOOTH",
"81 129 OFFCURVE",
"92 88 OFFCURVE",
"116 57 CURVE SMOOTH",
"139 26 OFFCURVE",
"174 7 OFFCURVE",
"223 7 CURVE SMOOTH"
);
}
);
width = 567;
}
);
leftKerningGroup = a;
rightKerningGroup = d;
unicode = 0064;
},
{
glyphname = e;
layers = (
{
layerId = "0D764256-9FC1-4D23-B14D-BAC78E5C0998";
name = "Light Italic";
paths = (
{
closed = 1;
nodes = (
"124 -12 OFFCURVE",
"61 50 OFFCURVE",
"61 187 CURVE SMOOTH",
"61 279 OFFCURVE",
"86 362 OFFCURVE",
"130 422 CURVE SMOOTH",
"173 481 OFFCURVE",
"235 518 OFFCURVE",
"308 518 CURVE SMOOTH",
"404 518 OFFCURVE",
"466 471 OFFCURVE",
"466 395 CURVE SMOOTH",
"466 363 OFFCURVE",
"455 324 OFFCURVE",
"403 293 CURVE SMOOTH",
"350 261 OFFCURVE",
"254 237 OFFCURVE",
"85 233 CURVE",
"84 222 OFFCURVE",
"82 200 OFFCURVE",
"82 189 CURVE SMOOTH",
"82 60 OFFCURVE",
"133 7 OFFCURVE",
"237 7 CURVE SMOOTH",
"320 7 OFFCURVE",
"385 53 OFFCURVE",
"426 132 CURVE",
"445 124 LINE",
"394 29 OFFCURVE",
"321 -12 OFFCURVE",
"237 -12 CURVE SMOOTH"
);
},
{
closed = 1;
nodes = (
"250 499 OFFCURVE",
"201 475 OFFCURVE",
"165 434 CURVE SMOOTH",
"128 393 OFFCURVE",
"102 336 OFFCURVE",
"90 269 CURVE SMOOTH",
"87 252 LINE",
"236 255 OFFCURVE",
"326 273 OFFCURVE",
"378 300 CURVE SMOOTH",
"430 327 OFFCURVE",
"444 362 OFFCURVE",
"444 395 CURVE SMOOTH",
"444 456 OFFCURVE",
"403 499 OFFCURVE",
"306 499 CURVE SMOOTH"
);
}
);
width = 505;
}
);
leftKerningGroup = c;
rightKerningGroup = e;
unicode = 0065;
},
{
glyphname = f;
layers = (
{
layerId = "0D764256-9FC1-4D23-B14D-BAC78E5C0998";
name = "Light Italic";
paths = (
{
closed = 1;
nodes = (
"61 -167 LINE SMOOTH",
"56 -194 OFFCURVE",
"50 -200 OFFCURVE",
"22 -200 CURVE SMOOTH",
"-62 -200 LINE",
"-58 -181 LINE",
"37 -181 LINE",
"169 487 LINE",
"69 487 LINE",
"73 506 LINE",
"173 506 LINE",
"212 707 LINE SMOOTH",
"217 734 OFFCURVE",
"223 740 OFFCURVE",
"251 740 CURVE SMOOTH",
"345 740 LINE",
"341 721 LINE",
"236 721 LINE",
"194 506 LINE",
"298 506 LINE",
"294 487 LINE",
"190 487 LINE"
);
}
);
width = 282;
}
);
leftKerningGroup = f;
rightKerningGroup = f;
unicode = 0066;
},
{
glyphname = g;
lastChange = "2018-11-07 05:01:16 +0000";
layers = (
{
layerId = "0D764256-9FC1-4D23-B14D-BAC78E5C0998";
name = "Light Italic";
paths = (
{
closed = 1;
nodes = (
"308 -12 OFFCURVE",
"362 37 OFFCURVE",
"404 111 CURVE",
"407 111 LINE",
"383 -13 LINE SMOOTH",
"358 -140 OFFCURVE",
"284 -193 OFFCURVE",
"174 -193 CURVE SMOOTH",
"104 -193 OFFCURVE",
"62 -169 OFFCURVE",
"34 -131 CURVE",
"18 -145 LINE",
"50 -186 OFFCURVE",
"99 -212 OFFCURVE",
"174 -212 CURVE SMOOTH",
"297 -212 OFFCURVE",
"377 -150 OFFCURVE",
"403 -18 CURVE SMOOTH",
"508 506 LINE",
"487 506 LINE",
"468 413 LINE",
"465 413 LINE",
"447 475 OFFCURVE",
"394 518 OFFCURVE",
"309 518 CURVE SMOOTH",
"149 518 OFFCURVE",
"60 360 OFFCURVE",
"60 176 CURVE SMOOTH",
"60 69 OFFCURVE",
"118 -12 OFFCURVE",
"223 -12 CURVE SMOOTH"
);
},
{
closed = 1;
nodes = (
"125 7 OFFCURVE",
"81 83 OFFCURVE",
"81 176 CURVE SMOOTH",
"81 204 OFFCURVE",
"83 225 OFFCURVE",
"87 247 CURVE SMOOTH",
"94 282 LINE SMOOTH",
"120 414 OFFCURVE",
"194 499 OFFCURVE",
"309 499 CURVE SMOOTH",
"428 499 OFFCURVE",
"467 413 OFFCURVE",
"454 346 CURVE SMOOTH",
"426 204 LINE SMOOTH",
"412 134 OFFCURVE",
"372 79 OFFCURVE",
"333 47 CURVE SMOOTH",
"298 18 OFFCURVE",
"265 7 OFFCURVE",
"223 7 CURVE SMOOTH"
);
}
);
width = 551;
}
);
leftKerningGroup = g;
rightKerningGroup = g;
unicode = 0067;
},
{
glyphname = h;
layers = (
{
layerId = "0D764256-9FC1-4D23-B14D-BAC78E5C0998";
name = "Light Italic";
paths = (
{
closed = 1;
nodes = (
"201 740 LINE",
"222 740 LINE",
"155 401 LINE",
"158 401 LINE",
"198 477 OFFCURVE",
"252 518 OFFCURVE",
"336 518 CURVE SMOOTH",
"421 518 OFFCURVE",
"468 470 OFFCURVE",
"468 386 CURVE SMOOTH",
"468 366 OFFCURVE",
"465 341 OFFCURVE",
"461 321 CURVE SMOOTH",
"401 19 LINE",
"486 19 LINE",
"482 0 LINE",
"404 0 LINE SMOOTH",
"389 0 OFFCURVE",
"381 6 OFFCURVE",
"381 19 CURVE SMOOTH",
"381 26 OFFCURVE",
"382 28 OFFCURVE",
"383 35 CURVE",
"440 320 LINE SMOOTH",
"444 343 OFFCURVE",
"447 370 OFFCURVE",
"447 383 CURVE SMOOTH",
"447 460 OFFCURVE",
"409 499 OFFCURVE",
"333 499 CURVE SMOOTH",
"288 499 OFFCURVE",
"240 484 OFFCURVE",
"200 437 CURVE SMOOTH",
"177 410 OFFCURVE",
"149 372 OFFCURVE",
"137 312 CURVE SMOOTH",
"75 0 LINE",
"54 0 LINE"
);
}
);
width = 549;
}
);
leftKerningGroup = b;
rightKerningGroup = h;
unicode = 0068;
},
{
glyphname = i;
layers = (
{
layerId = "0D764256-9FC1-4D23-B14D-BAC78E5C0998";
name = "Light Italic";
paths = (
{
closed = 1;
nodes = (
"185 673 OFFCURVE",
"180 681 OFFCURVE",
"180 689 CURVE SMOOTH",
"180 693 OFFCURVE",
"181 696 OFFCURVE",
"182 703 CURVE",
"185 715 OFFCURVE",
"192 722 OFFCURVE",
"209 722 CURVE SMOOTH",
"224 722 OFFCURVE",
"229 714 OFFCURVE",
"229 706 CURVE SMOOTH",
"229 702 OFFCURVE",
"228 699 OFFCURVE",
"227 692 CURVE",
"224 680 OFFCURVE",
"217 673 OFFCURVE",
"200 673 CURVE SMOOTH"
);
},
{
closed = 1;
nodes = (
"81 0 LINE SMOOTH",
"66 0 OFFCURVE",
"58 6 OFFCURVE",
"58 19 CURVE SMOOTH",
"58 26 OFFCURVE",
"59 28 OFFCURVE",
"60 35 CURVE",
"155 506 LINE",
"176 506 LINE",
"78 19 LINE",
"163 19 LINE",
"159 0 LINE"
);
}
);
width = 235;
}
);
leftKerningGroup = i;
rightKerningGroup = i;
unicode = 0069;
},
{
glyphname = j;
layers = (
{
layerId = "0D764256-9FC1-4D23-B14D-BAC78E5C0998";
name = "Light Italic";
paths = (
{
closed = 1;
nodes = (
"154 506 LINE",
"175 506 LINE",
"41 -167 LINE SMOOTH",
"36 -194 OFFCURVE",
"28 -200 OFFCURVE",
"0 -200 CURVE SMOOTH",
"-72 -200 LINE",
"-68 -181 LINE",
"17 -181 LINE"
);
},
{
closed = 1;
nodes = (
"184 673 OFFCURVE",
"179 681 OFFCURVE",
"179 689 CURVE SMOOTH",
"179 693 OFFCURVE",
"180 696 OFFCURVE",
"181 703 CURVE",
"184 715 OFFCURVE",
"191 722 OFFCURVE",
"208 722 CURVE SMOOTH",
"223 722 OFFCURVE",
"228 714 OFFCURVE",
"228 706 CURVE SMOOTH",
"228 702 OFFCURVE",
"227 699 OFFCURVE",
"226 692 CURVE",
"223 680 OFFCURVE",
"216 673 OFFCURVE",
"199 673 CURVE SMOOTH"
);
}
);
width = 229;
}
);
leftKerningGroup = j;
rightKerningGroup = j;
unicode = 006A;
},
{
glyphname = k;
layers = (
{
layerId = "0D764256-9FC1-4D23-B14D-BAC78E5C0998";
name = "Light Italic";
paths = (
{
closed = 1;
nodes = (
"201 740 LINE",
"222 740 LINE",
"118 221 LINE",
"122 221 LINE",
"234 315 LINE",
"453 506 LINE",
"480 506 LINE",
"237 292 LINE",
"378 19 LINE",
"435 19 LINE",
"431 0 LINE",
"383 0 LINE SMOOTH",
"368 0 OFFCURVE",
"362 6 OFFCURVE",
"354 21 CURVE SMOOTH",
"221 280 LINE",
"112 189 LINE",
"74 0 LINE",
"53 0 LINE"
);
}
);
width = 479;
}
);
leftKerningGroup = b;
rightKerningGroup = k;
unicode = 006B;
},
{
glyphname = l;
layers = (
{
layerId = "0D764256-9FC1-4D23-B14D-BAC78E5C0998";
name = "Light Italic";
paths = (
{
closed = 1;
nodes = (
"81 0 LINE SMOOTH",
"66 0 OFFCURVE",
"58 6 OFFCURVE",
"58 19 CURVE SMOOTH",
"58 26 OFFCURVE",
"59 28 OFFCURVE",
"60 35 CURVE",
"201 740 LINE",
"222 740 LINE",
"78 19 LINE",
"163 19 LINE",
"159 0 LINE"
);
}
);
width = 235;
}
);
leftKerningGroup = l;
rightKerningGroup = d;
unicode = 006C;
},
{
glyphname = m;
layers = (
{
layerId = "0D764256-9FC1-4D23-B14D-BAC78E5C0998";
name = "Light Italic";
paths = (
{
closed = 1;
nodes = (
"53 0 LINE",
"154 506 LINE",
"175 506 LINE",
"154 401 LINE",
"157 401 LINE",
"193 472 OFFCURVE",
"247 518 OFFCURVE",
"327 518 CURVE SMOOTH",
"410 518 OFFCURVE",
"452 463 OFFCURVE",
"453 394 CURVE",
"456 394 LINE",
"491 470 OFFCURVE",
"552 518 OFFCURVE",
"636 518 CURVE SMOOTH",
"717 518 OFFCURVE",
"762 470 OFFCURVE",
"762 386 CURVE SMOOTH",
"762 366 OFFCURVE",
"759 341 OFFCURVE",
"755 321 CURVE SMOOTH",
"695 19 LINE",
"780 19 LINE",
"776 0 LINE",
"698 0 LINE SMOOTH",
"683 0 OFFCURVE",
"675 6 OFFCURVE",
"675 19 CURVE SMOOTH",
"675 26 OFFCURVE",
"676 28 OFFCURVE",
"677 35 CURVE",
"734 320 LINE SMOOTH",
"738 343 OFFCURVE",
"741 370 OFFCURVE",
"741 383 CURVE SMOOTH",
"741 460 OFFCURVE",
"704 499 OFFCURVE",
"633 499 CURVE SMOOTH",
"589 499 OFFCURVE",
"541 481 OFFCURVE",
"504 437 CURVE SMOOTH",
"479 408 OFFCURVE",
"457 375 OFFCURVE",
"446 319 CURVE SMOOTH",
"382 0 LINE",
"361 0 LINE",
"425 320 LINE SMOOTH",
"429 343 OFFCURVE",
"432 370 OFFCURVE",
"432 383 CURVE SMOOTH",
"432 460 OFFCURVE",
"396 499 OFFCURVE",
"324 499 CURVE SMOOTH",
"281 499 OFFCURVE",
"238 481 OFFCURVE",
"199 437 CURVE SMOOTH",
"175 410 OFFCURVE",
"147 367 OFFCURVE",
"136 312 CURVE SMOOTH",
"74 0 LINE"
);
}
);
width = 843;
}
);
leftKerningGroup = m;
rightKerningGroup = h;
unicode = 006D;
},
{
glyphname = n;
layers = (
{
layerId = "0D764256-9FC1-4D23-B14D-BAC78E5C0998";
name = "Light Italic";
paths = (
{
closed = 1;
nodes = (
"53 0 LINE",
"154 506 LINE",
"175 506 LINE",
"154 401 LINE",
"157 401 LINE",
"197 477 OFFCURVE",
"251 518 OFFCURVE",
"335 518 CURVE SMOOTH",
"420 518 OFFCURVE",
"467 470 OFFCURVE",
"467 386 CURVE SMOOTH",
"467 366 OFFCURVE",
"464 341 OFFCURVE",
"460 321 CURVE SMOOTH",
"400 19 LINE",
"485 19 LINE",
"481 0 LINE",
"403 0 LINE SMOOTH",
"388 0 OFFCURVE",
"380 6 OFFCURVE",
"380 19 CURVE SMOOTH",
"380 26 OFFCURVE",
"381 28 OFFCURVE",
"382 35 CURVE",
"439 320 LINE SMOOTH",
"443 343 OFFCURVE",
"446 370 OFFCURVE",
"446 383 CURVE SMOOTH",
"446 460 OFFCURVE",
"408 499 OFFCURVE",
"332 499 CURVE SMOOTH",
"287 499 OFFCURVE",
"239 484 OFFCURVE",
"199 437 CURVE SMOOTH",
"176 410 OFFCURVE",
"148 372 OFFCURVE",
"136 312 CURVE SMOOTH",
"74 0 LINE"
);
}
);
width = 548;
}
);
leftKerningGroup = m;
rightKerningGroup = h;
unicode = 006E;
},
{
glyphname = o;
layers = (
{
layerId = "0D764256-9FC1-4D23-B14D-BAC78E5C0998";
name = "Light Italic";
paths = (
{
closed = 1;
nodes = (
"172 -12 OFFCURVE",
"130 8 OFFCURVE",
"102 41 CURVE SMOOTH",
"74 74 OFFCURVE",
"59 118 OFFCURVE",
"59 169 CURVE SMOOTH",
"59 262 OFFCURVE",
"81 350 OFFCURVE",
"123 414 CURVE SMOOTH",
"165 478 OFFCURVE",
"226 518 OFFCURVE",
"309 518 CURVE SMOOTH",
"362 518 OFFCURVE",
"404 498 OFFCURVE",
"432 465 CURVE SMOOTH",
"460 432 OFFCURVE",
"475 386 OFFCURVE",
"475 337 CURVE SMOOTH",
"475 244 OFFCURVE",
"454 156 OFFCURVE",
"412 92 CURVE SMOOTH",
"370 28 OFFCURVE",
"308 -12 OFFCURVE",
"225 -12 CURVE SMOOTH"
);
},
{
closed = 1;
nodes = (
"340 7 OFFCURVE",
"414 89 OFFCURVE",
"441 225 CURVE SMOOTH",
"449 265 LINE SMOOTH",
"453 288 OFFCURVE",
"454 310 OFFCURVE",
"454 337 CURVE SMOOTH",
"454 381 OFFCURVE",
"443 422 OFFCURVE",
"419 451 CURVE SMOOTH",
"395 480 OFFCURVE",
"358 499 OFFCURVE",
"307 499 CURVE SMOOTH",
"194 499 OFFCURVE",
"120 417 OFFCURVE",
"93 281 CURVE SMOOTH",
"85 241 LINE SMOOTH",
"81 218 OFFCURVE",
"80 196 OFFCURVE",
"80 169 CURVE SMOOTH",
"80 125 OFFCURVE",
"91 84 OFFCURVE",
"115 55 CURVE SMOOTH",
"139 26 OFFCURVE",
"176 7 OFFCURVE",
"227 7 CURVE SMOOTH"
);
}
);
width = 534;
}
);
leftKerningGroup = c;
rightKerningGroup = o;
unicode = 006F;
},
{
glyphname = p;
layers = (
{
layerId = "0D764256-9FC1-4D23-B14D-BAC78E5C0998";
name = "Light Italic";
paths = (
{
closed = 1;
nodes = (
"155 506 LINE",
"176 506 LINE",
"154 395 LINE",
"157 395 LINE",
"200 470 OFFCURVE",
"253 518 OFFCURVE",
"338 518 CURVE SMOOTH",
"390 518 OFFCURVE",
"431 497 OFFCURVE",
"459 464 CURVE SMOOTH",
"487 431 OFFCURVE",
"501 383 OFFCURVE",
"501 330 CURVE SMOOTH",
"501 238 OFFCURVE",
"479 153 OFFCURVE",
"437 90 CURVE SMOOTH",
"395 27 OFFCURVE",
"332 -12 OFFCURVE",
"252 -12 CURVE SMOOTH",
"167 -12 OFFCURVE",
"115 30 OFFCURVE",
"96 93 CURVE",
"93 93 LINE",
"35 -200 LINE",
"14 -200 LINE"
);
},
{
closed = 1;
nodes = (
"367 7 OFFCURVE",
"440 92 OFFCURVE",
"467 224 CURVE SMOOTH",
"474 259 LINE SMOOTH",
"478 282 OFFCURVE",
"480 302 OFFCURVE",
"480 330 CURVE SMOOTH",
"480 377 OFFCURVE",
"469 418 OFFCURVE",
"446 449 CURVE SMOOTH",
"422 480 OFFCURVE",
"387 499 OFFCURVE",
"338 499 CURVE SMOOTH",
"295 499 OFFCURVE",
"263 488 OFFCURVE",
"228 459 CURVE SMOOTH",
"189 427 OFFCURVE",
"150 373 OFFCURVE",
"135 302 CURVE SMOOTH",
"107 160 LINE SMOOTH",
"100 127 OFFCURVE",
"107 89 OFFCURVE",
"130 59 CURVE SMOOTH",
"153 29 OFFCURVE",
"192 7 OFFCURVE",
"252 7 CURVE SMOOTH"
);
}
);
width = 561;
}
);
leftKerningGroup = p;
rightKerningGroup = b;
unicode = 0070;
},
{
glyphname = q;
layers = (
{
layerId = "0D764256-9FC1-4D23-B14D-BAC78E5C0998";
name = "Light Italic";
paths = (
{
closed = 1;
nodes = (
"407 111 LINE",
"404 111 LINE",
"361 36 OFFCURVE",
"308 -12 OFFCURVE",
"223 -12 CURVE SMOOTH",
"171 -12 OFFCURVE",
"130 9 OFFCURVE",
"102 42 CURVE SMOOTH",
"74 75 OFFCURVE",
"60 123 OFFCURVE",
"60 176 CURVE SMOOTH",
"60 268 OFFCURVE",
"83 353 OFFCURVE",
"125 416 CURVE SMOOTH",
"167 479 OFFCURVE",
"229 518 OFFCURVE",
"309 518 CURVE SMOOTH",
"394 518 OFFCURVE",
"446 476 OFFCURVE",
"465 413 CURVE",
"468 413 LINE",
"486 506 LINE",
"507 506 LINE",
"366 -200 LINE",
"345 -200 LINE"
);
},
{
closed = 1;
nodes = (
"266 7 OFFCURVE",
"298 18 OFFCURVE",
"333 47 CURVE SMOOTH",
"372 79 OFFCURVE",
"411 133 OFFCURVE",
"426 204 CURVE SMOOTH",
"454 346 LINE SMOOTH",
"461 379 OFFCURVE",
"454 418 OFFCURVE",
"431 448 CURVE SMOOTH",
"408 478 OFFCURVE",
"369 499 OFFCURVE",
"309 499 CURVE SMOOTH",
"194 499 OFFCURVE",
"119 414 OFFCURVE",
"94 282 CURVE SMOOTH",
"87 247 LINE SMOOTH",
"83 224 OFFCURVE",
"81 204 OFFCURVE",
"81 176 CURVE SMOOTH",
"81 129 OFFCURVE",
"92 88 OFFCURVE",
"116 57 CURVE SMOOTH",
"139 26 OFFCURVE",
"174 7 OFFCURVE",
"223 7 CURVE SMOOTH"
);
}
);
width = 560;
}
);
leftKerningGroup = c;
rightKerningGroup = j;
unicode = 0071;
},
{
glyphname = r;
layers = (
{
layerId = "0D764256-9FC1-4D23-B14D-BAC78E5C0998";
name = "Light Italic";
paths = (
{
closed = 1;
nodes = (
"53 0 LINE",
"154 506 LINE",
"175 506 LINE",
"152 392 LINE",
"155 392 LINE",
"172 425 OFFCURVE",
"192 454 OFFCURVE",
"220 474 CURVE SMOOTH",
"247 494 OFFCURVE",
"281 506 OFFCURVE",
"328 506 CURVE SMOOTH",
"358 506 LINE",
"354 487 LINE",
"325 487 LINE SMOOTH",
"276 487 OFFCURVE",
"232 466 OFFCURVE",
"199 431 CURVE SMOOTH",
"166 395 OFFCURVE",
"143 346 OFFCURVE",
"132 293 CURVE SMOOTH",
"74 0 LINE"
);
}
);
width = 338;
}
);
leftKerningGroup = m;
rightKerningGroup = r;
unicode = 0072;
},
{
glyphname = s;
layers = (
{
layerId = "0D764256-9FC1-4D23-B14D-BAC78E5C0998";
name = "Light Italic";
paths = (
{
closed = 1;
nodes = (
"115 -12 OFFCURVE",
"56 22 OFFCURVE",
"13 86 CURVE",
"31 98 LINE",
"69 37 OFFCURVE",
"125 7 OFFCURVE",
"199 7 CURVE SMOOTH",
"292 7 OFFCURVE",
"354 54 OFFCURVE",
"354 138 CURVE SMOOTH",
"354 170 OFFCURVE",
"344 191 OFFCURVE",
"327 207 CURVE SMOOTH",
"310 223 OFFCURVE",
"284 233 OFFCURVE",
"251 241 CURVE SMOOTH",
"201 254 LINE SMOOTH",
"166 263 OFFCURVE",
"138 275 OFFCURVE",
"118 294 CURVE SMOOTH",
"97 313 OFFCURVE",
"85 339 OFFCURVE",
"85 378 CURVE SMOOTH",
"85 425 OFFCURVE",
"105 459 OFFCURVE",
"135 483 CURVE SMOOTH",
"165 506 OFFCURVE",
"207 518 OFFCURVE",
"252 518 CURVE SMOOTH",
"296 518 OFFCURVE",
"329 509 OFFCURVE",
"355 494 CURVE SMOOTH",
"381 479 OFFCURVE",
"399 459 OFFCURVE",
"414 439 CURVE",
"398 425 LINE",
"370 465 OFFCURVE",
"331 499 OFFCURVE",
"251 499 CURVE SMOOTH",
"163 499 OFFCURVE",
"106 457 OFFCURVE",
"106 378 CURVE SMOOTH",
"106 315 OFFCURVE",
"140 290 OFFCURVE",
"207 273 CURVE SMOOTH",
"257 260 LINE SMOOTH",
"290 251 OFFCURVE",
"321 240 OFFCURVE",
"342 222 CURVE SMOOTH",
"362 204 OFFCURVE",
"375 178 OFFCURVE",
"375 139 CURVE SMOOTH",
"375 88 OFFCURVE",
"356 51 OFFCURVE",
"324 26 CURVE SMOOTH",
"292 1 OFFCURVE",
"248 -12 OFFCURVE",
"199 -12 CURVE SMOOTH"
);
}
);
width = 448;
}
);
leftKerningGroup = s;
rightKerningGroup = s;
unicode = 0073;
},
{
glyphname = t;
layers = (
{
layerId = "0D764256-9FC1-4D23-B14D-BAC78E5C0998";
name = "Light Italic";
paths = (
{
closed = 1;
nodes = (
"100 0 LINE SMOOTH",
"85 0 OFFCURVE",
"77 6 OFFCURVE",
"77 19 CURVE SMOOTH",
"77 26 OFFCURVE",
"78 28 OFFCURVE",
"79 35 CURVE",
"169 487 LINE",
"74 487 LINE",
"78 506 LINE",
"150 506 LINE SMOOTH",
"169 506 OFFCURVE",
"175 512 OFFCURVE",
"178 531 CURVE",
"202 650 LINE",
"223 650 LINE",
"194 506 LINE",
"315 506 LINE",
"311 487 LINE",
"190 487 LINE",
"97 19 LINE",
"210 19 LINE",
"206 0 LINE"
);
}
);
width = 302;
}
);
leftKerningGroup = t;
rightKerningGroup = t;
unicode = 0074;
},
{
glyphname = u;
layers = (
{
layerId = "0D764256-9FC1-4D23-B14D-BAC78E5C0998";
name = "Light Italic";
paths = (
{
closed = 1;
nodes = (
"166 506 LINE",
"102 186 LINE SMOOTH",
"98 163 OFFCURVE",
"95 136 OFFCURVE",
"95 123 CURVE SMOOTH",
"95 46 OFFCURVE",
"133 7 OFFCURVE",
"209 7 CURVE SMOOTH",
"254 7 OFFCURVE",
"302 22 OFFCURVE",
"342 69 CURVE SMOOTH",
"365 96 OFFCURVE",
"393 134 OFFCURVE",
"405 194 CURVE SMOOTH",
"467 506 LINE",
"488 506 LINE",
"391 19 LINE",
"476 19 LINE",
"472 0 LINE",
"394 0 LINE SMOOTH",
"379 0 OFFCURVE",
"371 6 OFFCURVE",
"371 19 CURVE SMOOTH",
"371 26 OFFCURVE",
"372 28 OFFCURVE",
"373 35 CURVE",
"387 105 LINE",
"384 105 LINE",
"344 29 OFFCURVE",
"290 -12 OFFCURVE",
"206 -12 CURVE SMOOTH",
"121 -12 OFFCURVE",
"74 36 OFFCURVE",
"74 120 CURVE SMOOTH",
"74 140 OFFCURVE",
"77 165 OFFCURVE",
"81 185 CURVE SMOOTH",
"145 506 LINE"
);
}
);
width = 548;
}
);
leftKerningGroup = u;
rightKerningGroup = a;
unicode = 0075;
},
{
glyphname = v;
layers = (
{
layerId = "0D764256-9FC1-4D23-B14D-BAC78E5C0998";
name = "Light Italic";
paths = (
{
closed = 1;
nodes = (
"163 0 LINE",
"73 506 LINE",
"93 506 LINE",
"178 24 LINE",
"181 24 LINE",
"454 506 LINE",
"477 506 LINE",
"189 0 LINE"
);
}
);
width = 460;
}
);
leftKerningGroup = v;
rightKerningGroup = v;
unicode = 0076;
},
{
glyphname = w;
layers = (
{
layerId = "0D764256-9FC1-4D23-B14D-BAC78E5C0998";
name = "Light Italic";
paths = (
{
closed = 1;
nodes = (
"78 506 LINE",
"98 506 LINE",
"146 27 LINE",
"149 27 LINE",
"394 506 LINE",
"416 506 LINE",
"467 27 LINE",
"469 27 LINE",
"710 506 LINE",
"732 506 LINE",
"476 0 LINE",
"450 0 LINE",
"401 472 LINE",
"398 472 LINE",
"156 0 LINE",
"130 0 LINE"
);
}
);
width = 718;
}
);
leftKerningGroup = w;
rightKerningGroup = w;
unicode = 0077;
},
{
glyphname = x;
layers = (
{
layerId = "0D764256-9FC1-4D23-B14D-BAC78E5C0998";
name = "Light Italic";
paths = (
{
closed = 1;
nodes = (
"-4 0 LINE",
"221 257 LINE",
"88 506 LINE",
"110 506 LINE",
"237 271 LINE",
"240 271 LINE",
"446 506 LINE",
"473 506 LINE",
"249 253 LINE",
"381 0 LINE",
"359 0 LINE",
"233 239 LINE",
"230 239 LINE",
"23 0 LINE"
);
}
);
width = 473;
}
);
leftKerningGroup = x;
rightKerningGroup = x;
unicode = 0078;
},
{
glyphname = y;
layers = (
{
layerId = "0D764256-9FC1-4D23-B14D-BAC78E5C0998";
name = "Light Italic";
paths = (
{
closed = 1;
nodes = (
"454 506 LINE",
"477 506 LINE",
"89 -175 LINE SMOOTH",
"78 -194 OFFCURVE",
"70 -200 OFFCURVE",
"51 -200 CURVE SMOOTH",
"-24 -200 LINE",
"-20 -181 LINE",
"64 -181 LINE",
"164 -3 LINE",
"73 506 LINE",
"93 506 LINE",
"178 24 LINE",
"181 24 LINE"
);
}
);
width = 460;
}
);
leftKerningGroup = y;
rightKerningGroup = y;
unicode = 0079;
},
{
glyphname = z;
layers = (
{
layerId = "0D764256-9FC1-4D23-B14D-BAC78E5C0998";
name = "Light Italic";
paths = (
{
closed = 1;
nodes = (
"-1 0 LINE",
"3 20 LINE",
"402 487 LINE",
"92 487 LINE",
"96 506 LINE",
"430 506 LINE",
"426 486 LINE",
"28 19 LINE",
"350 19 LINE",
"346 0 LINE"
);
}
);
width = 430;
}
);
leftKerningGroup = z;
rightKerningGroup = z;
unicode = 007A;
},
{
glyphname = A;
layers = (
{
layerId = "0D764256-9FC1-4D23-B14D-BAC78E5C0998";
name = "Light Italic";
paths = (
{
closed = 1;
nodes = (
"497 0 LINE",
"452 234 LINE",
"134 234 LINE",
"12 0 LINE",
"-12 0 LINE",
"354 698 LINE",
"384 698 LINE",
"519 0 LINE"
);
},
{
closed = 1;
nodes = (
"367 673 LINE",
"364 673 LINE",
"144 253 LINE",
"448 253 LINE"
);
}
);
width = 594;
}
);
leftKerningGroup = A;
rightKerningGroup = A;
unicode = 0041;
},
{
glyphname = B;
layers = (
{
layerId = "0D764256-9FC1-4D23-B14D-BAC78E5C0998";
name = "Light Italic";
paths = (
{
closed = 1;
nodes = (
"193 698 LINE",
"414 698 LINE SMOOTH",
"510 698 OFFCURVE",
"564 649 OFFCURVE",
"564 561 CURVE SMOOTH",
"564 520 OFFCURVE",
"557 478 OFFCURVE",
"537 443 CURVE SMOOTH",
"516 407 OFFCURVE",
"482 381 OFFCURVE",
"429 370 CURVE",
"429 367 LINE",
"496 352 OFFCURVE",
"531 296 OFFCURVE",
"531 228 CURVE SMOOTH",
"531 83 OFFCURVE",
"452 0 OFFCURVE",
"321 0 CURVE SMOOTH",
"55 0 LINE"
);
},
{
closed = 1;
nodes = (
"323 20 LINE SMOOTH",
"427 20 OFFCURVE",
"484 79 OFFCURVE",
"500 159 CURVE SMOOTH",
"504 178 OFFCURVE",
"507 193 OFFCURVE",
"508 204 CURVE SMOOTH",
"509 215 OFFCURVE",
"509 223 OFFCURVE",
"509 228 CURVE SMOOTH",
"509 263 OFFCURVE",
"500 295 OFFCURVE",
"478 319 CURVE SMOOTH",
"456 343 OFFCURVE",
"422 358 OFFCURVE",
"377 358 CURVE SMOOTH",
"148 358 LINE",
"81 20 LINE"
);
},
{
closed = 1;
nodes = (
"367 378 LINE SMOOTH",
"462 378 OFFCURVE",
"518 422 OFFCURVE",
"533 495 CURVE SMOOTH",
"537 516 OFFCURVE",
"540 532 OFFCURVE",
"541 541 CURVE SMOOTH",
"542 550 OFFCURVE",
"542 557 OFFCURVE",
"542 562 CURVE SMOOTH",
"542 633 OFFCURVE",
"505 678 OFFCURVE",
"413 678 CURVE SMOOTH",
"211 678 LINE",
"152 378 LINE"
);
}
);
width = 606;
}
);
unicode = 0042;
},
{
glyphname = C;
layers = (
{
layerId = "0D764256-9FC1-4D23-B14D-BAC78E5C0998";
name = "Light Italic";
paths = (
{
closed = 1;
nodes = (
"224 -12 OFFCURVE",
"170 8 OFFCURVE",
"131 48 CURVE SMOOTH",
"91 87 OFFCURVE",
"69 144 OFFCURVE",
"69 220 CURVE SMOOTH",
"69 285 OFFCURVE",
"78 363 OFFCURVE",
"101 435 CURVE SMOOTH",
"124 507 OFFCURVE",
"157 576 OFFCURVE",
"206 627 CURVE SMOOTH",
"255 678 OFFCURVE",
"318 710 OFFCURVE",
"398 710 CURVE SMOOTH",
"510 710 OFFCURVE",
"566 656 OFFCURVE",
"589 569 CURVE",
"568 564 LINE",
"557 601 OFFCURVE",
"541 634 OFFCURVE",
"514 656 CURVE SMOOTH",
"486 678 OFFCURVE",
"449 690 OFFCURVE",
"397 690 CURVE SMOOTH",
"326 690 OFFCURVE",
"264 660 OFFCURVE",
"215 607 CURVE SMOOTH",
"166 554 OFFCURVE",
"131 477 OFFCURVE",
"112 384 CURVE SMOOTH",
"101 329 LINE SMOOTH",
"93 286 OFFCURVE",
"91 248 OFFCURVE",
"91 220 CURVE SMOOTH",
"91 89 OFFCURVE",
"162 8 OFFCURVE",
"291 8 CURVE SMOOTH",
"384 8 OFFCURVE",
"447 55 OFFCURVE",
"500 151 CURVE",
"519 141 LINE",
"456 32 OFFCURVE",
"388 -12 OFFCURVE",
"291 -12 CURVE SMOOTH"
);
}
);
width = 595;
}
);
leftKerningGroup = C;
rightKerningGroup = C;
unicode = 0043;
},
{
glyphname = D;
layers = (
{
layerId = "0D764256-9FC1-4D23-B14D-BAC78E5C0998";
name = "Light Italic";
paths = (
{
closed = 1;
nodes = (
"193 698 LINE",
"378 698 LINE SMOOTH",
"531 698 OFFCURVE",
"610 613 OFFCURVE",
"610 468 CURVE SMOOTH",
"610 355 OFFCURVE",
"586 237 OFFCURVE",
"532 149 CURVE SMOOTH",
"478 60 OFFCURVE",
"395 0 OFFCURVE",
"282 0 CURVE SMOOTH",
"55 0 LINE"
);
},
{
closed = 1;
nodes = (
"282 20 LINE SMOOTH",
"361 20 OFFCURVE",
"424 52 OFFCURVE",
"472 104 CURVE SMOOTH",
"520 156 OFFCURVE",
"551 227 OFFCURVE",
"567 303 CURVE SMOOTH",
"578 358 LINE SMOOTH",
"586 401 OFFCURVE",
"588 440 OFFCURVE",
"588 468 CURVE SMOOTH",
"588 597 OFFCURVE",
"519 678 OFFCURVE",
"375 678 CURVE SMOOTH",
"211 678 LINE",
"81 20 LINE"
);
}
);
width = 648;
}
);
rightKerningGroup = D;
unicode = 0044;
},
{
glyphname = E;
layers = (
{
layerId = "0D764256-9FC1-4D23-B14D-BAC78E5C0998";
name = "Light Italic";
paths = (
{
closed = 1;
nodes = (
"54 0 LINE",
"194 698 LINE",
"572 698 LINE",
"568 678 LINE",
"212 678 LINE",
"149 364 LINE",
"493 364 LINE",
"489 344 LINE",
"145 344 LINE",
"80 20 LINE",
"436 20 LINE",
"432 0 LINE"
);
}
);
width = 553;
}
);
rightKerningGroup = E;
unicode = 0045;
},
{
glyphname = F;
layers = (
{
layerId = "0D764256-9FC1-4D23-B14D-BAC78E5C0998";
name = "Light Italic";
paths = (
{
closed = 1;
nodes = (
"54 0 LINE",
"194 698 LINE",
"564 698 LINE",
"560 678 LINE",
"212 678 LINE",
"149 364 LINE",
"483 364 LINE",
"479 344 LINE",
"145 344 LINE",
"76 0 LINE"
);
}
);
width = 528;
}
);
rightKerningGroup = F;
unicode = 0046;
},
{
glyphname = G;
layers = (
{
layerId = "0D764256-9FC1-4D23-B14D-BAC78E5C0998";
name = "Light Italic";
paths = (
{
closed = 1;
nodes = (
"525 114 LINE",
"522 114 LINE",
"470 26 OFFCURVE",
"391 -12 OFFCURVE",
"295 -12 CURVE SMOOTH",
"228 -12 OFFCURVE",
"172 8 OFFCURVE",
"132 48 CURVE SMOOTH",
"92 87 OFFCURVE",
"69 144 OFFCURVE",
"69 220 CURVE SMOOTH",
"69 285 OFFCURVE",
"79 363 OFFCURVE",
"101 435 CURVE SMOOTH",
"123 507 OFFCURVE",
"158 576 OFFCURVE",
"207 627 CURVE SMOOTH",
"256 678 OFFCURVE",
"320 710 OFFCURVE",
"403 710 CURVE SMOOTH",
"524 710 OFFCURVE",
"586 657 OFFCURVE",
"610 569 CURVE",
"589 564 LINE",
"566 641 OFFCURVE",
"515 690 OFFCURVE",
"402 690 CURVE SMOOTH",
"329 690 OFFCURVE",
"265 660 OFFCURVE",
"216 607 CURVE SMOOTH",
"167 554 OFFCURVE",
"131 477 OFFCURVE",
"112 384 CURVE SMOOTH",
"101 329 LINE SMOOTH",
"93 286 OFFCURVE",
"91 248 OFFCURVE",
"91 220 CURVE SMOOTH",
"91 89 OFFCURVE",
"162 8 OFFCURVE",
"295 8 CURVE SMOOTH",
"348 8 OFFCURVE",
"403 23 OFFCURVE",
"448 55 CURVE SMOOTH",
"492 87 OFFCURVE",
"526 136 OFFCURVE",
"541 205 CURVE SMOOTH",
"563 312 LINE",
"387 312 LINE",
"391 332 LINE",
"589 332 LINE",
"523 0 LINE",
"502 0 LINE"
);
}
);
width = 660;
}
);
leftKerningGroup = C;
rightKerningGroup = G;
unicode = 0047;
},
{
glyphname = H;
layers = (
{
layerId = "0D764256-9FC1-4D23-B14D-BAC78E5C0998";
name = "Light Italic";
paths = (
{
closed = 1;
nodes = (
"571 344 LINE",
"145 344 LINE",
"76 0 LINE",
"54 0 LINE",
"194 698 LINE",
"216 698 LINE",
"149 364 LINE",
"575 364 LINE",
"642 698 LINE",
"664 698 LINE",
"524 0 LINE",
"502 0 LINE"
);
}
);
width = 680;
}
);
unicode = 0048;
},
{
glyphname = I;
lastChange = "2018-11-04 06:50:27 +0000";
layers = (
{
layerId = "0D764256-9FC1-4D23-B14D-BAC78E5C0998";
name = "Light Italic";
paths = (
{
closed = 1;
nodes = (
"194 698 LINE",
"216 698 LINE",
"76 0 LINE",
"54 0 LINE"
);
}
);
width = 232;
}
);
leftKerningGroup = I;
rightKerningGroup = I;
unicode = 0049;
},
{
glyphname = J;
lastChange = "2018-11-04 05:57:25 +0000";
layers = (
{
layerId = "0D764256-9FC1-4D23-B14D-BAC78E5C0998";
name = "Light Italic";
paths = (
{
closed = 1;
nodes = (
"322 184 LINE SMOOTH",
"300 72 OFFCURVE",
"237 8 OFFCURVE",
"142 8 CURVE SMOOTH",
"64 8 OFFCURVE",
"14 46 OFFCURVE",
"6 123 CURVE",
"-14 118 LINE",
"-8 43 OFFCURVE",
"45 -12 OFFCURVE",
"142 -12 CURVE SMOOTH",
"246 -12 OFFCURVE",
"319 56 OFFCURVE",
"343 178 CURVE SMOOTH",
"446 698 LINE",
"425 698 LINE"
);
}
);
width = 455;
}
);
leftKerningGroup = J;
rightKerningGroup = J;
unicode = 004A;
},
{
glyphname = K;
layers = (
{
layerId = "0D764256-9FC1-4D23-B14D-BAC78E5C0998";
name = "Light Italic";
paths = (
{
closed = 1;
nodes = (
"290 388 LINE",
"125 237 LINE",
"76 0 LINE",
"54 0 LINE",
"194 698 LINE",
"216 698 LINE",
"131 271 LINE",
"134 271 LINE",
"300 423 LINE",
"604 698 LINE",
"633 698 LINE",
"307 402 LINE",
"497 0 LINE",
"474 0 LINE"
);
}
);
width = 564;
}
);
rightKerningGroup = K;
unicode = 004B;
},
{
glyphname = L;
layers = (
{
layerId = "0D764256-9FC1-4D23-B14D-BAC78E5C0998";
name = "Light Italic";
paths = (
{
closed = 1;
nodes = (
"54 0 LINE",
"194 698 LINE",
"216 698 LINE",
"80 20 LINE",
"405 20 LINE",
"401 0 LINE"
);
}
);
width = 468;
}
);
rightKerningGroup = L;
unicode = 004C;
},
{
glyphname = M;
layers = (
{
layerId = "0D764256-9FC1-4D23-B14D-BAC78E5C0998";
name = "Light Italic";
paths = (
{
closed = 1;
nodes = (
"738 673 LINE",
"735 673 LINE",
"386 236 LINE",
"213 673 LINE",
"210 673 LINE",
"75 0 LINE",
"54 0 LINE",
"194 698 LINE",
"226 698 LINE",
"392 278 LINE",
"395 278 LINE",
"729 698 LINE",
"764 698 LINE",
"624 0 LINE",
"603 0 LINE"
);
}
);
width = 780;
}
);
unicode = 004D;
},
{
glyphname = N;
layers = (
{
layerId = "0D764256-9FC1-4D23-B14D-BAC78E5C0998";
name = "Light Italic";
paths = (
{
closed = 1;
nodes = (
"212 671 LINE",
"209 671 LINE",
"75 0 LINE",
"54 0 LINE",
"194 698 LINE",
"224 698 LINE",
"506 27 LINE",
"509 27 LINE",
"643 698 LINE",
"664 698 LINE",
"524 0 LINE",
"494 0 LINE"
);
}
);
width = 680;
}
);
unicode = 004E;
},
{
glyphname = O;
layers = (
{
layerId = "0D764256-9FC1-4D23-B14D-BAC78E5C0998";
name = "Light Italic";
paths = (
{
closed = 1;
nodes = (
"224 -12 OFFCURVE",
"170 8 OFFCURVE",
"131 48 CURVE SMOOTH",
"91 87 OFFCURVE",
"69 144 OFFCURVE",
"69 220 CURVE SMOOTH",
"69 285 OFFCURVE",
"79 363 OFFCURVE",
"101 435 CURVE SMOOTH",
"123 507 OFFCURVE",
"158 576 OFFCURVE",
"207 627 CURVE SMOOTH",
"255 678 OFFCURVE",
"320 710 OFFCURVE",
"401 710 CURVE SMOOTH",
"466 710 OFFCURVE",
"522 690 OFFCURVE",
"562 651 CURVE SMOOTH",
"601 611 OFFCURVE",
"623 554 OFFCURVE",
"623 478 CURVE SMOOTH",
"623 413 OFFCURVE",
"614 335 OFFCURVE",
"592 263 CURVE SMOOTH",
"570 191 OFFCURVE",
"534 122 OFFCURVE",
"486 71 CURVE SMOOTH",
"437 20 OFFCURVE",
"372 -12 OFFCURVE",
"291 -12 CURVE SMOOTH"
);
},
{
closed = 1;
nodes = (
"363 8 OFFCURVE",
"427 38 OFFCURVE",
"476 91 CURVE SMOOTH",
"525 144 OFFCURVE",
"561 221 OFFCURVE",
"580 314 CURVE SMOOTH",
"591 369 LINE SMOOTH",
"599 412 OFFCURVE",
"601 450 OFFCURVE",
"601 478 CURVE SMOOTH",
"601 609 OFFCURVE",
"530 690 OFFCURVE",
"401 690 CURVE SMOOTH",
"329 690 OFFCURVE",
"265 660 OFFCURVE",
"216 607 CURVE SMOOTH",
"167 554 OFFCURVE",
"131 477 OFFCURVE",
"112 384 CURVE SMOOTH",
"101 329 LINE SMOOTH",
"93 286 OFFCURVE",
"91 248 OFFCURVE",
"91 220 CURVE SMOOTH",
"91 89 OFFCURVE",
"162 8 OFFCURVE",
"291 8 CURVE SMOOTH"
);
}
);
width = 658;
}
);
leftKerningGroup = C;
rightKerningGroup = O;
unicode = 004F;
},
{
glyphname = P;
layers = (
{
layerId = "0D764256-9FC1-4D23-B14D-BAC78E5C0998";
name = "Light Italic";
paths = (
{
closed = 1;
nodes = (
"54 0 LINE",
"194 698 LINE",
"445 698 LINE SMOOTH",
"542 698 OFFCURVE",
"596 635 OFFCURVE",
"596 550 CURVE SMOOTH",
"596 405 OFFCURVE",
"517 322 OFFCURVE",
"386 322 CURVE SMOOTH",
"141 322 LINE",
"76 0 LINE"
);
},
{
closed = 1;
nodes = (
"145 342 LINE",
"388 342 LINE SMOOTH",
"492 342 OFFCURVE",
"549 401 OFFCURVE",
"565 481 CURVE SMOOTH",
"569 500 OFFCURVE",
"572 515 OFFCURVE",
"573 526 CURVE SMOOTH",
"574 537 OFFCURVE",
"574 545 OFFCURVE",
"574 550 CURVE SMOOTH",
"574 585 OFFCURVE",
"564 617 OFFCURVE",
"543 641 CURVE SMOOTH",
"522 664 OFFCURVE",
"488 678 OFFCURVE",
"443 678 CURVE SMOOTH",
"211 678 LINE"
);
}
);
width = 582;
}
);
rightKerningGroup = P;
unicode = 0050;
},
{
glyphname = Q;
layers = (
{
layerId = "0D764256-9FC1-4D23-B14D-BAC78E5C0998";
name = "Light Italic";
paths = (
{
closed = 1;
nodes = (
"283 -12 LINE",
"257 -126 LINE",
"361 -126 LINE",
"357 -146 LINE",
"259 -146 LINE SMOOTH",
"242 -146 OFFCURVE",
"236 -139 OFFCURVE",
"236 -128 CURVE SMOOTH",
"236 -123 OFFCURVE",
"238 -114 OFFCURVE",
"241 -99 CURVE SMOOTH",
"261 -10 LINE",
"145 1 OFFCURVE",
"69 80 OFFCURVE",
"69 220 CURVE SMOOTH",
"69 285 OFFCURVE",
"79 363 OFFCURVE",
"101 435 CURVE SMOOTH",
"123 507 OFFCURVE",
"158 576 OFFCURVE",
"207 627 CURVE SMOOTH",
"255 678 OFFCURVE",
"320 710 OFFCURVE",
"401 710 CURVE SMOOTH",
"466 710 OFFCURVE",
"522 690 OFFCURVE",
"562 651 CURVE SMOOTH",
"601 611 OFFCURVE",
"623 554 OFFCURVE",
"623 478 CURVE SMOOTH",
"623 413 OFFCURVE",
"614 335 OFFCURVE",
"592 263 CURVE SMOOTH",
"570 191 OFFCURVE",
"534 122 OFFCURVE",
"486 71 CURVE SMOOTH",
"437 20 OFFCURVE",
"372 -12 OFFCURVE",
"291 -12 CURVE SMOOTH"
);
},
{
closed = 1;
nodes = (
"363 8 OFFCURVE",
"427 38 OFFCURVE",
"476 91 CURVE SMOOTH",
"525 144 OFFCURVE",
"561 221 OFFCURVE",
"580 314 CURVE SMOOTH",
"591 369 LINE SMOOTH",
"599 412 OFFCURVE",
"601 450 OFFCURVE",
"601 478 CURVE SMOOTH",
"601 609 OFFCURVE",
"530 690 OFFCURVE",
"401 690 CURVE SMOOTH",
"329 690 OFFCURVE",
"265 660 OFFCURVE",
"216 607 CURVE SMOOTH",
"167 554 OFFCURVE",
"131 477 OFFCURVE",
"112 384 CURVE SMOOTH",
"101 329 LINE SMOOTH",
"93 286 OFFCURVE",
"91 248 OFFCURVE",
"91 220 CURVE SMOOTH",
"91 89 OFFCURVE",
"162 8 OFFCURVE",
"291 8 CURVE SMOOTH"
);
}
);
width = 658;
}
);
leftKerningGroup = C;
rightKerningGroup = O;
unicode = 0051;
},
{
glyphname = R;
layers = (
{
layerId = "0D764256-9FC1-4D23-B14D-BAC78E5C0998";
name = "Light Italic";
paths = (
{
closed = 1;
nodes = (
"76 0 LINE",
"54 0 LINE",
"194 698 LINE",
"445 698 LINE SMOOTH",
"542 698 OFFCURVE",
"596 635 OFFCURVE",
"596 550 CURVE SMOOTH",
"596 405 OFFCURVE",
"518 322 OFFCURVE",
"382 322 CURVE",
"507 0 LINE",
"484 0 LINE",
"359 322 LINE",
"141 322 LINE"
);
},
{
closed = 1;
nodes = (
"388 342 LINE SMOOTH",
"492 342 OFFCURVE",
"549 401 OFFCURVE",
"565 481 CURVE SMOOTH",
"569 500 OFFCURVE",
"572 515 OFFCURVE",
"573 526 CURVE SMOOTH",
"574 537 OFFCURVE",
"574 545 OFFCURVE",
"574 550 CURVE SMOOTH",
"574 585 OFFCURVE",
"564 617 OFFCURVE",
"543 641 CURVE SMOOTH",
"522 664 OFFCURVE",
"488 678 OFFCURVE",
"443 678 CURVE SMOOTH",
"211 678 LINE",
"145 342 LINE"
);
}
);
width = 630;
}
);
rightKerningGroup = R;
unicode = 0052;
},
{
glyphname = S;
layers = (
{
layerId = "0D764256-9FC1-4D23-B14D-BAC78E5C0998";
name = "Light Italic";
paths = (
{
closed = 1;
nodes = (
"175 -12 OFFCURVE",
"129 -1 OFFCURVE",
"94 19 CURVE SMOOTH",
"59 38 OFFCURVE",
"34 66 OFFCURVE",
"14 99 CURVE",
"32 112 LINE",
"51 80 OFFCURVE",
"73 54 OFFCURVE",
"105 36 CURVE SMOOTH",
"137 18 OFFCURVE",
"179 8 OFFCURVE",
"236 8 CURVE SMOOTH",
"311 8 OFFCURVE",
"363 31 OFFCURVE",
"396 67 CURVE SMOOTH",
"428 103 OFFCURVE",
"443 152 OFFCURVE",
"443 204 CURVE SMOOTH",
"443 276 OFFCURVE",
"407 314 OFFCURVE",
"322 337 CURVE SMOOTH",
"236 359 LINE SMOOTH",
"145 382 OFFCURVE",
"107 433 OFFCURVE",
"107 513 CURVE SMOOTH",
"107 566 OFFCURVE",
"125 616 OFFCURVE",
"161 652 CURVE SMOOTH",
"197 688 OFFCURVE",
"251 710 OFFCURVE",
"324 710 CURVE SMOOTH",
"381 710 OFFCURVE",
"424 701 OFFCURVE",
"456 685 CURVE SMOOTH",
"488 668 OFFCURVE",
"511 644 OFFCURVE",
"528 612 CURVE",
"510 601 LINE",
"474 666 OFFCURVE",
"422 690 OFFCURVE",
"323 690 CURVE SMOOTH",
"256 690 OFFCURVE",
"208 669 OFFCURVE",
"176 637 CURVE SMOOTH",
"144 605 OFFCURVE",
"129 561 OFFCURVE",
"129 513 CURVE SMOOTH",
"129 440 OFFCURVE",
"163 400 OFFCURVE",
"244 379 CURVE SMOOTH",
"327 357 LINE SMOOTH",
"420 332 OFFCURVE",
"466 281 OFFCURVE",
"466 204 CURVE SMOOTH",
"466 145 OFFCURVE",
"448 91 OFFCURVE",
"411 52 CURVE SMOOTH",
"374 12 OFFCURVE",
"315 -12 OFFCURVE",
"235 -12 CURVE SMOOTH"
);
}
);
width = 536;
}
);
leftKerningGroup = S;
rightKerningGroup = S;
unicode = 0053;
},
{
glyphname = T;
layers = (
{
layerId = "0D764256-9FC1-4D23-B14D-BAC78E5C0998";
name = "Light Italic";
paths = (
{
closed = 1;
nodes = (
"370 678 LINE",
"234 0 LINE",
"212 0 LINE",
"348 678 LINE",
"99 678 LINE",
"103 698 LINE",
"623 698 LINE",
"619 678 LINE"
);
}
);
width = 548;
}
);
leftKerningGroup = T;
rightKerningGroup = T;
unicode = 0054;
},
{
glyphname = U;
layers = (
{
layerId = "0D764256-9FC1-4D23-B14D-BAC78E5C0998";
name = "Light Italic";
paths = (
{
closed = 1;
nodes = (
"207 698 LINE",
"122 271 LINE SMOOTH",
"110 211 OFFCURVE",
"104 179 OFFCURVE",
"104 148 CURVE SMOOTH",
"104 60 OFFCURVE",
"156 8 OFFCURVE",
"273 8 CURVE SMOOTH",
"349 8 OFFCURVE",
"401 24 OFFCURVE",
"440 65 CURVE SMOOTH",
"479 106 OFFCURVE",
"503 171 OFFCURVE",
"523 271 CURVE SMOOTH",
"609 698 LINE",
"631 698 LINE",
"545 270 LINE SMOOTH",
"524 163 OFFCURVE",
"497 93 OFFCURVE",
"455 49 CURVE SMOOTH",
"413 5 OFFCURVE",
"356 -12 OFFCURVE",
"273 -12 CURVE SMOOTH",
"152 -12 OFFCURVE",
"82 41 OFFCURVE",
"82 148 CURVE SMOOTH",
"82 185 OFFCURVE",
"90 220 OFFCURVE",
"101 276 CURVE SMOOTH",
"185 698 LINE"
);
}
);
width = 639;
}
);
leftKerningGroup = U;
rightKerningGroup = U;
unicode = 0055;
},
{
glyphname = V;
layers = (
{
layerId = "0D764256-9FC1-4D23-B14D-BAC78E5C0998";
name = "Light Italic";
paths = (
{
closed = 1;
nodes = (
"217 0 LINE",
"117 698 LINE",
"139 698 LINE",
"235 25 LINE",
"238 25 LINE",
"603 698 LINE",
"627 698 LINE",
"247 0 LINE"
);
}
);
width = 566;
}
);
leftKerningGroup = V;
rightKerningGroup = V;
unicode = 0056;
},
{
glyphname = W;
layers = (
{
layerId = "0D764256-9FC1-4D23-B14D-BAC78E5C0998";
name = "Light Italic";
paths = (
{
closed = 1;
nodes = (
"161 0 LINE",
"121 698 LINE",
"143 698 LINE",
"181 31 LINE",
"184 31 LINE",
"507 698 LINE",
"538 698 LINE",
"589 31 LINE",
"592 31 LINE",
"905 698 LINE",
"929 698 LINE",
"600 0 LINE",
"569 0 LINE",
"519 668 LINE",
"516 668 LINE",
"192 0 LINE"
);
}
);
width = 864;
}
);
leftKerningGroup = W;
rightKerningGroup = W;
unicode = 0057;
},
{
glyphname = X;
layers = (
{
layerId = "0D764256-9FC1-4D23-B14D-BAC78E5C0998";
name = "Light Italic";
paths = (
{
closed = 1;
nodes = (
"473 0 LINE",
"449 0 LINE",
"292 336 LINE",
"289 336 LINE",
"-1 0 LINE",
"-29 0 LINE",
"279 356 LINE",
"118 698 LINE",
"142 698 LINE",
"294 375 LINE",
"297 375 LINE",
"574 698 LINE",
"602 698 LINE",
"306 355 LINE"
);
}
);
width = 552;
}
);
leftKerningGroup = X;
rightKerningGroup = X;
unicode = 0058;
},
{
glyphname = Y;
layers = (
{
layerId = "0D764256-9FC1-4D23-B14D-BAC78E5C0998";
name = "Light Italic";
paths = (
{
closed = 1;
nodes = (
"208 0 LINE",
"267 294 LINE",
"109 698 LINE",
"132 698 LINE",
"280 320 LINE",
"283 320 LINE",
"583 698 LINE",
"609 698 LINE",
"289 294 LINE",
"230 0 LINE"
);
}
);
width = 540;
}
);
leftKerningGroup = Y;
rightKerningGroup = Y;
unicode = 0059;
},
{
glyphname = Z;
layers = (
{
layerId = "0D764256-9FC1-4D23-B14D-BAC78E5C0998";
name = "Light Italic";
paths = (
{
closed = 1;
nodes = (
"462 0 LINE",
"-22 0 LINE",
"-17 22 LINE",
"550 678 LINE",
"137 678 LINE",
"141 698 LINE",
"581 698 LINE",
"576 676 LINE",
"9 20 LINE",
"466 20 LINE"
);
}
);
width = 543;
}
);
leftKerningGroup = Z;
rightKerningGroup = Z;
unicode = 005A;
},
{
glyphname = zero;
layers = (
{
layerId = "0D764256-9FC1-4D23-B14D-BAC78E5C0998";
name = "Light Italic";
paths = (
{
closed = 1;
nodes = (
"135 -12 OFFCURVE",
"75 65 OFFCURVE",
"75 219 CURVE SMOOTH",
"75 286 OFFCURVE",
"84 362 OFFCURVE",
"105 435 CURVE SMOOTH",
"125 507 OFFCURVE",
"157 576 OFFCURVE",
"202 627 CURVE SMOOTH",
"246 678 OFFCURVE",
"305 710 OFFCURVE",
"378 710 CURVE SMOOTH",
"497 710 OFFCURVE",
"557 633 OFFCURVE",
"557 479 CURVE SMOOTH",
"557 412 OFFCURVE",
"548 336 OFFCURVE",
"528 264 CURVE SMOOTH",
"507 191 OFFCURVE",
"475 122 OFFCURVE",
"431 71 CURVE SMOOTH",
"386 20 OFFCURVE",
"327 -12 OFFCURVE",
"254 -12 CURVE SMOOTH"
);
},
{
closed = 1;
nodes = (
"382 8 OFFCURVE",
"474 115 OFFCURVE",
"513 308 CURVE SMOOTH",
"525 367 LINE SMOOTH",
"533 407 OFFCURVE",
"536 444 OFFCURVE",
"536 479 CURVE SMOOTH",
"536 612 OFFCURVE",
"494 690 OFFCURVE",
"378 690 CURVE SMOOTH",
"250 690 OFFCURVE",
"158 583 OFFCURVE",
"119 390 CURVE SMOOTH",
"107 331 LINE SMOOTH",
"99 291 OFFCURVE",
"96 254 OFFCURVE",
"96 219 CURVE SMOOTH",
"96 86 OFFCURVE",
"138 8 OFFCURVE",
"254 8 CURVE SMOOTH"
);
}
);
width = 600;
}
);
unicode = 0030;
},
{
glyphname = one;
lastChange = "2018-11-05 15:50:02 +0000";
layers = (
{
layerId = "0D764256-9FC1-4D23-B14D-BAC78E5C0998";
name = "Light Italic";
paths = (
{
closed = 1;
nodes = (
"212 0 LINE",
"234 0 LINE",
"373 698 LINE",
"349 698 LINE",
"184 612 LINE",
"179 588 LINE",
"346 674 LINE"
);
}
);
width = 450;
}
);
unicode = 0031;
},
{
glyphname = two;
layers = (
{
layerId = "0D764256-9FC1-4D23-B14D-BAC78E5C0998";
name = "Light Italic";
paths = (
{
closed = 1;
nodes = (
"467 0 LINE",
"33 0 LINE",
"38 24 LINE",
"367 302 LINE SMOOTH",
"442 363 OFFCURVE",
"495 426 OFFCURVE",
"508 490 CURVE SMOOTH",
"513 511 OFFCURVE",
"515 526 OFFCURVE",
"516 535 CURVE SMOOTH",
"517 544 OFFCURVE",
"517 551 OFFCURVE",
"517 556 CURVE SMOOTH",
"517 635 OFFCURVE",
"471 690 OFFCURVE",
"368 690 CURVE SMOOTH",
"271 690 OFFCURVE",
"205 648 OFFCURVE",
"165 551 CURVE",
"146 557 LINE",
"187 662 OFFCURVE",
"262 710 OFFCURVE",
"370 710 CURVE SMOOTH",
"427 710 OFFCURVE",
"469 693 OFFCURVE",
"497 666 CURVE SMOOTH",
"525 638 OFFCURVE",
"538 600 OFFCURVE",
"538 556 CURVE SMOOTH",
"538 504 OFFCURVE",
"526 461 OFFCURVE",
"501 418 CURVE SMOOTH",
"476 375 OFFCURVE",
"436 334 OFFCURVE",
"383 289 CURVE SMOOTH",
"63 20 LINE",
"470 20 LINE"
);
}
);
width = 600;
}
);
unicode = 0032;
},
{
glyphname = three;
layers = (
{
layerId = "0D764256-9FC1-4D23-B14D-BAC78E5C0998";
name = "Light Italic";
paths = (
{
closed = 1;
nodes = (
"305 376 LINE SMOOTH",
"413 376 OFFCURVE",
"485 424 OFFCURVE",
"504 512 CURVE SMOOTH",
"507 525 OFFCURVE",
"509 535 OFFCURVE",
"510 541 CURVE SMOOTH",
"511 547 OFFCURVE",
"511 553 OFFCURVE",
"511 558 CURVE SMOOTH",
"511 641 OFFCURVE",
"453 690 OFFCURVE",
"360 690 CURVE SMOOTH",
"267 690 OFFCURVE",
"212 659 OFFCURVE",
"172 590 CURVE",
"154 599 LINE",
"193 670 OFFCURVE",
"258 710 OFFCURVE",
"363 710 CURVE SMOOTH",
"411 710 OFFCURVE",
"455 697 OFFCURVE",
"485 671 CURVE SMOOTH",
"515 645 OFFCURVE",
"533 608 OFFCURVE",
"533 560 CURVE SMOOTH",
"533 452 OFFCURVE",
"467 382 OFFCURVE",
"362 366 CURVE",
"361 363 LINE",
"430 354 OFFCURVE",
"481 297 OFFCURVE",
"481 216 CURVE SMOOTH",
"481 145 OFFCURVE",
"456 89 OFFCURVE",
"415 50 CURVE SMOOTH",
"374 10 OFFCURVE",
"314 -12 OFFCURVE",
"245 -12 CURVE SMOOTH",
"146 -12 OFFCURVE",
"72 20 OFFCURVE",
"40 95 CURVE",
"57 105 LINE",
"88 36 OFFCURVE",
"150 8 OFFCURVE",
"246 8 CURVE SMOOTH",
"355 8 OFFCURVE",
"432 67 OFFCURVE",
"451 160 CURVE SMOOTH",
"454 177 OFFCURVE",
"457 190 OFFCURVE",
"458 198 CURVE SMOOTH",
"459 205 OFFCURVE",
"459 211 OFFCURVE",
"459 216 CURVE SMOOTH",
"459 300 OFFCURVE",
"407 356 OFFCURVE",
"302 356 CURVE SMOOTH",
"207 356 LINE",
"211 376 LINE"
);
}
);
width = 600;
}
);
unicode = 0033;
},
{
glyphname = four;
layers = (
{
layerId = "0D764256-9FC1-4D23-B14D-BAC78E5C0998";
name = "Light Italic";
paths = (
{
closed = 1;
nodes = (
"358 0 LINE",
"390 160 LINE",
"25 160 LINE",
"29 181 LINE",
"490 698 LINE",
"519 698 LINE",
"415 179 LINE",
"532 179 LINE",
"528 160 LINE",
"411 160 LINE",
"379 0 LINE"
);
},
{
closed = 1;
nodes = (
"53 179 LINE",
"394 179 LINE",
"492 670 LINE",
"489 670 LINE"
);
}
);
width = 600;
}
);
unicode = 0034;
},
{
glyphname = five;
layers = (
{
layerId = "0D764256-9FC1-4D23-B14D-BAC78E5C0998";
name = "Light Italic";
paths = (
{
closed = 1;
nodes = (
"572 678 LINE",
"248 678 LINE",
"158 344 LINE",
"161 343 LINE",
"206 394 OFFCURVE",
"257 413 OFFCURVE",
"329 413 CURVE SMOOTH",
"446 413 OFFCURVE",
"505 350 OFFCURVE",
"505 245 CURVE SMOOTH",
"505 165 OFFCURVE",
"480 100 OFFCURVE",
"437 56 CURVE SMOOTH",
"394 12 OFFCURVE",
"333 -12 OFFCURVE",
"260 -12 CURVE SMOOTH",
"216 -12 OFFCURVE",
"174 -3 OFFCURVE",
"139 14 CURVE SMOOTH",
"104 31 OFFCURVE",
"77 58 OFFCURVE",
"61 95 CURVE",
"78 105 LINE",
"94 69 OFFCURVE",
"120 45 OFFCURVE",
"152 30 CURVE SMOOTH",
"184 14 OFFCURVE",
"220 8 OFFCURVE",
"259 8 CURVE SMOOTH",
"384 8 OFFCURVE",
"454 74 OFFCURVE",
"474 178 CURVE SMOOTH",
"478 198 OFFCURVE",
"481 213 OFFCURVE",
"482 222 CURVE SMOOTH",
"483 231 OFFCURVE",
"483 239 OFFCURVE",
"483 245 CURVE SMOOTH",
"483 337 OFFCURVE",
"435 393 OFFCURVE",
"328 393 CURVE SMOOTH",
"249 393 OFFCURVE",
"206 370 OFFCURVE",
"157 323 CURVE",
"133 326 LINE",
"233 698 LINE",
"575 698 LINE"
);
}
);
width = 600;
}
);
unicode = 0035;
},
{
glyphname = six;
layers = (
{
layerId = "0D764256-9FC1-4D23-B14D-BAC78E5C0998";
name = "Light Italic";
paths = (
{
closed = 1;
nodes = (
"203 -12 OFFCURVE",
"159 6 OFFCURVE",
"129 38 CURVE SMOOTH",
"99 70 OFFCURVE",
"85 115 OFFCURVE",
"85 168 CURVE SMOOTH",
"85 276 OFFCURVE",
"126 379 OFFCURVE",
"193 471 CURVE SMOOTH",
"260 562 OFFCURVE",
"353 641 OFFCURVE",
"460 698 CURVE",
"494 698 LINE",
"394 642 OFFCURVE",
"317 583 OFFCURVE",
"257 518 CURVE SMOOTH",
"197 453 OFFCURVE",
"154 381 OFFCURVE",
"125 297 CURVE",
"128 296 LINE",
"175 384 OFFCURVE",
"254 416 OFFCURVE",
"339 416 CURVE SMOOTH",
"448 416 OFFCURVE",
"518 352 OFFCURVE",
"518 245 CURVE SMOOTH",
"518 173 OFFCURVE",
"492 109 OFFCURVE",
"448 63 CURVE SMOOTH",
"403 17 OFFCURVE",
"340 -12 OFFCURVE",
"267 -12 CURVE SMOOTH"
);
},
{
closed = 1;
nodes = (
"325 8 OFFCURVE",
"376 27 OFFCURVE",
"415 59 CURVE SMOOTH",
"454 90 OFFCURVE",
"480 134 OFFCURVE",
"488 183 CURVE SMOOTH",
"491 203 OFFCURVE",
"494 217 OFFCURVE",
"495 225 CURVE SMOOTH",
"496 233 OFFCURVE",
"496 240 OFFCURVE",
"496 245 CURVE SMOOTH",
"496 334 OFFCURVE",
"445 396 OFFCURVE",
"336 396 CURVE SMOOTH",
"277 396 OFFCURVE",
"227 377 OFFCURVE",
"189 346 CURVE SMOOTH",
"151 314 OFFCURVE",
"123 270 OFFCURVE",
"114 221 CURVE SMOOTH",
"111 202 OFFCURVE",
"109 188 OFFCURVE",
"108 180 CURVE SMOOTH",
"107 172 OFFCURVE",
"106 165 OFFCURVE",
"106 160 CURVE SMOOTH",
"106 71 OFFCURVE",
"157 8 OFFCURVE",
"266 8 CURVE SMOOTH"
);
}
);
width = 600;
}
);
unicode = 0036;
},
{
glyphname = seven;
lastChange = "2018-11-05 15:49:47 +0000";
layers = (
{
layerId = "0D764256-9FC1-4D23-B14D-BAC78E5C0998";
name = "Light Italic";
paths = (
{
closed = 1;
nodes = (
"169 678 LINE",
"579 678 LINE",
"144 0 LINE",
"169 0 LINE",
"604 678 LINE",
"608 698 LINE",
"173 698 LINE"
);
}
);
width = 600;
}
);
unicode = 0037;
},
{
glyphname = eight;
layers = (
{
layerId = "0D764256-9FC1-4D23-B14D-BAC78E5C0998";
name = "Light Italic";
paths = (
{
closed = 1;
nodes = (
"117 -12 OFFCURVE",
"47 54 OFFCURVE",
"47 154 CURVE SMOOTH",
"47 210 OFFCURVE",
"66 259 OFFCURVE",
"101 296 CURVE SMOOTH",
"136 332 OFFCURVE",
"183 358 OFFCURVE",
"242 367 CURVE",
"242 371 LINE",
"173 388 OFFCURVE",
"139 433 OFFCURVE",
"139 506 CURVE SMOOTH",
"139 567 OFFCURVE",
"164 618 OFFCURVE",
"205 654 CURVE SMOOTH",
"246 690 OFFCURVE",
"304 710 OFFCURVE",
"372 710 CURVE SMOOTH",
"488 710 OFFCURVE",
"553 653 OFFCURVE",
"553 561 CURVE SMOOTH",
"553 510 OFFCURVE",
"535 467 OFFCURVE",
"507 433 CURVE SMOOTH",
"478 399 OFFCURVE",
"437 375 OFFCURVE",
"389 366 CURVE",
"388 362 LINE",
"467 341 OFFCURVE",
"506 290 OFFCURVE",
"506 209 CURVE SMOOTH",
"506 144 OFFCURVE",
"479 89 OFFCURVE",
"432 50 CURVE SMOOTH",
"385 10 OFFCURVE",
"321 -12 OFFCURVE",
"245 -12 CURVE SMOOTH"
);
},
{
closed = 1;
nodes = (
"306 8 OFFCURVE",
"360 23 OFFCURVE",
"401 51 CURVE SMOOTH",
"441 78 OFFCURVE",
"469 117 OFFCURVE",
"477 164 CURVE SMOOTH",
"480 181 OFFCURVE",
"482 192 OFFCURVE",
"483 198 CURVE SMOOTH",
"484 204 OFFCURVE",
"484 209 OFFCURVE",
"484 214 CURVE SMOOTH",
"484 298 OFFCURVE",
"422 356 OFFCURVE",
"307 356 CURVE SMOOTH",
"247 356 OFFCURVE",
"193 340 OFFCURVE",
"153 313 CURVE SMOOTH",
"113 285 OFFCURVE",
"85 247 OFFCURVE",
"76 200 CURVE SMOOTH",
"73 183 OFFCURVE",
"71 171 OFFCURVE",
"71 166 CURVE",
"70 160 OFFCURVE",
"70 155 OFFCURVE",
"70 150 CURVE SMOOTH",
"70 66 OFFCURVE",
"131 8 OFFCURVE",
"246 8 CURVE SMOOTH"
);
},
{
closed = 1;
nodes = (
"431 376 OFFCURVE",
"507 429 OFFCURVE",
"523 516 CURVE SMOOTH",
"526 532 OFFCURVE",
"528 543 OFFCURVE",
"529 550 CURVE SMOOTH",
"530 556 OFFCURVE",
"530 561 OFFCURVE",
"530 565 CURVE SMOOTH",
"530 642 OFFCURVE",
"474 690 OFFCURVE",
"370 690 CURVE SMOOTH",
"261 690 OFFCURVE",
"185 637 OFFCURVE",
"168 550 CURVE SMOOTH",
"165 534 OFFCURVE",
"163 523 OFFCURVE",
"163 517 CURVE",
"162 510 OFFCURVE",
"162 505 OFFCURVE",
"162 501 CURVE SMOOTH",
"162 424 OFFCURVE",
"218 376 OFFCURVE",
"322 376 CURVE SMOOTH"
);
}
);
width = 600;
}
);
unicode = 0038;
},
{
glyphname = nine;
layers = (
{
layerId = "0D764256-9FC1-4D23-B14D-BAC78E5C0998";
name = "Light Italic";
paths = (
{
closed = 1;
nodes = (
"547 422 OFFCURVE",
"506 319 OFFCURVE",
"439 228 CURVE SMOOTH",
"372 136 OFFCURVE",
"277 57 OFFCURVE",
"172 0 CURVE",
"138 0 LINE",
"238 56 OFFCURVE",
"315 115 OFFCURVE",
"375 180 CURVE SMOOTH",
"435 245 OFFCURVE",
"476 317 OFFCURVE",
"507 401 CURVE",
"504 402 LINE",
"457 314 OFFCURVE",
"378 282 OFFCURVE",
"293 282 CURVE SMOOTH",
"184 282 OFFCURVE",
"114 346 OFFCURVE",
"114 453 CURVE SMOOTH",
"114 525 OFFCURVE",
"140 590 OFFCURVE",
"185 636 CURVE SMOOTH",
"229 682 OFFCURVE",
"292 710 OFFCURVE",
"365 710 CURVE SMOOTH",
"429 710 OFFCURVE",
"474 692 OFFCURVE",
"504 660 CURVE SMOOTH",
"534 628 OFFCURVE",
"547 583 OFFCURVE",
"547 530 CURVE SMOOTH"
);
},
{
closed = 1;
nodes = (
"355 302 OFFCURVE",
"407 321 OFFCURVE",
"445 353 CURVE SMOOTH",
"483 384 OFFCURVE",
"509 428 OFFCURVE",
"518 477 CURVE SMOOTH",
"521 496 OFFCURVE",
"524 510 OFFCURVE",
"525 519 CURVE SMOOTH",
"526 527 OFFCURVE",
"526 534 OFFCURVE",
"526 539 CURVE SMOOTH",
"526 628 OFFCURVE",
"475 690 OFFCURVE",
"366 690 CURVE SMOOTH",
"307 690 OFFCURVE",
"256 671 OFFCURVE",
"217 640 CURVE SMOOTH",
"178 609 OFFCURVE",
"152 564 OFFCURVE",
"144 515 CURVE SMOOTH",
"141 496 OFFCURVE",
"139 482 OFFCURVE",
"138 474 CURVE SMOOTH",
"137 465 OFFCURVE",
"136 458 OFFCURVE",
"136 453 CURVE SMOOTH",
"136 364 OFFCURVE",
"187 302 OFFCURVE",
"296 302 CURVE SMOOTH"
);
}
);
width = 600;
}
);
unicode = 0039;
},
{
glyphname = ampersand;
layers = (
{
layerId = "0D764256-9FC1-4D23-B14D-BAC78E5C0998";
name = "Light Italic";
paths = (
{
closed = 1;
nodes = (
"471 115 LINE",
"415 42 OFFCURVE",
"326 -12 OFFCURVE",
"229 -12 CURVE SMOOTH",
"176 -12 OFFCURVE",
"131 0 OFFCURVE",
"99 25 CURVE SMOOTH",
"67 49 OFFCURVE",
"49 85 OFFCURVE",
"49 136 CURVE SMOOTH",
"49 176 OFFCURVE",
"61 216 OFFCURVE",
"94 255 CURVE SMOOTH",
"126 294 OFFCURVE",
"180 334 OFFCURVE",
"264 374 CURVE",
"211 443 OFFCURVE",
"198 489 OFFCURVE",
"198 524 CURVE SMOOTH",
"198 575 OFFCURVE",
"216 622 OFFCURVE",
"249 656 CURVE SMOOTH",
"281 690 OFFCURVE",
"330 710 OFFCURVE",
"391 710 CURVE SMOOTH",
"484 710 OFFCURVE",
"535 661 OFFCURVE",
"535 593 CURVE SMOOTH",
"535 549 OFFCURVE",
"522 516 OFFCURVE",
"486 483 CURVE SMOOTH",
"449 450 OFFCURVE",
"389 415 OFFCURVE",
"294 368 CURVE",
"471 147 LINE",
"506 202 OFFCURVE",
"530 279 OFFCURVE",
"545 351 CURVE",
"654 351 LINE",
"650 331 LINE",
"560 331 LINE",
"545 259 OFFCURVE",
"519 188 OFFCURVE",
"483 132 CURVE",
"589 0 LINE",
"563 0 LINE"
);
},
{
closed = 1;
nodes = (
"300 691 OFFCURVE",
"242 641 OFFCURVE",
"227 569 CURVE SMOOTH",
"224 556 OFFCURVE",
"223 547 OFFCURVE",
"222 541 CURVE SMOOTH",
"221 534 OFFCURVE",
"220 529 OFFCURVE",
"220 524 CURVE SMOOTH",
"220 493 OFFCURVE",
"230 451 OFFCURVE",
"282 383 CURVE",
"371 426 OFFCURVE",
"429 458 OFFCURVE",
"465 490 CURVE SMOOTH",
"500 522 OFFCURVE",
"513 552 OFFCURVE",
"513 592 CURVE SMOOTH",
"513 656 OFFCURVE",
"468 691 OFFCURVE",
"387 691 CURVE SMOOTH"
);
},
{
closed = 1;
nodes = (
"276 359 LINE",
"205 324 OFFCURVE",
"159 295 OFFCURVE",
"128 264 CURVE SMOOTH",
"96 232 OFFCURVE",
"81 201 OFFCURVE",
"74 162 CURVE",
"71 151 OFFCURVE",
"71 144 OFFCURVE",
"71 133 CURVE SMOOTH",
"71 46 OFFCURVE",
"136 8 OFFCURVE",
"233 8 CURVE SMOOTH",
"326 8 OFFCURVE",
"407 58 OFFCURVE",
"459 130 CURVE"
);
}
);
width = 677;
}
);
leftKerningGroup = ampersand;
rightKerningGroup = ampersand;
unicode = 0026;
},
{
glyphname = at;
layers = (
{
layerId = "0D764256-9FC1-4D23-B14D-BAC78E5C0998";
name = "Light Italic";
paths = (
{
closed = 1;
nodes = (
"364 -121 LINE SMOOTH",
"272 -121 OFFCURVE",
"198 -93 OFFCURVE",
"147 -41 CURVE SMOOTH",
"95 11 OFFCURVE",
"66 87 OFFCURVE",
"66 186 CURVE SMOOTH",
"66 255 OFFCURVE",
"83 368 OFFCURVE",
"139 469 CURVE SMOOTH",
"194 569 OFFCURVE",
"274 641 OFFCURVE",
"374 681 CURVE SMOOTH",
"423 700 OFFCURVE",
"476 710 OFFCURVE",
"532 710 CURVE SMOOTH",
"619 710 OFFCURVE",
"695 685 OFFCURVE",
"749 635 CURVE SMOOTH",
"803 585 OFFCURVE",
"834 510 OFFCURVE",
"834 414 CURVE SMOOTH",
"834 385 OFFCURVE",
"831 355 OFFCURVE",
"824 320 CURVE SMOOTH",
"812 248 OFFCURVE",
"788 186 OFFCURVE",
"756 141 CURVE SMOOTH",
"723 96 OFFCURVE",
"681 69 OFFCURVE",
"630 69 CURVE SMOOTH",
"582 69 OFFCURVE",
"552 97 OFFCURVE",
"552 138 CURVE SMOOTH",
"552 150 LINE",
"549 150 LINE",
"536 131 OFFCURVE",
"516 111 OFFCURVE",
"491 96 CURVE SMOOTH",
"466 80 OFFCURVE",
"434 69 OFFCURVE",
"398 69 CURVE SMOOTH",
"310 69 OFFCURVE",
"261 122 OFFCURVE",
"261 210 CURVE SMOOTH",
"261 233 OFFCURVE",
"264 259 OFFCURVE",
"269 287 CURVE SMOOTH",
"296 438 OFFCURVE",
"374 508 OFFCURVE",
"486 508 CURVE SMOOTH",
"550 508 OFFCURVE",
"596 469 OFFCURVE",
"605 426 CURVE",
"608 426 LINE",
"621 496 LINE",
"641 496 LINE",
"575 163 LINE SMOOTH",
"574 158 OFFCURVE",
"573 154 OFFCURVE",
"573 150 CURVE SMOOTH",
"573 146 OFFCURVE",
"573 142 OFFCURVE",
"573 138 CURVE SMOOTH",
"573 106 OFFCURVE",
"594 87 OFFCURVE",
"633 87 CURVE SMOOTH",
"705 87 OFFCURVE",
"772 162 OFFCURVE",
"797 295 CURVE SMOOTH",
"806 342 LINE SMOOTH",
"811 369 OFFCURVE",
"814 390 OFFCURVE",
"814 414 CURVE SMOOTH",
"814 503 OFFCURVE",
"785 572 OFFCURVE",
"735 620 CURVE SMOOTH",
"685 667 OFFCURVE",
"613 692 OFFCURVE",
"528 692 CURVE SMOOTH",
"427 692 OFFCURVE",
"332 653 OFFCURVE",
"257 587 CURVE SMOOTH",
"182 521 OFFCURVE",
"127 430 OFFCURVE",
"106 326 CURVE SMOOTH",
"95 274 LINE SMOOTH",
"88 243 OFFCURVE",
"85 214 OFFCURVE",
"85 186 CURVE SMOOTH",
"85 95 OFFCURVE",
"113 22 OFFCURVE",
"162 -27 CURVE SMOOTH",
"211 -76 OFFCURVE",
"282 -103 OFFCURVE",
"367 -103 CURVE SMOOTH",
"603 -103 LINE",
"600 -121 LINE"
);
},
{
closed = 1;
nodes = (
"437 87 OFFCURVE",
"475 101 OFFCURVE",
"505 125 CURVE SMOOTH",
"535 148 OFFCURVE",
"557 179 OFFCURVE",
"564 212 CURVE SMOOTH",
"594 362 LINE SMOOTH",
"602 399 OFFCURVE",
"592 433 OFFCURVE",
"572 455 CURVE SMOOTH",
"551 477 OFFCURVE",
"519 490 OFFCURVE",
"482 490 CURVE SMOOTH",
"385 490 OFFCURVE",
"318 421 OFFCURVE",
"295 306 CURVE SMOOTH",
"288 268 LINE SMOOTH",
"284 247 OFFCURVE",
"282 227 OFFCURVE",
"282 210 CURVE SMOOTH",
"282 134 OFFCURVE",
"321 87 OFFCURVE",
"401 87 CURVE SMOOTH"
);
}
);
width = 880;
}
);
leftKerningGroup = at;
rightKerningGroup = at;
unicode = 0040;
},
{
glyphname = hyphen;
layers = (
{
layerId = "0D764256-9FC1-4D23-B14D-BAC78E5C0998";
name = "Light Italic";
paths = (
{
closed = 1;
nodes = (
"88 295 LINE",
"92 315 LINE",
"321 315 LINE",
"317 295 LINE"
);
}
);
width = 388;
}
);
leftKerningGroup = hyphen;
rightKerningGroup = hyphen;
unicode = 002D;
},
{
glyphname = uni00AD;
layers = (
{
layerId = "0D764256-9FC1-4D23-B14D-BAC78E5C0998";
name = "Light Italic";
paths = (
{
closed = 1;
nodes = (
"88 295 LINE",
"92 315 LINE",
"321 315 LINE",
"317 295 LINE"
);
}
);
width = 388;
}
);
leftKerningGroup = hyphen;
rightKerningGroup = hyphen;
unicode = 00AD;
},
{
glyphname = endash;
layers = (
{
layerId = "0D764256-9FC1-4D23-B14D-BAC78E5C0998";
name = "Light Italic";
paths = (
{
closed = 1;
nodes = (
"35 296 LINE",
"39 314 LINE",
"555 314 LINE",
"551 296 LINE"
);
}
);
width = 569;
}
);
leftKerningGroup = hyphen;
rightKerningGroup = hyphen;
unicode = 2013;
},
{
glyphname = emdash;
layers = (
{
layerId = "0D764256-9FC1-4D23-B14D-BAC78E5C0998";
name = "Light Italic";
paths = (
{
closed = 1;
nodes = (
"35 296 LINE",
"39 314 LINE",
"747 314 LINE",
"743 296 LINE"
);
}
);
width = 761;
}
);
leftKerningGroup = hyphen;
rightKerningGroup = hyphen;
unicode = 2014;
},
{
glyphname = underscore;
layers = (
{
layerId = "0D764256-9FC1-4D23-B14D-BAC78E5C0998";
name = "Light Italic";
paths = (
{
closed = 1;
nodes = (
"-55 -141 LINE",
"-51 -123 LINE",
"458 -123 LINE",
"454 -141 LINE"
);
}
);
width = 559;
}
);
leftKerningGroup = underscore;
rightKerningGroup = underscore;
unicode = 005F;
},
{
glyphname = period;
layers = (
{
layerId = "0D764256-9FC1-4D23-B14D-BAC78E5C0998";
name = "Light Italic";
paths = (
{
closed = 1;
nodes = (
"51 -5 OFFCURVE",
"45 5 OFFCURVE",
"45 14 CURVE SMOOTH",
"45 19 OFFCURVE",
"47 28 OFFCURVE",
"48 32 CURVE SMOOTH",
"51 43 OFFCURVE",
"57 53 OFFCURVE",
"77 53 CURVE SMOOTH",
"96 53 OFFCURVE",
"102 43 OFFCURVE",
"102 34 CURVE SMOOTH",
"102 29 OFFCURVE",
"100 20 OFFCURVE",
"99 16 CURVE SMOOTH",
"96 5 OFFCURVE",
"91 -5 OFFCURVE",
"71 -5 CURVE SMOOTH"
);
}
);
width = 240;
}
);
leftKerningGroup = period;
rightKerningGroup = period;
unicode = 002E;
},
{
glyphname = ellipsis;
layers = (
{
layerId = "0D764256-9FC1-4D23-B14D-BAC78E5C0998";
name = "Light Italic";
paths = (
{
closed = 1;
nodes = (
"51 -5 OFFCURVE",
"45 5 OFFCURVE",
"45 14 CURVE SMOOTH",
"45 19 OFFCURVE",
"47 28 OFFCURVE",
"48 32 CURVE SMOOTH",
"51 43 OFFCURVE",
"57 53 OFFCURVE",
"77 53 CURVE SMOOTH",
"96 53 OFFCURVE",
"102 43 OFFCURVE",
"102 34 CURVE SMOOTH",
"102 29 OFFCURVE",
"100 20 OFFCURVE",
"99 16 CURVE SMOOTH",
"96 5 OFFCURVE",
"91 -5 OFFCURVE",
"71 -5 CURVE SMOOTH"
);
},
{
closed = 1;
nodes = (
"291 -5 OFFCURVE",
"285 5 OFFCURVE",
"285 14 CURVE SMOOTH",
"285 19 OFFCURVE",
"287 28 OFFCURVE",
"288 32 CURVE SMOOTH",
"291 43 OFFCURVE",
"297 53 OFFCURVE",
"317 53 CURVE SMOOTH",
"336 53 OFFCURVE",
"342 43 OFFCURVE",
"342 34 CURVE SMOOTH",
"342 29 OFFCURVE",
"340 20 OFFCURVE",
"339 16 CURVE SMOOTH",
"336 5 OFFCURVE",
"331 -5 OFFCURVE",
"311 -5 CURVE SMOOTH"
);
},
{
closed = 1;
nodes = (
"531 -5 OFFCURVE",
"525 5 OFFCURVE",
"525 14 CURVE SMOOTH",
"525 19 OFFCURVE",
"527 28 OFFCURVE",
"528 32 CURVE SMOOTH",
"531 43 OFFCURVE",
"537 53 OFFCURVE",
"557 53 CURVE SMOOTH",
"576 53 OFFCURVE",
"582 43 OFFCURVE",
"582 34 CURVE SMOOTH",
"582 29 OFFCURVE",
"580 20 OFFCURVE",
"579 16 CURVE SMOOTH",
"576 5 OFFCURVE",
"571 -5 OFFCURVE",
"551 -5 CURVE SMOOTH"
);
}
);
width = 720;
}
);
leftKerningGroup = period;
rightKerningGroup = period;
unicode = 2026;
},
{
glyphname = colon;
layers = (
{
layerId = "0D764256-9FC1-4D23-B14D-BAC78E5C0998";
name = "Light Italic";
paths = (
{
closed = 1;
nodes = (
"58 -5 OFFCURVE",
"52 5 OFFCURVE",
"52 14 CURVE SMOOTH",
"52 19 OFFCURVE",
"54 28 OFFCURVE",
"55 32 CURVE SMOOTH",
"58 43 OFFCURVE",
"64 53 OFFCURVE",
"84 53 CURVE SMOOTH",
"103 53 OFFCURVE",
"109 43 OFFCURVE",
"109 34 CURVE SMOOTH",
"109 29 OFFCURVE",
"107 20 OFFCURVE",
"106 16 CURVE SMOOTH",
"103 5 OFFCURVE",
"98 -5 OFFCURVE",
"78 -5 CURVE SMOOTH"
);
},
{
closed = 1;
nodes = (
"148 436 OFFCURVE",
"142 446 OFFCURVE",
"142 455 CURVE SMOOTH",
"142 460 OFFCURVE",
"144 469 OFFCURVE",
"145 473 CURVE SMOOTH",
"148 484 OFFCURVE",
"154 494 OFFCURVE",
"174 494 CURVE SMOOTH",
"193 494 OFFCURVE",
"199 484 OFFCURVE",
"199 475 CURVE SMOOTH",
"199 470 OFFCURVE",
"197 461 OFFCURVE",
"196 457 CURVE SMOOTH",
"193 446 OFFCURVE",
"188 436 OFFCURVE",
"168 436 CURVE SMOOTH"
);
}
);
width = 258;
}
);
leftKerningGroup = colon;
unicode = 003A;
},
{
glyphname = comma;
layers = (
{
layerId = "0D764256-9FC1-4D23-B14D-BAC78E5C0998";
name = "Light Italic";
paths = (
{
closed = 1;
nodes = (
"96 53 OFFCURVE",
"102 43 OFFCURVE",
"102 34 CURVE SMOOTH",
"102 29 OFFCURVE",
"100 19 OFFCURVE",
"99 15 CURVE SMOOTH",
"92 -12 OFFCURVE",
"79 -43 OFFCURVE",
"60 -71 CURVE SMOOTH",
"40 -100 OFFCURVE",
"17 -127 OFFCURVE",
"-8 -147 CURVE",
"-29 -147 LINE",
"31 -96 OFFCURVE",
"61 -42 OFFCURVE",
"72 -5 CURVE",
"49 -5 OFFCURVE",
"45 5 OFFCURVE",
"45 14 CURVE SMOOTH",
"45 19 OFFCURVE",
"47 28 OFFCURVE",
"48 32 CURVE SMOOTH",
"51 43 OFFCURVE",
"57 53 OFFCURVE",
"77 53 CURVE SMOOTH"
);
}
);
width = 240;
}
);
leftKerningGroup = period;
rightKerningGroup = period;
unicode = 002C;
},
{
glyphname = semicolon;
layers = (
{
layerId = "0D764256-9FC1-4D23-B14D-BAC78E5C0998";
name = "Light Italic";
paths = (
{
closed = 1;
nodes = (
"103 53 OFFCURVE",
"109 43 OFFCURVE",
"109 34 CURVE SMOOTH",
"109 29 OFFCURVE",
"107 19 OFFCURVE",
"106 15 CURVE SMOOTH",
"99 -12 OFFCURVE",
"86 -43 OFFCURVE",
"67 -71 CURVE SMOOTH",
"47 -100 OFFCURVE",
"24 -127 OFFCURVE",
"-1 -147 CURVE",
"-22 -147 LINE",
"38 -96 OFFCURVE",
"68 -42 OFFCURVE",
"79 -5 CURVE",
"56 -5 OFFCURVE",
"52 5 OFFCURVE",
"52 14 CURVE SMOOTH",
"52 19 OFFCURVE",
"54 28 OFFCURVE",
"55 32 CURVE SMOOTH",
"58 43 OFFCURVE",
"64 53 OFFCURVE",
"84 53 CURVE SMOOTH"
);
},
{
closed = 1;
nodes = (
"148 436 OFFCURVE",
"142 446 OFFCURVE",
"142 455 CURVE SMOOTH",
"142 460 OFFCURVE",
"144 469 OFFCURVE",
"145 473 CURVE SMOOTH",
"148 484 OFFCURVE",
"154 494 OFFCURVE",
"174 494 CURVE SMOOTH",
"193 494 OFFCURVE",
"199 484 OFFCURVE",
"199 475 CURVE SMOOTH",
"199 470 OFFCURVE",
"197 461 OFFCURVE",
"196 457 CURVE SMOOTH",
"193 446 OFFCURVE",
"188 436 OFFCURVE",
"168 436 CURVE SMOOTH"
);
}
);
width = 258;
}
);
leftKerningGroup = colon;
unicode = 003B;
},
{
glyphname = quotesingle;
layers = (
{
layerId = "0D764256-9FC1-4D23-B14D-BAC78E5C0998";
name = "Light Italic";
paths = (
{
closed = 1;
nodes = (
"147 490 LINE",
"197 740 LINE",
"217 740 LINE",
"167 490 LINE"
);
}
);
width = 220;
}
);
leftKerningGroup = quotesingle;
rightKerningGroup = quotesingle;
unicode = 0027;
},
{
glyphname = quotedbl;
layers = (
{
layerId = "0D764256-9FC1-4D23-B14D-BAC78E5C0998";
name = "Light Italic";
paths = (
{
closed = 1;
nodes = (
"147 490 LINE",
"197 740 LINE",
"217 740 LINE",
"167 490 LINE"
);
},
{
closed = 1;
nodes = (
"300 490 LINE",
"350 740 LINE",
"370 740 LINE",
"320 490 LINE"
);
}
);
width = 373;
}
);
leftKerningGroup = quotesingle;
rightKerningGroup = quotesingle;
unicode = 0022;
},
{
glyphname = quoteleft;
layers = (
{
layerId = "0D764256-9FC1-4D23-B14D-BAC78E5C0998";
name = "Light Italic";
paths = (
{
closed = 1;
nodes = (
"157 540 OFFCURVE",
"151 550 OFFCURVE",
"151 559 CURVE SMOOTH",
"151 564 OFFCURVE",
"153 574 OFFCURVE",
"154 578 CURVE SMOOTH",
"161 605 OFFCURVE",
"174 636 OFFCURVE",
"194 665 CURVE SMOOTH",
"213 693 OFFCURVE",
"236 720 OFFCURVE",
"261 740 CURVE",
"282 740 LINE",
"222 689 OFFCURVE",
"192 635 OFFCURVE",
"181 598 CURVE",
"204 598 OFFCURVE",
"208 588 OFFCURVE",
"208 579 CURVE SMOOTH",
"208 574 OFFCURVE",
"206 565 OFFCURVE",
"205 561 CURVE SMOOTH",
"202 550 OFFCURVE",
"196 540 OFFCURVE",
"176 540 CURVE SMOOTH"
);
}
);
width = 240;
}
);
leftKerningGroup = quoteleft;
rightKerningGroup = quoteleft;
unicode = 2018;
},
{
glyphname = quoteright;
layers = (
{
layerId = "0D764256-9FC1-4D23-B14D-BAC78E5C0998";
name = "Light Italic";
paths = (
{
closed = 1;
nodes = (
"242 750 OFFCURVE",
"248 740 OFFCURVE",
"248 731 CURVE SMOOTH",
"248 726 OFFCURVE",
"246 716 OFFCURVE",
"245 712 CURVE SMOOTH",
"238 685 OFFCURVE",
"225 654 OFFCURVE",
"206 626 CURVE SMOOTH",
"186 597 OFFCURVE",
"163 570 OFFCURVE",
"138 550 CURVE",
"117 550 LINE",
"177 601 OFFCURVE",
"207 655 OFFCURVE",
"218 692 CURVE",
"195 692 OFFCURVE",
"191 702 OFFCURVE",
"191 711 CURVE SMOOTH",
"191 716 OFFCURVE",
"193 725 OFFCURVE",
"194 729 CURVE SMOOTH",
"197 740 OFFCURVE",
"203 750 OFFCURVE",
"223 750 CURVE SMOOTH"
);
}
);
width = 240;
}
);
leftKerningGroup = quoteright;
rightKerningGroup = quoteright;
unicode = 2019;
},
{
glyphname = quotedblleft;
layers = (
{
layerId = "0D764256-9FC1-4D23-B14D-BAC78E5C0998";
name = "Light Italic";
paths = (
{
closed = 1;
nodes = (
"157 540 OFFCURVE",
"151 550 OFFCURVE",
"151 559 CURVE SMOOTH",
"151 564 OFFCURVE",
"153 574 OFFCURVE",
"154 578 CURVE SMOOTH",
"161 605 OFFCURVE",
"174 636 OFFCURVE",
"194 665 CURVE SMOOTH",
"213 693 OFFCURVE",
"236 720 OFFCURVE",
"261 740 CURVE",
"282 740 LINE",
"222 689 OFFCURVE",
"192 635 OFFCURVE",
"181 598 CURVE",
"204 598 OFFCURVE",
"208 588 OFFCURVE",
"208 579 CURVE SMOOTH",
"208 574 OFFCURVE",
"206 565 OFFCURVE",
"205 561 CURVE SMOOTH",
"202 550 OFFCURVE",
"196 540 OFFCURVE",
"176 540 CURVE SMOOTH"
);
},
{
closed = 1;
nodes = (
"317 540 OFFCURVE",
"311 550 OFFCURVE",
"311 559 CURVE SMOOTH",
"311 564 OFFCURVE",
"313 574 OFFCURVE",
"314 578 CURVE SMOOTH",
"321 605 OFFCURVE",
"334 636 OFFCURVE",
"354 665 CURVE SMOOTH",
"373 693 OFFCURVE",
"396 720 OFFCURVE",
"421 740 CURVE",
"442 740 LINE",
"382 689 OFFCURVE",
"352 635 OFFCURVE",
"341 598 CURVE",
"364 598 OFFCURVE",
"368 588 OFFCURVE",
"368 579 CURVE SMOOTH",
"368 574 OFFCURVE",
"366 565 OFFCURVE",
"365 561 CURVE SMOOTH",
"362 550 OFFCURVE",
"356 540 OFFCURVE",
"336 540 CURVE SMOOTH"
);
}
);
width = 400;
}
);
leftKerningGroup = quoteleft;
rightKerningGroup = quoteleft;
unicode = 201C;
},
{
glyphname = quotedblright;
layers = (
{
layerId = "0D764256-9FC1-4D23-B14D-BAC78E5C0998";
name = "Light Italic";
paths = (
{
closed = 1;
nodes = (
"242 750 OFFCURVE",
"248 740 OFFCURVE",
"248 731 CURVE SMOOTH",
"248 726 OFFCURVE",
"246 716 OFFCURVE",
"245 712 CURVE SMOOTH",
"238 685 OFFCURVE",
"225 654 OFFCURVE",
"206 626 CURVE SMOOTH",
"186 597 OFFCURVE",
"163 570 OFFCURVE",
"138 550 CURVE",
"117 550 LINE",
"177 601 OFFCURVE",
"207 655 OFFCURVE",
"218 692 CURVE",
"195 692 OFFCURVE",
"191 702 OFFCURVE",
"191 711 CURVE SMOOTH",
"191 716 OFFCURVE",
"193 725 OFFCURVE",
"194 729 CURVE SMOOTH",
"197 740 OFFCURVE",
"203 750 OFFCURVE",
"223 750 CURVE SMOOTH"
);
},
{
closed = 1;
nodes = (
"402 750 OFFCURVE",
"408 740 OFFCURVE",
"408 731 CURVE SMOOTH",
"408 726 OFFCURVE",
"406 716 OFFCURVE",
"405 712 CURVE SMOOTH",
"398 685 OFFCURVE",
"385 654 OFFCURVE",
"366 626 CURVE SMOOTH",
"346 597 OFFCURVE",
"323 570 OFFCURVE",
"298 550 CURVE",
"277 550 LINE",
"337 601 OFFCURVE",
"367 655 OFFCURVE",
"378 692 CURVE",
"355 692 OFFCURVE",
"351 702 OFFCURVE",
"351 711 CURVE SMOOTH",
"351 716 OFFCURVE",
"353 725 OFFCURVE",
"354 729 CURVE SMOOTH",
"357 740 OFFCURVE",
"363 750 OFFCURVE",
"383 750 CURVE SMOOTH"
);
}
);
width = 400;
}
);
leftKerningGroup = quoteright;
rightKerningGroup = quoteright;
unicode = 201D;
},
{
glyphname = quotesinglbase;
layers = (
{
layerId = "0D764256-9FC1-4D23-B14D-BAC78E5C0998";
name = "Light Italic";
paths = (
{
closed = 1;
nodes = (
"99 66 OFFCURVE",
"105 56 OFFCURVE",
"105 47 CURVE SMOOTH",
"105 42 OFFCURVE",
"103 32 OFFCURVE",
"102 28 CURVE SMOOTH",
"95 1 OFFCURVE",
"82 -30 OFFCURVE",
"63 -58 CURVE SMOOTH",
"43 -87 OFFCURVE",
"20 -114 OFFCURVE",
"-5 -134 CURVE",
"-26 -134 LINE",
"34 -83 OFFCURVE",
"64 -29 OFFCURVE",
"75 8 CURVE",
"52 8 OFFCURVE",
"48 18 OFFCURVE",
"48 27 CURVE SMOOTH",
"48 32 OFFCURVE",
"50 41 OFFCURVE",
"51 45 CURVE SMOOTH",
"54 56 OFFCURVE",
"60 66 OFFCURVE",
"80 66 CURVE SMOOTH"
);
}
);
width = 240;
}
);
leftKerningGroup = period;
rightKerningGroup = period;
unicode = 201A;
},
{
glyphname = quotedblbase;
layers = (
{
layerId = "0D764256-9FC1-4D23-B14D-BAC78E5C0998";
name = "Light Italic";
paths = (
{
closed = 1;
nodes = (
"99 66 OFFCURVE",
"105 56 OFFCURVE",
"105 47 CURVE SMOOTH",
"105 42 OFFCURVE",
"103 32 OFFCURVE",
"102 28 CURVE SMOOTH",
"95 1 OFFCURVE",
"82 -30 OFFCURVE",
"63 -58 CURVE SMOOTH",
"43 -87 OFFCURVE",
"20 -114 OFFCURVE",
"-5 -134 CURVE",
"-26 -134 LINE",
"34 -83 OFFCURVE",
"64 -29 OFFCURVE",
"75 8 CURVE",
"52 8 OFFCURVE",
"48 18 OFFCURVE",
"48 27 CURVE SMOOTH",
"48 32 OFFCURVE",
"50 41 OFFCURVE",
"51 45 CURVE SMOOTH",
"54 56 OFFCURVE",
"60 66 OFFCURVE",
"80 66 CURVE SMOOTH"
);
},
{
closed = 1;
nodes = (
"259 66 OFFCURVE",
"265 56 OFFCURVE",
"265 47 CURVE SMOOTH",
"265 42 OFFCURVE",
"263 32 OFFCURVE",
"262 28 CURVE SMOOTH",
"255 1 OFFCURVE",
"242 -30 OFFCURVE",
"223 -58 CURVE SMOOTH",
"203 -87 OFFCURVE",
"180 -114 OFFCURVE",
"155 -134 CURVE",
"134 -134 LINE",
"194 -83 OFFCURVE",
"224 -29 OFFCURVE",
"235 8 CURVE",
"212 8 OFFCURVE",
"208 18 OFFCURVE",
"208 27 CURVE SMOOTH",
"208 32 OFFCURVE",
"210 41 OFFCURVE",
"211 45 CURVE SMOOTH",
"214 56 OFFCURVE",
"220 66 OFFCURVE",
"240 66 CURVE SMOOTH"
);
}
);
width = 400;
}
);
leftKerningGroup = period;
rightKerningGroup = period;
unicode = 201E;
},
{
glyphname = guilsinglleft;
layers = (
{
layerId = "0D764256-9FC1-4D23-B14D-BAC78E5C0998";
name = "Light Italic";
paths = (
{
closed = 1;
nodes = (
"204 106 LINE",
"42 284 LINE",
"46 304 LINE",
"280 482 LINE",
"286 465 LINE",
"67 291 LINE",
"216 118 LINE"
);
}
);
width = 286;
}
);
leftKerningGroup = guilsinglleft;
rightKerningGroup = guilsinglleft;
unicode = 2039;
},
{
glyphname = guilsinglright;
layers = (
{
layerId = "0D764256-9FC1-4D23-B14D-BAC78E5C0998";
name = "Light Italic";
paths = (
{
closed = 1;
nodes = (
"15 123 LINE",
"234 297 LINE",
"85 470 LINE",
"97 482 LINE",
"259 304 LINE",
"255 284 LINE",
"21 106 LINE"
);
}
);
width = 286;
}
);
leftKerningGroup = guilsinglright;
rightKerningGroup = guilsinglright;
unicode = 203A;
},
{
glyphname = guillemotleft;
layers = (
{
layerId = "0D764256-9FC1-4D23-B14D-BAC78E5C0998";
name = "Light Italic";
paths = (
{
closed = 1;
nodes = (
"204 106 LINE",
"42 284 LINE",
"46 304 LINE",
"280 482 LINE",
"286 465 LINE",
"67 291 LINE",
"216 118 LINE"
);
},
{
closed = 1;
nodes = (
"381 106 LINE",
"219 284 LINE",
"223 304 LINE",
"457 482 LINE",
"463 465 LINE",
"244 291 LINE",
"393 118 LINE"
);
}
);
width = 463;
}
);
leftKerningGroup = guilsinglleft;
rightKerningGroup = guilsinglleft;
unicode = 00AB;
},
{
glyphname = guillemotright;
layers = (
{
layerId = "0D764256-9FC1-4D23-B14D-BAC78E5C0998";
name = "Light Italic";
paths = (
{
closed = 1;
nodes = (
"192 123 LINE",
"411 297 LINE",
"262 470 LINE",
"274 482 LINE",
"436 304 LINE",
"432 284 LINE",
"198 106 LINE"
);
},
{
closed = 1;
nodes = (
"15 123 LINE",
"234 297 LINE",
"85 470 LINE",
"97 482 LINE",
"259 304 LINE",
"255 284 LINE",
"21 106 LINE"
);
}
);
width = 463;
}
);
leftKerningGroup = guilsinglright;
rightKerningGroup = guilsinglright;
unicode = 00BB;
},
{
glyphname = exclamdown;
layers = (
{
layerId = "0D764256-9FC1-4D23-B14D-BAC78E5C0998";
name = "Light Italic";
paths = (
{
closed = 1;
nodes = (
"24 -192 LINE",
"80 91 LINE",
"133 330 LINE",
"145 330 LINE",
"102 91 LINE",
"46 -192 LINE"
);
},
{
closed = 1;
nodes = (
"147 453 OFFCURVE",
"141 463 OFFCURVE",
"141 472 CURVE SMOOTH",
"141 477 OFFCURVE",
"143 486 OFFCURVE",
"144 490 CURVE SMOOTH",
"147 501 OFFCURVE",
"152 511 OFFCURVE",
"172 511 CURVE SMOOTH",
"192 511 OFFCURVE",
"198 501 OFFCURVE",
"198 492 CURVE SMOOTH",
"198 487 OFFCURVE",
"196 478 OFFCURVE",
"195 474 CURVE SMOOTH",
"192 463 OFFCURVE",
"186 453 OFFCURVE",
"166 453 CURVE SMOOTH"
);
}
);
width = 247;
}
);
leftKerningGroup = exclamdown;
rightKerningGroup = exclamdown;
unicode = 00A1;
},
{
glyphname = exclam;
layers = (
{
layerId = "0D764256-9FC1-4D23-B14D-BAC78E5C0998";
name = "Light Italic";
paths = (
{
closed = 1;
nodes = (
"102 176 LINE",
"145 415 LINE",
"201 698 LINE",
"223 698 LINE",
"167 415 LINE",
"114 176 LINE"
);
},
{
closed = 1;
nodes = (
"55 -5 OFFCURVE",
"49 5 OFFCURVE",
"49 14 CURVE SMOOTH",
"49 19 OFFCURVE",
"51 28 OFFCURVE",
"52 32 CURVE SMOOTH",
"55 43 OFFCURVE",
"61 53 OFFCURVE",
"81 53 CURVE SMOOTH",
"100 53 OFFCURVE",
"106 43 OFFCURVE",
"106 34 CURVE SMOOTH",
"106 29 OFFCURVE",
"104 20 OFFCURVE",
"103 16 CURVE SMOOTH",
"100 5 OFFCURVE",
"95 -5 OFFCURVE",
"75 -5 CURVE SMOOTH"
);
}
);
width = 247;
}
);
leftKerningGroup = exclam;
unicode = 0021;
},
{
glyphname = questiondown;
layers = (
{
layerId = "0D764256-9FC1-4D23-B14D-BAC78E5C0998";
name = "Light Italic";
paths = (
{
closed = 1;
nodes = (
"56 -204 OFFCURVE",
"-9 -143 OFFCURVE",
"-9 -48 CURVE SMOOTH",
"-9 77 OFFCURVE",
"65 160 OFFCURVE",
"229 175 CURVE",
"259 330 LINE",
"281 330 LINE",
"248 157 LINE",
"103 146 OFFCURVE",
"33 95 OFFCURVE",
"18 -2 CURVE",
"15 -17 OFFCURVE",
"13 -39 OFFCURVE",
"13 -48 CURVE SMOOTH",
"13 -133 OFFCURVE",
"65 -185 OFFCURVE",
"161 -185 CURVE SMOOTH",
"261 -185 OFFCURVE",
"314 -133 OFFCURVE",
"350 -48 CURVE",
"369 -54 LINE",
"333 -146 OFFCURVE",
"268 -204 OFFCURVE",
"160 -204 CURVE SMOOTH"
);
},
{
closed = 1;
nodes = (
"278 453 OFFCURVE",
"272 463 OFFCURVE",
"272 472 CURVE SMOOTH",
"272 477 OFFCURVE",
"274 486 OFFCURVE",
"275 490 CURVE SMOOTH",
"278 501 OFFCURVE",
"283 511 OFFCURVE",
"303 511 CURVE SMOOTH",
"323 511 OFFCURVE",
"329 501 OFFCURVE",
"329 492 CURVE SMOOTH",
"329 487 OFFCURVE",
"327 478 OFFCURVE",
"326 474 CURVE SMOOTH",
"323 463 OFFCURVE",
"317 453 OFFCURVE",
"297 453 CURVE SMOOTH"
);
}
);
width = 453;
}
);
leftKerningGroup = questiondown;
rightKerningGroup = questiondown;
unicode = 00BF;
},
{
glyphname = question;
layers = (
{
layerId = "0D764256-9FC1-4D23-B14D-BAC78E5C0998";
name = "Light Italic";
paths = (
{
closed = 1;
nodes = (
"179 176 LINE",
"212 349 LINE",
"357 360 OFFCURVE",
"427 411 OFFCURVE",
"442 508 CURVE",
"445 523 OFFCURVE",
"447 545 OFFCURVE",
"447 554 CURVE SMOOTH",
"447 639 OFFCURVE",
"395 691 OFFCURVE",
"299 691 CURVE SMOOTH",
"199 691 OFFCURVE",
"146 639 OFFCURVE",
"110 554 CURVE",
"91 560 LINE",
"127 652 OFFCURVE",
"192 710 OFFCURVE",
"300 710 CURVE SMOOTH",
"404 710 OFFCURVE",
"469 649 OFFCURVE",
"469 554 CURVE SMOOTH",
"469 427 OFFCURVE",
"395 346 OFFCURVE",
"231 331 CURVE",
"201 176 LINE"
);
},
{
closed = 1;
nodes = (
"137 -5 OFFCURVE",
"131 5 OFFCURVE",
"131 14 CURVE SMOOTH",
"131 19 OFFCURVE",
"133 28 OFFCURVE",
"134 32 CURVE SMOOTH",
"137 43 OFFCURVE",
"143 53 OFFCURVE",
"163 53 CURVE SMOOTH",
"182 53 OFFCURVE",
"188 43 OFFCURVE",
"188 34 CURVE SMOOTH",
"188 29 OFFCURVE",
"186 20 OFFCURVE",
"185 16 CURVE SMOOTH",
"182 5 OFFCURVE",
"177 -5 OFFCURVE",
"157 -5 CURVE SMOOTH"
);
}
);
width = 453;
}
);
leftKerningGroup = question;
rightKerningGroup = question;
unicode = 003F;
},
{
glyphname = parenleft;
layers = (
{
layerId = "0D764256-9FC1-4D23-B14D-BAC78E5C0998";
name = "Light Italic";
paths = (
{
closed = 1;
nodes = (
"108 343 OFFCURVE",
"138 449 OFFCURVE",
"186 541 CURVE SMOOTH",
"234 633 OFFCURVE",
"300 709 OFFCURVE",
"372 760 CURVE",
"398 760 LINE",
"335 716 OFFCURVE",
"278 658 OFFCURVE",
"234 588 CURVE SMOOTH",
"189 518 OFFCURVE",
"155 437 OFFCURVE",
"140 353 CURVE SMOOTH",
"134 319 LINE SMOOTH",
"129 288 OFFCURVE",
"127 261 OFFCURVE",
"127 232 CURVE SMOOTH",
"127 83 OFFCURVE",
"163 -38 OFFCURVE",
"247 -138 CURVE",
"226 -138 LINE",
"154 -51 OFFCURVE",
"108 75 OFFCURVE",
"108 232 CURVE SMOOTH"
);
}
);
width = 330;
}
);
rightKerningGroup = parenleft;
unicode = 0028;
},
{
glyphname = parenright;
layers = (
{
layerId = "0D764256-9FC1-4D23-B14D-BAC78E5C0998";
name = "Light Italic";
paths = (
{
closed = 1;
nodes = (
"241 279 OFFCURVE",
"211 173 OFFCURVE",
"163 81 CURVE SMOOTH",
"115 -11 OFFCURVE",
"49 -87 OFFCURVE",
"-23 -138 CURVE",
"-49 -138 LINE",
"14 -94 OFFCURVE",
"71 -35 OFFCURVE",
"116 35 CURVE SMOOTH",
"160 105 OFFCURVE",
"194 185 OFFCURVE",
"209 269 CURVE SMOOTH",
"215 303 LINE SMOOTH",
"220 334 OFFCURVE",
"222 361 OFFCURVE",
"222 390 CURVE SMOOTH",
"222 539 OFFCURVE",
"186 660 OFFCURVE",
"102 760 CURVE",
"123 760 LINE",
"195 673 OFFCURVE",
"241 547 OFFCURVE",
"241 390 CURVE SMOOTH"
);
}
);
width = 330;
}
);
leftKerningGroup = parenright;
unicode = 0029;
},
{
glyphname = bracketleft;
layers = (
{
layerId = "0D764256-9FC1-4D23-B14D-BAC78E5C0998";
name = "Light Italic";
paths = (
{
closed = 1;
nodes = (
"32 -138 LINE",
"212 760 LINE",
"336 760 LINE",
"332 742 LINE",
"228 742 LINE",
"56 -120 LINE",
"160 -120 LINE",
"156 -138 LINE"
);
}
);
width = 302;
}
);
rightKerningGroup = bracketleft;
unicode = 005B;
},
{
glyphname = bracketright;
layers = (
{
layerId = "0D764256-9FC1-4D23-B14D-BAC78E5C0998";
name = "Light Italic";
paths = (
{
closed = 1;
nodes = (
"293 760 LINE",
"113 -138 LINE",
"-11 -138 LINE",
"-7 -120 LINE",
"97 -120 LINE",
"269 742 LINE",
"165 742 LINE",
"169 760 LINE"
);
}
);
width = 302;
}
);
leftKerningGroup = bracketright;
unicode = 005D;
},
{
glyphname = braceleft;
layers = (
{
layerId = "0D764256-9FC1-4D23-B14D-BAC78E5C0998";
name = "Light Italic";
paths = (
{
closed = 1;
nodes = (
"71 -138 LINE SMOOTH",
"57 -138 OFFCURVE",
"50 -132 OFFCURVE",
"50 -120 CURVE SMOOTH",
"50 -118 OFFCURVE",
"51 -110 OFFCURVE",
"54 -97 CURVE SMOOTH",
"114 201 LINE SMOOTH",
"116 211 OFFCURVE",
"117 220 OFFCURVE",
"117 228 CURVE SMOOTH",
"117 273 OFFCURVE",
"85 287 OFFCURVE",
"34 287 CURVE",
"44 335 LINE",
"109 335 OFFCURVE",
"147 364 OFFCURVE",
"158 421 CURVE SMOOTH",
"221 734 LINE SMOOTH",
"224 751 OFFCURVE",
"234 760 OFFCURVE",
"251 760 CURVE SMOOTH",
"351 760 LINE",
"347 742 LINE",
"242 742 LINE",
"178 421 LINE SMOOTH",
"165 354 OFFCURVE",
"119 319 OFFCURVE",
"59 319 CURVE",
"55 303 LINE",
"106 303 OFFCURVE",
"137 279 OFFCURVE",
"137 230 CURVE SMOOTH",
"137 221 OFFCURVE",
"136 212 OFFCURVE",
"134 201 CURVE SMOOTH",
"70 -120 LINE",
"175 -120 LINE",
"171 -138 LINE"
);
}
);
width = 316;
}
);
rightKerningGroup = bracketleft;
unicode = 007B;
},
{
glyphname = braceright;
layers = (
{
layerId = "0D764256-9FC1-4D23-B14D-BAC78E5C0998";
name = "Light Italic";
paths = (
{
closed = 1;
nodes = (
"-8 -120 LINE",
"97 -120 LINE",
"161 201 LINE SMOOTH",
"174 268 OFFCURVE",
"220 303 OFFCURVE",
"280 303 CURVE",
"284 319 LINE",
"233 319 OFFCURVE",
"202 343 OFFCURVE",
"202 392 CURVE SMOOTH",
"202 400 OFFCURVE",
"203 410 OFFCURVE",
"205 421 CURVE SMOOTH",
"269 742 LINE",
"164 742 LINE",
"168 760 LINE",
"268 760 LINE SMOOTH",
"282 760 OFFCURVE",
"289 754 OFFCURVE",
"289 742 CURVE SMOOTH",
"289 740 OFFCURVE",
"288 732 OFFCURVE",
"285 719 CURVE SMOOTH",
"225 421 LINE SMOOTH",
"223 411 OFFCURVE",
"222 402 OFFCURVE",
"222 394 CURVE SMOOTH",
"222 349 OFFCURVE",
"254 335 OFFCURVE",
"305 335 CURVE",
"295 287 LINE",
"230 287 OFFCURVE",
"192 258 OFFCURVE",
"181 201 CURVE SMOOTH",
"118 -112 LINE SMOOTH",
"115 -129 OFFCURVE",
"105 -138 OFFCURVE",
"88 -138 CURVE SMOOTH",
"-12 -138 LINE"
);
}
);
width = 316;
}
);
leftKerningGroup = bracketright;
unicode = 007D;
},
{
glyphname = slash;
layers = (
{
layerId = "0D764256-9FC1-4D23-B14D-BAC78E5C0998";
name = "Light Italic";
paths = (
{
closed = 1;
nodes = (
"-77 -151 LINE",
"349 740 LINE",
"369 740 LINE",
"-57 -151 LINE"
);
}
);
width = 301;
}
);
leftKerningGroup = slash;
rightKerningGroup = slash;
unicode = 002F;
},
{
glyphname = backslash;
layers = (
{
layerId = "0D764256-9FC1-4D23-B14D-BAC78E5C0998";
name = "Light Italic";
paths = (
{
closed = 1;
nodes = (
"198 -151 LINE",
"126 740 LINE",
"145 740 LINE",
"217 -151 LINE"
);
}
);
width = 301;
}
);
unicode = 005C;
},
{
glyphname = fraction;
layers = (
{
layerId = "0D764256-9FC1-4D23-B14D-BAC78E5C0998";
name = "Light Italic";
paths = (
{
closed = 1;
nodes = (
"-218 0 LINE",
"387 698 LINE",
"410 698 LINE",
"-196 0 LINE"
);
}
);
width = 149;
}
);
unicode = 2044;
},
{
glyphname = percent;
layers = (
{
layerId = "0D764256-9FC1-4D23-B14D-BAC78E5C0998";
name = "Light Italic";
paths = (
{
closed = 1;
nodes = (
"147 0 LINE",
"752 698 LINE",
"776 698 LINE",
"171 0 LINE"
);
},
{
closed = 1;
nodes = (
"203 327 OFFCURVE",
"174 341 OFFCURVE",
"154 365 CURVE SMOOTH",
"134 389 OFFCURVE",
"124 422 OFFCURVE",
"124 459 CURVE SMOOTH",
"124 511 OFFCURVE",
"134 574 OFFCURVE",
"162 624 CURVE SMOOTH",
"189 674 OFFCURVE",
"234 710 OFFCURVE",
"302 710 CURVE SMOOTH",
"339 710 OFFCURVE",
"368 696 OFFCURVE",
"388 672 CURVE SMOOTH",
"408 648 OFFCURVE",
"418 615 OFFCURVE",
"418 578 CURVE SMOOTH",
"418 526 OFFCURVE",
"408 464 OFFCURVE",
"381 414 CURVE SMOOTH",
"353 364 OFFCURVE",
"308 327 OFFCURVE",
"240 327 CURVE SMOOTH"
);
},
{
closed = 1;
nodes = (
"318 344 OFFCURVE",
"368 399 OFFCURVE",
"388 495 CURVE SMOOTH",
"395 528 LINE SMOOTH",
"398 544 OFFCURVE",
"399 561 OFFCURVE",
"399 577 CURVE SMOOTH",
"399 609 OFFCURVE",
"391 638 OFFCURVE",
"375 659 CURVE SMOOTH",
"359 679 OFFCURVE",
"334 693 OFFCURVE",
"301 693 CURVE SMOOTH",
"224 693 OFFCURVE",
"174 638 OFFCURVE",
"154 542 CURVE SMOOTH",
"147 509 LINE SMOOTH",
"144 493 OFFCURVE",
"143 476 OFFCURVE",
"143 460 CURVE SMOOTH",
"143 428 OFFCURVE",
"150 399 OFFCURVE",
"166 379 CURVE SMOOTH",
"182 358 OFFCURVE",
"206 344 OFFCURVE",
"241 344 CURVE SMOOTH"
);
},
{
closed = 1;
nodes = (
"582 -12 OFFCURVE",
"553 2 OFFCURVE",
"533 26 CURVE SMOOTH",
"513 50 OFFCURVE",
"503 83 OFFCURVE",
"503 120 CURVE SMOOTH",
"503 172 OFFCURVE",
"513 235 OFFCURVE",
"541 285 CURVE SMOOTH",
"568 335 OFFCURVE",
"613 371 OFFCURVE",
"681 371 CURVE SMOOTH",
"718 371 OFFCURVE",
"747 357 OFFCURVE",
"767 333 CURVE SMOOTH",
"787 309 OFFCURVE",
"797 276 OFFCURVE",
"797 239 CURVE SMOOTH",
"797 187 OFFCURVE",
"787 125 OFFCURVE",
"760 75 CURVE SMOOTH",
"732 25 OFFCURVE",
"687 -12 OFFCURVE",
"619 -12 CURVE SMOOTH"
);
},
{
closed = 1;
nodes = (
"697 5 OFFCURVE",
"747 60 OFFCURVE",
"767 156 CURVE SMOOTH",
"774 189 LINE SMOOTH",
"777 205 OFFCURVE",
"778 222 OFFCURVE",
"778 238 CURVE SMOOTH",
"778 270 OFFCURVE",
"770 299 OFFCURVE",
"754 320 CURVE SMOOTH",
"738 340 OFFCURVE",
"713 354 OFFCURVE",
"680 354 CURVE SMOOTH",
"603 354 OFFCURVE",
"553 299 OFFCURVE",
"533 203 CURVE SMOOTH",
"526 170 LINE SMOOTH",
"523 154 OFFCURVE",
"522 137 OFFCURVE",
"522 121 CURVE SMOOTH",
"522 89 OFFCURVE",
"529 60 OFFCURVE",
"545 40 CURVE SMOOTH",
"561 19 OFFCURVE",
"585 5 OFFCURVE",
"620 5 CURVE SMOOTH"
);
}
);
width = 883;
}
);
rightKerningGroup = percent;
unicode = 0025;
},
{
glyphname = perthousand;
layers = (
{
layerId = "0D764256-9FC1-4D23-B14D-BAC78E5C0998";
name = "Light Italic";
paths = (
{
closed = 1;
nodes = (
"147 0 LINE",
"752 698 LINE",
"776 698 LINE",
"171 0 LINE"
);
},
{
closed = 1;
nodes = (
"203 327 OFFCURVE",
"174 341 OFFCURVE",
"154 365 CURVE SMOOTH",
"134 389 OFFCURVE",
"124 422 OFFCURVE",
"124 459 CURVE SMOOTH",
"124 511 OFFCURVE",
"134 574 OFFCURVE",
"162 624 CURVE SMOOTH",
"189 674 OFFCURVE",
"234 710 OFFCURVE",
"302 710 CURVE SMOOTH",
"339 710 OFFCURVE",
"368 696 OFFCURVE",
"388 672 CURVE SMOOTH",
"408 648 OFFCURVE",
"418 615 OFFCURVE",
"418 578 CURVE SMOOTH",
"418 526 OFFCURVE",
"408 464 OFFCURVE",
"381 414 CURVE SMOOTH",
"353 364 OFFCURVE",
"308 327 OFFCURVE",
"240 327 CURVE SMOOTH"
);
},
{
closed = 1;
nodes = (
"318 344 OFFCURVE",
"368 399 OFFCURVE",
"388 495 CURVE SMOOTH",
"395 528 LINE SMOOTH",
"398 544 OFFCURVE",
"399 561 OFFCURVE",
"399 577 CURVE SMOOTH",
"399 609 OFFCURVE",
"391 638 OFFCURVE",
"375 659 CURVE SMOOTH",
"359 679 OFFCURVE",
"334 693 OFFCURVE",
"301 693 CURVE SMOOTH",
"224 693 OFFCURVE",
"174 638 OFFCURVE",
"154 542 CURVE SMOOTH",
"147 509 LINE SMOOTH",
"144 493 OFFCURVE",
"143 476 OFFCURVE",
"143 460 CURVE SMOOTH",
"143 428 OFFCURVE",
"150 399 OFFCURVE",
"166 379 CURVE SMOOTH",
"182 358 OFFCURVE",
"206 344 OFFCURVE",
"241 344 CURVE SMOOTH"
);
},
{
closed = 1;
nodes = (
"582 -12 OFFCURVE",
"553 2 OFFCURVE",
"533 26 CURVE SMOOTH",
"513 50 OFFCURVE",
"503 83 OFFCURVE",
"503 120 CURVE SMOOTH",
"503 172 OFFCURVE",
"513 235 OFFCURVE",
"541 285 CURVE SMOOTH",
"568 335 OFFCURVE",
"613 371 OFFCURVE",
"681 371 CURVE SMOOTH",
"718 371 OFFCURVE",
"747 357 OFFCURVE",
"767 333 CURVE SMOOTH",
"787 309 OFFCURVE",
"797 276 OFFCURVE",
"797 239 CURVE SMOOTH",
"797 187 OFFCURVE",
"787 125 OFFCURVE",
"760 75 CURVE SMOOTH",
"732 25 OFFCURVE",
"687 -12 OFFCURVE",
"619 -12 CURVE SMOOTH"
);
},
{
closed = 1;
nodes = (
"697 5 OFFCURVE",
"747 60 OFFCURVE",
"767 156 CURVE SMOOTH",
"774 189 LINE SMOOTH",
"777 205 OFFCURVE",
"778 222 OFFCURVE",
"778 238 CURVE SMOOTH",
"778 270 OFFCURVE",
"770 299 OFFCURVE",
"754 320 CURVE SMOOTH",
"738 340 OFFCURVE",
"713 354 OFFCURVE",
"680 354 CURVE SMOOTH",
"603 354 OFFCURVE",
"553 299 OFFCURVE",
"533 203 CURVE SMOOTH",
"526 170 LINE SMOOTH",
"523 154 OFFCURVE",
"522 137 OFFCURVE",
"522 121 CURVE SMOOTH",
"522 89 OFFCURVE",
"529 60 OFFCURVE",
"545 40 CURVE SMOOTH",
"561 19 OFFCURVE",
"585 5 OFFCURVE",
"620 5 CURVE SMOOTH"
);
},
{
closed = 1;
nodes = (
"932 -12 OFFCURVE",
"903 2 OFFCURVE",
"883 26 CURVE SMOOTH",
"863 50 OFFCURVE",
"853 83 OFFCURVE",
"853 120 CURVE SMOOTH",
"853 172 OFFCURVE",
"863 235 OFFCURVE",
"891 285 CURVE SMOOTH",
"918 335 OFFCURVE",
"963 371 OFFCURVE",
"1031 371 CURVE SMOOTH",
"1068 371 OFFCURVE",
"1097 357 OFFCURVE",
"1117 333 CURVE SMOOTH",
"1137 309 OFFCURVE",
"1147 276 OFFCURVE",
"1147 239 CURVE SMOOTH",
"1147 187 OFFCURVE",
"1137 125 OFFCURVE",
"1110 75 CURVE SMOOTH",
"1082 25 OFFCURVE",
"1037 -12 OFFCURVE",
"969 -12 CURVE SMOOTH"
);
},
{
closed = 1;
nodes = (
"1047 5 OFFCURVE",
"1097 60 OFFCURVE",
"1117 156 CURVE SMOOTH",
"1124 189 LINE SMOOTH",
"1127 205 OFFCURVE",
"1128 222 OFFCURVE",
"1128 238 CURVE SMOOTH",
"1128 270 OFFCURVE",
"1120 299 OFFCURVE",
"1104 320 CURVE SMOOTH",
"1088 340 OFFCURVE",
"1063 354 OFFCURVE",
"1030 354 CURVE SMOOTH",
"953 354 OFFCURVE",
"903 299 OFFCURVE",
"883 203 CURVE SMOOTH",
"876 170 LINE SMOOTH",
"873 154 OFFCURVE",
"872 137 OFFCURVE",
"872 121 CURVE SMOOTH",
"872 89 OFFCURVE",
"879 60 OFFCURVE",
"895 40 CURVE SMOOTH",
"911 19 OFFCURVE",
"935 5 OFFCURVE",
"970 5 CURVE SMOOTH"
);
}
);
width = 1233;
}
);
rightKerningGroup = perthousand;
unicode = 2030;
},
{
glyphname = bar;
layers = (
{
layerId = "0D764256-9FC1-4D23-B14D-BAC78E5C0998";
name = "Light Italic";
paths = (
{
closed = 1;
nodes = (
"27 -138 LINE",
"207 760 LINE",
"227 760 LINE",
"47 -138 LINE"
);
}
);
width = 231;
}
);
unicode = 007C;
},
{
glyphname = brokenbar;
layers = (
{
layerId = "0D764256-9FC1-4D23-B14D-BAC78E5C0998";
name = "Light Italic";
paths = (
{
closed = 1;
nodes = (
"135 401 LINE",
"207 760 LINE",
"227 760 LINE",
"155 401 LINE"
);
},
{
closed = 1;
nodes = (
"27 -138 LINE",
"99 221 LINE",
"119 221 LINE",
"47 -138 LINE"
);
}
);
width = 231;
}
);
unicode = 00A6;
},
{
glyphname = section;
layers = (
{
layerId = "0D764256-9FC1-4D23-B14D-BAC78E5C0998";
name = "Light Italic";
paths = (
{
closed = 1;
nodes = (
"390 -48 OFFCURVE",
"370 -87 OFFCURVE",
"337 -114 CURVE SMOOTH",
"304 -141 OFFCURVE",
"256 -154 OFFCURVE",
"200 -154 CURVE SMOOTH",
"132 -154 OFFCURVE",
"87 -133 OFFCURVE",
"54 -101 CURVE",
"68 -87 LINE",
"100 -118 OFFCURVE",
"141 -135 OFFCURVE",
"201 -135 CURVE SMOOTH",
"305 -135 OFFCURVE",
"369 -88 OFFCURVE",
"369 3 CURVE SMOOTH",
"369 71 OFFCURVE",
"334 103 OFFCURVE",
"273 123 CURVE SMOOTH",
"197 148 LINE SMOOTH",
"124 172 OFFCURVE",
"89 202 OFFCURVE",
"89 273 CURVE SMOOTH",
"89 356 OFFCURVE",
"145 404 OFFCURVE",
"237 433 CURVE",
"237 436 LINE",
"196 462 OFFCURVE",
"176 501 OFFCURVE",
"176 553 CURVE SMOOTH",
"176 604 OFFCURVE",
"196 643 OFFCURVE",
"229 670 CURVE SMOOTH",
"262 697 OFFCURVE",
"310 710 OFFCURVE",
"366 710 CURVE SMOOTH",
"434 710 OFFCURVE",
"479 689 OFFCURVE",
"512 657 CURVE",
"498 643 LINE",
"466 674 OFFCURVE",
"425 691 OFFCURVE",
"365 691 CURVE SMOOTH",
"261 691 OFFCURVE",
"197 644 OFFCURVE",
"197 553 CURVE SMOOTH",
"197 485 OFFCURVE",
"232 453 OFFCURVE",
"293 433 CURVE SMOOTH",
"369 408 LINE SMOOTH",
"442 384 OFFCURVE",
"477 354 OFFCURVE",
"477 283 CURVE SMOOTH",
"477 200 OFFCURVE",
"421 152 OFFCURVE",
"329 123 CURVE",
"329 120 LINE",
"370 94 OFFCURVE",
"390 55 OFFCURVE",
"390 3 CURVE SMOOTH"
);
},
{
closed = 1;
nodes = (
"456 342 OFFCURVE",
"432 368 OFFCURVE",
"361 391 CURVE SMOOTH",
"284 416 LINE",
"273 419 OFFCURVE",
"263 423 OFFCURVE",
"256 426 CURVE",
"167 395 OFFCURVE",
"110 352 OFFCURVE",
"110 273 CURVE SMOOTH",
"110 214 OFFCURVE",
"134 188 OFFCURVE",
"205 165 CURVE SMOOTH",
"282 140 LINE",
"293 137 OFFCURVE",
"303 133 OFFCURVE",
"310 130 CURVE",
"399 161 OFFCURVE",
"456 204 OFFCURVE",
"456 283 CURVE SMOOTH"
);
}
);
width = 564;
}
);
unicode = 00A7;
},
{
glyphname = paragraph;
layers = (
{
layerId = "0D764256-9FC1-4D23-B14D-BAC78E5C0998";
name = "Light Italic";
paths = (
{
closed = 1;
nodes = (
"265 330 LINE",
"217 330 OFFCURVE",
"177 344 OFFCURVE",
"147 371 CURVE SMOOTH",
"117 398 OFFCURVE",
"99 437 OFFCURVE",
"99 486 CURVE SMOOTH",
"99 551 OFFCURVE",
"126 604 OFFCURVE",
"170 641 CURVE SMOOTH",
"214 677 OFFCURVE",
"277 698 OFFCURVE",
"349 698 CURVE SMOOTH",
"582 698 LINE",
"578 680 LINE",
"509 680 LINE",
"343 -149 LINE",
"322 -149 LINE",
"488 680 LINE",
"356 680 LINE",
"190 -149 LINE",
"169 -149 LINE"
);
}
);
width = 590;
}
);
unicode = 00B6;
},
{
glyphname = copyright;
layers = (
{
layerId = "0D764256-9FC1-4D23-B14D-BAC78E5C0998";
name = "Light Italic";
paths = (
{
closed = 1;
nodes = (
"230 -12 OFFCURVE",
"160 16 OFFCURVE",
"110 68 CURVE SMOOTH",
"60 119 OFFCURVE",
"32 192 OFFCURVE",
"32 283 CURVE SMOOTH",
"32 411 OFFCURVE",
"74 517 OFFCURVE",
"142 592 CURVE SMOOTH",
"210 667 OFFCURVE",
"304 710 OFFCURVE",
"409 710 CURVE SMOOTH",
"496 710 OFFCURVE",
"567 682 OFFCURVE",
"617 631 CURVE SMOOTH",
"667 579 OFFCURVE",
"694 506 OFFCURVE",
"694 415 CURVE SMOOTH",
"694 287 OFFCURVE",
"652 181 OFFCURVE",
"584 106 CURVE SMOOTH",
"516 31 OFFCURVE",
"422 -12 OFFCURVE",
"317 -12 CURVE SMOOTH"
);
},
{
closed = 1;
nodes = (
"408 6 OFFCURVE",
"484 39 OFFCURVE",
"543 92 CURVE SMOOTH",
"602 144 OFFCURVE",
"642 216 OFFCURVE",
"658 295 CURVE SMOOTH",
"665 328 OFFCURVE",
"670 353 OFFCURVE",
"672 371 CURVE SMOOTH",
"674 389 OFFCURVE",
"674 402 OFFCURVE",
"674 415 CURVE SMOOTH",
"674 496 OFFCURVE",
"650 565 OFFCURVE",
"605 614 CURVE SMOOTH",
"560 663 OFFCURVE",
"494 692 OFFCURVE",
"409 692 CURVE SMOOTH",
"318 692 OFFCURVE",
"242 659 OFFCURVE",
"184 607 CURVE SMOOTH",
"126 554 OFFCURVE",
"85 482 OFFCURVE",
"68 403 CURVE SMOOTH",
"61 370 OFFCURVE",
"57 347 OFFCURVE",
"55 329 CURVE SMOOTH",
"53 311 OFFCURVE",
"52 296 OFFCURVE",
"52 283 CURVE SMOOTH",
"52 202 OFFCURVE",
"76 132 OFFCURVE",
"121 84 CURVE SMOOTH",
"165 35 OFFCURVE",
"232 6 OFFCURVE",
"317 6 CURVE SMOOTH"
);
},
{
closed = 1;
nodes = (
"262 149 OFFCURVE",
"206 201 OFFCURVE",
"206 301 CURVE SMOOTH",
"206 373 OFFCURVE",
"226 433 OFFCURVE",
"260 476 CURVE SMOOTH",
"294 519 OFFCURVE",
"341 543 OFFCURVE",
"397 543 CURVE SMOOTH",
"460 543 OFFCURVE",
"497 507 OFFCURVE",
"513 464 CURVE",
"496 458 LINE",
"480 497 OFFCURVE",
"452 526 OFFCURVE",
"396 526 CURVE SMOOTH",
"320 526 OFFCURVE",
"253 473 OFFCURVE",
"234 369 CURVE SMOOTH",
"230 347 LINE SMOOTH",
"227 328 OFFCURVE",
"226 312 OFFCURVE",
"226 301 CURVE SMOOTH",
"226 217 OFFCURVE",
"267 167 OFFCURVE",
"339 167 CURVE SMOOTH",
"390 167 OFFCURVE",
"431 194 OFFCURVE",
"456 238 CURVE",
"471 230 LINE",
"446 186 OFFCURVE",
"398 149 OFFCURVE",
"338 149 CURVE SMOOTH"
);
}
);
width = 701;
}
);
leftKerningGroup = copyright;
unicode = 00A9;
},
{
glyphname = registered;
layers = (
{
layerId = "0D764256-9FC1-4D23-B14D-BAC78E5C0998";
name = "Light Italic";
paths = (
{
closed = 1;
nodes = (
"147 298 OFFCURVE",
"79 364 OFFCURVE",
"79 464 CURVE SMOOTH",
"79 515 OFFCURVE",
"95 576 OFFCURVE",
"132 625 CURVE SMOOTH",
"169 674 OFFCURVE",
"228 710 OFFCURVE",
"313 710 CURVE SMOOTH",
"417 710 OFFCURVE",
"485 644 OFFCURVE",
"485 544 CURVE SMOOTH",
"485 493 OFFCURVE",
"469 432 OFFCURVE",
"432 383 CURVE SMOOTH",
"395 334 OFFCURVE",
"336 298 OFFCURVE",
"251 298 CURVE SMOOTH"
);
},
{
closed = 1;
nodes = (
"307 314 OFFCURVE",
"354 333 OFFCURVE",
"390 363 CURVE SMOOTH",
"425 393 OFFCURVE",
"448 435 OFFCURVE",
"459 484 CURVE",
"462 501 OFFCURVE",
"465 514 OFFCURVE",
"466 522 CURVE SMOOTH",
"467 530 OFFCURVE",
"467 537 OFFCURVE",
"467 544 CURVE SMOOTH",
"467 633 OFFCURVE",
"406 694 OFFCURVE",
"310 694 CURVE SMOOTH",
"255 694 OFFCURVE",
"210 676 OFFCURVE",
"175 646 CURVE SMOOTH",
"139 616 OFFCURVE",
"114 573 OFFCURVE",
"105 524 CURVE SMOOTH",
"102 507 OFFCURVE",
"100 494 OFFCURVE",
"99 486 CURVE SMOOTH",
"98 478 OFFCURVE",
"97 471 OFFCURVE",
"97 464 CURVE SMOOTH",
"97 375 OFFCURVE",
"158 314 OFFCURVE",
"254 314 CURVE SMOOTH"
);
},
{
closed = 1;
nodes = (
"213 397 LINE",
"197 397 LINE",
"239 609 LINE",
"318 609 LINE SMOOTH",
"351 609 OFFCURVE",
"372 593 OFFCURVE",
"372 562 CURVE SMOOTH",
"372 514 OFFCURVE",
"343 490 OFFCURVE",
"311 489 CURVE",
"347 397 LINE",
"330 397 LINE",
"295 488 LINE",
"231 488 LINE"
);
},
{
closed = 1;
nodes = (
"295 503 LINE SMOOTH",
"328 503 OFFCURVE",
"345 511 OFFCURVE",
"352 542 CURVE SMOOTH",
"354 551 OFFCURVE",
"355 557 OFFCURVE",
"355 562 CURVE SMOOTH",
"355 583 OFFCURVE",
"341 594 OFFCURVE",
"314 594 CURVE SMOOTH",
"252 594 LINE",
"234 503 LINE"
);
}
);
width = 466;
}
);
leftKerningGroup = registered;
rightKerningGroup = registered;
unicode = 00AE;
},
{
glyphname = trademark;
layers = (
{
layerId = "0D764256-9FC1-4D23-B14D-BAC78E5C0998";
name = "Light Italic";
paths = (
{
closed = 1;
nodes = (
"162 430 LINE",
"213 682 LINE",
"107 682 LINE",
"110 698 LINE",
"341 698 LINE",
"338 682 LINE",
"232 682 LINE",
"181 430 LINE"
);
},
{
closed = 1;
nodes = (
"358 430 LINE",
"412 698 LINE",
"434 698 LINE",
"488 529 LINE",
"490 529 LINE",
"613 698 LINE",
"636 698 LINE",
"582 430 LINE",
"565 430 LINE",
"613 670 LINE",
"611 670 LINE",
"483 494 LINE",
"425 670 LINE",
"423 670 LINE",
"375 430 LINE"
);
}
);
width = 638;
}
);
leftKerningGroup = trademark;
rightKerningGroup = trademark;
unicode = 2122;
},
{
glyphname = ordfeminine;
layers = (
{
layerId = "0D764256-9FC1-4D23-B14D-BAC78E5C0998";
name = "Light Italic";
paths = (
{
closed = 1;
nodes = (
"350 374 LINE",
"302 374 LINE SMOOTH",
"292 374 OFFCURVE",
"287 378 OFFCURVE",
"287 386 CURVE SMOOTH",
"287 388 OFFCURVE",
"288 392 OFFCURVE",
"289 397 CURVE SMOOTH",
"294 422 LINE",
"292 422 LINE",
"271 394 OFFCURVE",
"234 367 OFFCURVE",
"170 367 CURVE SMOOTH",
"109 367 OFFCURVE",
"76 396 OFFCURVE",
"76 443 CURVE SMOOTH",
"76 472 OFFCURVE",
"85 498 OFFCURVE",
"108 517 CURVE SMOOTH",
"131 536 OFFCURVE",
"167 548 OFFCURVE",
"222 548 CURVE SMOOTH",
"319 548 LINE",
"330 604 LINE",
"331 611 OFFCURVE",
"332 618 OFFCURVE",
"332 625 CURVE SMOOTH",
"332 673 OFFCURVE",
"302 693 OFFCURVE",
"249 693 CURVE SMOOTH",
"202 693 OFFCURVE",
"166 678 OFFCURVE",
"139 635 CURVE",
"124 643 LINE",
"151 686 OFFCURVE",
"193 710 OFFCURVE",
"250 710 CURVE SMOOTH",
"317 710 OFFCURVE",
"350 682 OFFCURVE",
"350 625 CURVE SMOOTH",
"350 620 OFFCURVE",
"349 612 OFFCURVE",
"348 605 CURVE",
"306 391 LINE",
"354 391 LINE"
);
},
{
closed = 1;
nodes = (
"220 531 LINE SMOOTH",
"179 531 OFFCURVE",
"152 524 OFFCURVE",
"133 513 CURVE",
"114 501 OFFCURVE",
"105 485 OFFCURVE",
"101 468 CURVE",
"98 457 OFFCURVE",
"97 449 OFFCURVE",
"97 443 CURVE SMOOTH",
"97 404 OFFCURVE",
"121 384 OFFCURVE",
"170 384 CURVE SMOOTH",
"201 384 OFFCURVE",
"232 391 OFFCURVE",
"256 407 CURVE SMOOTH",
"280 422 OFFCURVE",
"297 444 OFFCURVE",
"304 473 CURVE SMOOTH",
"316 531 LINE"
);
}
);
width = 354;
}
);
unicode = 00AA;
},
{
glyphname = ordmasculine;
layers = (
{
layerId = "0D764256-9FC1-4D23-B14D-BAC78E5C0998";
name = "Light Italic";
paths = (
{
closed = 1;
nodes = (
"141 367 OFFCURVE",
"96 417 OFFCURVE",
"96 494 CURVE SMOOTH",
"96 547 OFFCURVE",
"111 602 OFFCURVE",
"140 643 CURVE SMOOTH",
"169 683 OFFCURVE",
"212 710 OFFCURVE",
"267 710 CURVE SMOOTH",
"336 710 OFFCURVE",
"380 660 OFFCURVE",
"380 583 CURVE SMOOTH",
"380 530 OFFCURVE",
"365 475 OFFCURVE",
"336 435 CURVE SMOOTH",
"307 394 OFFCURVE",
"265 367 OFFCURVE",
"209 367 CURVE SMOOTH"
);
},
{
closed = 1;
nodes = (
"286 384 OFFCURVE",
"335 439 OFFCURVE",
"350 515 CURVE SMOOTH",
"357 550 LINE",
"360 561 OFFCURVE",
"361 572 OFFCURVE",
"361 583 CURVE SMOOTH",
"361 646 OFFCURVE",
"333 693 OFFCURVE",
"266 693 CURVE SMOOTH",
"190 693 OFFCURVE",
"141 638 OFFCURVE",
"126 562 CURVE SMOOTH",
"119 527 LINE",
"116 516 OFFCURVE",
"115 505 OFFCURVE",
"115 494 CURVE SMOOTH",
"115 431 OFFCURVE",
"143 384 OFFCURVE",
"210 384 CURVE SMOOTH"
);
}
);
width = 364;
}
);
unicode = 00BA;
},
{
glyphname = degree;
layers = (
{
layerId = "0D764256-9FC1-4D23-B14D-BAC78E5C0998";
name = "Light Italic";
paths = (
{
closed = 1;
nodes = (
"228 374 OFFCURVE",
"193 389 OFFCURVE",
"169 416 CURVE SMOOTH",
"144 443 OFFCURVE",
"130 480 OFFCURVE",
"130 524 CURVE SMOOTH",
"130 577 OFFCURVE",
"150 625 OFFCURVE",
"182 658 CURVE SMOOTH",
"214 690 OFFCURVE",
"258 710 OFFCURVE",
"309 710 CURVE SMOOTH",
"352 710 OFFCURVE",
"387 695 OFFCURVE",
"412 668 CURVE SMOOTH",
"436 641 OFFCURVE",
"450 604 OFFCURVE",
"450 560 CURVE SMOOTH",
"450 505 OFFCURVE",
"430 459 OFFCURVE",
"398 427 CURVE SMOOTH",
"366 394 OFFCURVE",
"320 374 OFFCURVE",
"271 374 CURVE SMOOTH"
);
},
{
closed = 1;
nodes = (
"317 393 OFFCURVE",
"356 411 OFFCURVE",
"384 440 CURVE SMOOTH",
"412 469 OFFCURVE",
"429 511 OFFCURVE",
"429 559 CURVE SMOOTH",
"429 635 OFFCURVE",
"387 691 OFFCURVE",
"307 691 CURVE SMOOTH",
"263 691 OFFCURVE",
"224 673 OFFCURVE",
"196 644 CURVE SMOOTH",
"168 615 OFFCURVE",
"151 573 OFFCURVE",
"151 525 CURVE SMOOTH",
"151 449 OFFCURVE",
"193 393 OFFCURVE",
"273 393 CURVE SMOOTH"
);
}
);
width = 466;
}
);
unicode = 00B0;
},
{
glyphname = asterisk;
layers = (
{
layerId = "0D764256-9FC1-4D23-B14D-BAC78E5C0998";
name = "Light Italic";
paths = (
{
closed = 1;
nodes = (
"126 436 LINE",
"111 447 LINE",
"230 576 LINE",
"92 621 LINE",
"100 640 LINE",
"239 591 LINE",
"268 747 LINE",
"288 747 LINE",
"257 590 LINE",
"413 640 LINE",
"418 621 LINE",
"260 574 LINE",
"328 446 LINE",
"312 436 LINE",
"244 565 LINE"
);
}
);
width = 363;
}
);
leftKerningGroup = quotesingle;
rightKerningGroup = quotesingle;
unicode = 002A;
},
{
glyphname = dagger;
layers = (
{
layerId = "0D764256-9FC1-4D23-B14D-BAC78E5C0998";
name = "Light Italic";
paths = (
{
closed = 1;
nodes = (
"179 -200 LINE",
"316 487 LINE",
"104 487 LINE",
"108 506 LINE",
"320 506 LINE",
"367 740 LINE",
"388 740 LINE",
"341 506 LINE",
"553 506 LINE",
"549 487 LINE",
"337 487 LINE",
"200 -200 LINE"
);
}
);
width = 560;
}
);
unicode = 2020;
},
{
glyphname = daggerdbl;
layers = (
{
layerId = "0D764256-9FC1-4D23-B14D-BAC78E5C0998";
name = "Light Italic";
paths = (
{
closed = 1;
nodes = (
"179 -200 LINE",
"226 34 LINE",
"14 34 LINE",
"18 53 LINE",
"230 53 LINE",
"316 487 LINE",
"104 487 LINE",
"108 506 LINE",
"320 506 LINE",
"367 740 LINE",
"388 740 LINE",
"341 506 LINE",
"553 506 LINE",
"549 487 LINE",
"337 487 LINE",
"251 53 LINE",
"463 53 LINE",
"459 34 LINE",
"247 34 LINE",
"200 -200 LINE"
);
}
);
width = 560;
}
);
unicode = 2021;
},
{
glyphname = numbersign;
layers = (
{
layerId = "0D764256-9FC1-4D23-B14D-BAC78E5C0998";
name = "Light Italic";
paths = (
{
closed = 1;
nodes = (
"400 220 LINE",
"214 220 LINE",
"132 0 LINE",
"111 0 LINE",
"193 220 LINE",
"44 220 LINE",
"48 239 LINE",
"201 239 LINE",
"282 459 LINE",
"131 459 LINE",
"135 478 LINE",
"289 478 LINE",
"371 698 LINE",
"392 698 LINE",
"310 478 LINE",
"496 478 LINE",
"578 698 LINE",
"599 698 LINE",
"517 478 LINE",
"666 478 LINE",
"662 459 LINE",
"509 459 LINE",
"428 239 LINE",
"579 239 LINE",
"575 220 LINE",
"421 220 LINE",
"339 0 LINE",
"318 0 LINE"
);
},
{
closed = 1;
nodes = (
"407 239 LINE",
"489 459 LINE",
"303 459 LINE",
"221 239 LINE"
);
}
);
width = 710;
}
);
unicode = 0023;
},
{
glyphname = asciicircum;
layers = (
{
layerId = "0D764256-9FC1-4D23-B14D-BAC78E5C0998";
name = "Light Italic";
paths = (
{
closed = 1;
nodes = (
"520 322 LINE",
"378 676 LINE",
"376 676 LINE",
"92 322 LINE",
"74 332 LINE",
"369 698 LINE",
"391 698 LINE",
"538 332 LINE"
);
}
);
width = 600;
}
);
unicode = 005E;
},
{
glyphname = asciitilde;
layers = (
{
layerId = "0D764256-9FC1-4D23-B14D-BAC78E5C0998";
name = "Light Italic";
paths = (
{
closed = 1;
nodes = (
"405 256 OFFCURVE",
"390 260 OFFCURVE",
"372 266 CURVE SMOOTH",
"354 272 OFFCURVE",
"332 281 OFFCURVE",
"304 296 CURVE",
"277 309 OFFCURVE",
"258 318 OFFCURVE",
"241 324 CURVE SMOOTH",
"224 330 OFFCURVE",
"208 332 OFFCURVE",
"191 332 CURVE SMOOTH",
"152 332 OFFCURVE",
"125 321 OFFCURVE",
"86 290 CURVE",
"74 304 LINE",
"113 336 OFFCURVE",
"153 352 OFFCURVE",
"195 352 CURVE SMOOTH",
"215 352 OFFCURVE",
"231 349 OFFCURVE",
"249 343 CURVE SMOOTH",
"258 340 OFFCURVE",
"268 335 OFFCURVE",
"279 330 CURVE SMOOTH",
"290 325 OFFCURVE",
"302 319 OFFCURVE",
"316 312 CURVE SMOOTH",
"343 299 OFFCURVE",
"362 291 OFFCURVE",
"379 285 CURVE SMOOTH",
"396 279 OFFCURVE",
"410 276 OFFCURVE",
"429 276 CURVE SMOOTH",
"468 276 OFFCURVE",
"495 287 OFFCURVE",
"534 318 CURVE",
"546 304 LINE",
"507 272 OFFCURVE",
"467 256 OFFCURVE",
"425 256 CURVE SMOOTH"
);
}
);
width = 600;
}
);
unicode = 007E;
},
{
glyphname = plus;
layers = (
{
layerId = "0D764256-9FC1-4D23-B14D-BAC78E5C0998";
name = "Light Italic";
paths = (
{
closed = 1;
nodes = (
"251 62 LINE",
"298 296 LINE",
"70 296 LINE",
"74 315 LINE",
"302 315 LINE",
"349 549 LINE",
"370 549 LINE",
"323 315 LINE",
"551 315 LINE",
"547 296 LINE",
"319 296 LINE",
"272 62 LINE"
);
}
);
width = 600;
}
);
unicode = 002B;
},
{
glyphname = minus;
layers = (
{
layerId = "0D764256-9FC1-4D23-B14D-BAC78E5C0998";
name = "Light Italic";
paths = (
{
closed = 1;
nodes = (
"70 296 LINE",
"74 315 LINE",
"550 315 LINE",
"546 296 LINE"
);
}
);
width = 600;
}
);
unicode = 2212;
},
{
glyphname = plusminus;
layers = (
{
layerId = "0D764256-9FC1-4D23-B14D-BAC78E5C0998";
name = "Light Italic";
paths = (
{
closed = 1;
nodes = (
"262 115 LINE",
"309 349 LINE",
"81 349 LINE",
"84 368 LINE",
"312 368 LINE",
"359 602 LINE",
"380 602 LINE",
"333 368 LINE",
"561 368 LINE",
"558 349 LINE",
"330 349 LINE",
"283 115 LINE"
);
},
{
closed = 1;
nodes = (
"11 0 LINE",
"15 19 LINE",
"491 19 LINE",
"487 0 LINE"
);
}
);
width = 600;
}
);
unicode = 00B1;
},
{
glyphname = multiply;
layers = (
{
layerId = "0D764256-9FC1-4D23-B14D-BAC78E5C0998";
name = "Light Italic";
paths = (
{
closed = 1;
nodes = (
"308 292 LINE",
"89 109 LINE",
"77 123 LINE",
"296 306 LINE",
"152 487 LINE",
"167 499 LINE",
"311 319 LINE",
"528 500 LINE",
"540 486 LINE",
"323 304 LINE",
"468 122 LINE",
"453 110 LINE"
);
}
);
width = 600;
}
);
unicode = 00D7;
},
{
glyphname = divide;
layers = (
{
layerId = "0D764256-9FC1-4D23-B14D-BAC78E5C0998";
name = "Light Italic";
paths = (
{
closed = 1;
nodes = (
"71 296 LINE",
"75 315 LINE",
"551 315 LINE",
"547 296 LINE"
);
},
{
closed = 1;
nodes = (
"247 81 OFFCURVE",
"241 91 OFFCURVE",
"241 100 CURVE SMOOTH",
"241 105 OFFCURVE",
"243 117 OFFCURVE",
"244 122 CURVE",
"247 133 OFFCURVE",
"253 143 OFFCURVE",
"276 143 CURVE SMOOTH",
"297 143 OFFCURVE",
"304 133 OFFCURVE",
"304 124 CURVE SMOOTH",
"304 119 OFFCURVE",
"302 107 OFFCURVE",
"301 102 CURVE",
"298 91 OFFCURVE",
"293 81 OFFCURVE",
"270 81 CURVE SMOOTH"
);
},
{
closed = 1;
nodes = (
"325 468 OFFCURVE",
"319 478 OFFCURVE",
"319 487 CURVE SMOOTH",
"319 492 OFFCURVE",
"321 504 OFFCURVE",
"322 509 CURVE",
"325 520 OFFCURVE",
"331 530 OFFCURVE",
"354 530 CURVE SMOOTH",
"375 530 OFFCURVE",
"382 520 OFFCURVE",
"382 511 CURVE SMOOTH",
"382 506 OFFCURVE",
"380 494 OFFCURVE",
"379 489 CURVE",
"376 478 OFFCURVE",
"371 468 OFFCURVE",
"348 468 CURVE SMOOTH"
);
}
);
width = 600;
}
);
unicode = 00F7;
},
{
glyphname = equal;
layers = (
{
layerId = "0D764256-9FC1-4D23-B14D-BAC78E5C0998";
name = "Light Italic";
paths = (
{
closed = 1;
nodes = (
"78 385 LINE",
"82 404 LINE",
"558 404 LINE",
"554 385 LINE"
);
},
{
closed = 1;
nodes = (
"42 207 LINE",
"46 226 LINE",
"522 226 LINE",
"518 207 LINE"
);
}
);
width = 600;
}
);
unicode = 003D;
},
{
glyphname = approxequal;
layers = (
{
layerId = "0D764256-9FC1-4D23-B14D-BAC78E5C0998";
name = "Light Italic";
paths = (
{
closed = 1;
nodes = (
"423 344 OFFCURVE",
"408 348 OFFCURVE",
"390 354 CURVE SMOOTH",
"372 360 OFFCURVE",
"350 369 OFFCURVE",
"322 384 CURVE",
"295 397 OFFCURVE",
"276 406 OFFCURVE",
"259 412 CURVE SMOOTH",
"242 418 OFFCURVE",
"226 420 OFFCURVE",
"209 420 CURVE SMOOTH",
"170 420 OFFCURVE",
"143 409 OFFCURVE",
"104 378 CURVE",
"92 392 LINE",
"131 424 OFFCURVE",
"171 440 OFFCURVE",
"213 440 CURVE SMOOTH",
"233 440 OFFCURVE",
"249 437 OFFCURVE",
"267 431 CURVE SMOOTH",
"276 428 OFFCURVE",
"286 423 OFFCURVE",
"297 418 CURVE SMOOTH",
"308 413 OFFCURVE",
"320 407 OFFCURVE",
"334 400 CURVE SMOOTH",
"361 387 OFFCURVE",
"380 379 OFFCURVE",
"397 373 CURVE SMOOTH",
"414 367 OFFCURVE",
"428 364 OFFCURVE",
"447 364 CURVE SMOOTH",
"486 364 OFFCURVE",
"513 375 OFFCURVE",
"552 406 CURVE",
"564 392 LINE",
"525 360 OFFCURVE",
"485 344 OFFCURVE",
"443 344 CURVE SMOOTH"
);
},
{
closed = 1;
nodes = (
"380 171 OFFCURVE",
"365 175 OFFCURVE",
"347 181 CURVE SMOOTH",
"329 187 OFFCURVE",
"307 196 OFFCURVE",
"279 211 CURVE",
"252 224 OFFCURVE",
"233 233 OFFCURVE",
"216 239 CURVE SMOOTH",
"199 245 OFFCURVE",
"183 247 OFFCURVE",
"166 247 CURVE SMOOTH",
"127 247 OFFCURVE",
"100 236 OFFCURVE",
"61 205 CURVE",
"49 219 LINE",
"88 251 OFFCURVE",
"128 267 OFFCURVE",
"170 267 CURVE SMOOTH",
"190 267 OFFCURVE",
"206 264 OFFCURVE",
"224 258 CURVE SMOOTH",
"233 255 OFFCURVE",
"243 250 OFFCURVE",
"254 245 CURVE SMOOTH",
"265 240 OFFCURVE",
"277 234 OFFCURVE",
"291 227 CURVE SMOOTH",
"318 214 OFFCURVE",
"337 206 OFFCURVE",
"354 200 CURVE SMOOTH",
"371 194 OFFCURVE",
"385 191 OFFCURVE",
"404 191 CURVE SMOOTH",
"443 191 OFFCURVE",
"470 202 OFFCURVE",
"509 233 CURVE",
"521 219 LINE",
"482 187 OFFCURVE",
"442 171 OFFCURVE",
"400 171 CURVE SMOOTH"
);
}
);
width = 600;
}
);
unicode = 2248;
},
{
glyphname = notequal;
layers = (
{
layerId = "0D764256-9FC1-4D23-B14D-BAC78E5C0998";
name = "Light Italic";
paths = (
{
closed = 1;
nodes = (
"138 92 LINE",
"220 207 LINE",
"42 207 LINE",
"46 226 LINE",
"233 226 LINE",
"346 385 LINE",
"78 385 LINE",
"82 404 LINE",
"359 404 LINE",
"441 519 LINE",
"463 519 LINE",
"381 404 LINE",
"558 404 LINE",
"554 385 LINE",
"368 385 LINE",
"255 226 LINE",
"522 226 LINE",
"518 207 LINE",
"242 207 LINE",
"160 92 LINE"
);
}
);
width = 600;
}
);
unicode = 2260;
},
{
glyphname = less;
layers = (
{
layerId = "0D764256-9FC1-4D23-B14D-BAC78E5C0998";
name = "Light Italic";
paths = (
{
closed = 1;
nodes = (
"96 296 LINE",
"100 314 LINE",
"581 572 LINE",
"577 547 LINE",
"121 304 LINE",
"121 302 LINE",
"479 59 LINE",
"475 38 LINE"
);
}
);
width = 600;
}
);
unicode = 003C;
},
{
glyphname = greater;
layers = (
{
layerId = "0D764256-9FC1-4D23-B14D-BAC78E5C0998";
name = "Light Italic";
paths = (
{
closed = 1;
nodes = (
"43 63 LINE",
"499 306 LINE",
"499 308 LINE",
"141 551 LINE",
"145 572 LINE",
"524 314 LINE",
"520 296 LINE",
"39 38 LINE"
);
}
);
width = 600;
}
);
unicode = 003E;
},
{
glyphname = lessequal;
layers = (
{
layerId = "0D764256-9FC1-4D23-B14D-BAC78E5C0998";
name = "Light Italic";
paths = (
{
closed = 1;
nodes = (
"26 0 LINE",
"30 19 LINE",
"460 19 LINE",
"456 0 LINE"
);
},
{
closed = 1;
nodes = (
"570 568 LINE",
"117 344 LINE",
"117 342 LINE",
"480 118 LINE",
"475 98 LINE",
"93 336 LINE",
"97 354 LINE",
"574 592 LINE"
);
}
);
width = 600;
}
);
unicode = 2264;
},
{
glyphname = greaterequal;
layers = (
{
layerId = "0D764256-9FC1-4D23-B14D-BAC78E5C0998";
name = "Light Italic";
paths = (
{
closed = 1;
nodes = (
"67 122 LINE",
"520 346 LINE",
"520 348 LINE",
"157 572 LINE",
"161 592 LINE",
"544 354 LINE",
"540 336 LINE",
"62 98 LINE"
);
},
{
closed = 1;
nodes = (
"47 19 LINE",
"477 19 LINE",
"473 0 LINE",
"43 0 LINE"
);
}
);
width = 600;
}
);
unicode = 2265;
},
{
glyphname = periodcentered;
layers = (
{
layerId = "0D764256-9FC1-4D23-B14D-BAC78E5C0998";
name = "Light Italic";
paths = (
{
closed = 1;
nodes = (
"137 277 OFFCURVE",
"131 287 OFFCURVE",
"131 296 CURVE SMOOTH",
"131 301 OFFCURVE",
"133 310 OFFCURVE",
"134 314 CURVE SMOOTH",
"137 325 OFFCURVE",
"143 335 OFFCURVE",
"163 335 CURVE SMOOTH",
"182 335 OFFCURVE",
"188 325 OFFCURVE",
"188 316 CURVE SMOOTH",
"188 311 OFFCURVE",
"186 302 OFFCURVE",
"185 298 CURVE SMOOTH",
"182 287 OFFCURVE",
"177 277 OFFCURVE",
"157 277 CURVE SMOOTH"
);
}
);
width = 298;
}
);
unicode = 00B7;
},
{
glyphname = bullet;
layers = (
{
layerId = "0D764256-9FC1-4D23-B14D-BAC78E5C0998";
name = "Light Italic";
paths = (
{
closed = 1;
nodes = (
"106 218 OFFCURVE",
"82 240 OFFCURVE",
"82 275 CURVE SMOOTH",
"82 287 OFFCURVE",
"88 341 OFFCURVE",
"118 369 CURVE SMOOTH",
"133 383 OFFCURVE",
"155 390 OFFCURVE",
"185 390 CURVE SMOOTH",
"234 390 OFFCURVE",
"258 368 OFFCURVE",
"258 333 CURVE SMOOTH",
"258 320 OFFCURVE",
"253 267 OFFCURVE",
"223 239 CURVE SMOOTH",
"208 225 OFFCURVE",
"185 218 OFFCURVE",
"155 218 CURVE SMOOTH"
);
}
);
width = 328;
}
);
unicode = 2022;
},
{
glyphname = lozenge;
layers = (
{
layerId = "0D764256-9FC1-4D23-B14D-BAC78E5C0998";
name = "Light Italic";
paths = (
{
closed = 1;
nodes = (
"239 0 LINE",
"76 349 LINE",
"376 698 LINE",
"398 698 LINE",
"561 349 LINE",
"261 0 LINE"
);
},
{
closed = 1;
nodes = (
"254 20 LINE",
"538 351 LINE",
"387 678 LINE",
"383 678 LINE",
"99 347 LINE",
"250 20 LINE"
);
}
);
width = 600;
}
);
unicode = 25CA;
},
{
glyphname = logicalnot;
layers = (
{
layerId = "0D764256-9FC1-4D23-B14D-BAC78E5C0998";
name = "Light Italic";
paths = (
{
closed = 1;
nodes = (
"468 104 LINE",
"506 296 LINE",
"67 296 LINE",
"71 315 LINE",
"531 315 LINE",
"489 104 LINE"
);
}
);
width = 601;
}
);
unicode = 00AC;
},
{
glyphname = radical;
layers = (
{
layerId = "0D764256-9FC1-4D23-B14D-BAC78E5C0998";
name = "Light Italic";
paths = (
{
closed = 1;
nodes = (
"229 0 LINE",
"187 487 LINE",
"66 487 LINE",
"69 506 LINE",
"205 506 LINE",
"247 27 LINE",
"250 27 LINE",
"593 698 LINE",
"616 698 LINE",
"257 0 LINE"
);
}
);
width = 601;
}
);
unicode = 221A;
},
{
glyphname = integral;
layers = (
{
layerId = "0D764256-9FC1-4D23-B14D-BAC78E5C0998";
name = "Light Italic";
paths = (
{
closed = 1;
nodes = (
"-36 -181 LINE",
"81 -181 LINE",
"258 707 LINE SMOOTH",
"263 734 OFFCURVE",
"269 740 OFFCURVE",
"297 740 CURVE SMOOTH",
"403 740 LINE",
"399 721 LINE",
"282 721 LINE",
"105 -167 LINE SMOOTH",
"100 -194 OFFCURVE",
"94 -200 OFFCURVE",
"66 -200 CURVE SMOOTH",
"-40 -200 LINE"
);
}
);
width = 356;
}
);
unicode = 222B;
},
{
glyphname = infinity;
layers = (
{
layerId = "0D764256-9FC1-4D23-B14D-BAC78E5C0998";
name = "Light Italic";
paths = (
{
closed = 1;
nodes = (
"78 126 OFFCURVE",
"31 175 OFFCURVE",
"31 256 CURVE SMOOTH",
"31 324 OFFCURVE",
"49 381 OFFCURVE",
"82 421 CURVE SMOOTH",
"114 461 OFFCURVE",
"162 484 OFFCURVE",
"225 484 CURVE SMOOTH",
"309 484 OFFCURVE",
"368 425 OFFCURVE",
"377 328 CURVE",
"380 328 LINE",
"400 379 OFFCURVE",
"431 417 OFFCURVE",
"465 444 CURVE SMOOTH",
"499 471 OFFCURVE",
"537 484 OFFCURVE",
"576 484 CURVE SMOOTH",
"668 484 OFFCURVE",
"715 435 OFFCURVE",
"715 354 CURVE SMOOTH",
"715 286 OFFCURVE",
"697 229 OFFCURVE",
"665 189 CURVE SMOOTH",
"632 149 OFFCURVE",
"582 126 OFFCURVE",
"521 126 CURVE SMOOTH",
"437 126 OFFCURVE",
"378 185 OFFCURVE",
"369 282 CURVE",
"366 282 LINE",
"346 231 OFFCURVE",
"316 193 OFFCURVE",
"282 166 CURVE SMOOTH",
"248 139 OFFCURVE",
"207 126 OFFCURVE",
"170 126 CURVE SMOOTH"
);
},
{
closed = 1;
nodes = (
"242 145 OFFCURVE",
"315 197 OFFCURVE",
"362 305 CURVE",
"351 417 OFFCURVE",
"297 465 OFFCURVE",
"222 465 CURVE SMOOTH",
"182 465 OFFCURVE",
"146 454 OFFCURVE",
"118 432 CURVE SMOOTH",
"89 410 OFFCURVE",
"68 375 OFFCURVE",
"60 330 CURVE SMOOTH",
"56 307 OFFCURVE",
"54 290 OFFCURVE",
"53 280 CURVE SMOOTH",
"52 270 OFFCURVE",
"51 262 OFFCURVE",
"51 256 CURVE SMOOTH",
"51 181 OFFCURVE",
"94 145 OFFCURVE",
"171 145 CURVE SMOOTH"
);
},
{
closed = 1;
nodes = (
"564 145 OFFCURVE",
"600 157 OFFCURVE",
"629 179 CURVE SMOOTH",
"657 201 OFFCURVE",
"678 235 OFFCURVE",
"686 280 CURVE SMOOTH",
"690 303 OFFCURVE",
"693 320 OFFCURVE",
"694 330 CURVE SMOOTH",
"695 340 OFFCURVE",
"695 348 OFFCURVE",
"695 354 CURVE SMOOTH",
"695 429 OFFCURVE",
"652 465 OFFCURVE",
"575 465 CURVE SMOOTH",
"504 465 OFFCURVE",
"431 413 OFFCURVE",
"384 305 CURVE",
"395 193 OFFCURVE",
"448 145 OFFCURVE",
"524 145 CURVE SMOOTH"
);
}
);
width = 732;
}
);
unicode = 221E;
},
{
glyphname = uni212E;
layers = (
{
layerId = "0D764256-9FC1-4D23-B14D-BAC78E5C0998";
name = "Light Italic";
paths = (
{
closed = 1;
nodes = (
"96 193 LINE",
"112 141 OFFCURVE",
"144 94 OFFCURVE",
"188 62 CURVE SMOOTH",
"232 29 OFFCURVE",
"286 8 OFFCURVE",
"349 8 CURVE SMOOTH",
"476 8 OFFCURVE",
"551 65 OFFCURVE",
"600 153 CURVE",
"619 143 LINE",
"595 99 OFFCURVE",
"562 60 OFFCURVE",
"517 33 CURVE SMOOTH",
"472 5 OFFCURVE",
"417 -12 OFFCURVE",
"349 -12 CURVE SMOOTH",
"256 -12 OFFCURVE",
"179 27 OFFCURVE",
"126 91 CURVE SMOOTH",
"73 155 OFFCURVE",
"42 245 OFFCURVE",
"42 349 CURVE SMOOTH",
"42 453 OFFCURVE",
"72 543 OFFCURVE",
"125 607 CURVE SMOOTH",
"178 671 OFFCURVE",
"254 710 OFFCURVE",
"346 710 CURVE SMOOTH",
"438 710 OFFCURVE",
"514 671 OFFCURVE",
"567 607 CURVE SMOOTH",
"620 543 OFFCURVE",
"650 453 OFFCURVE",
"650 349 CURVE",
"96 349 LINE"
);
},
{
closed = 1;
nodes = (
"596 369 LINE",
"596 508 LINE",
"580 561 OFFCURVE",
"548 607 OFFCURVE",
"505 639 CURVE SMOOTH",
"462 671 OFFCURVE",
"407 690 OFFCURVE",
"346 690 CURVE SMOOTH",
"283 690 OFFCURVE",
"230 671 OFFCURVE",
"187 639 CURVE SMOOTH",
"143 607 OFFCURVE",
"112 561 OFFCURVE",
"96 508 CURVE",
"96 369 LINE"
);
}
);
width = 693;
}
);
unicode = 212E;
},
{
glyphname = uni2113;
layers = (
{
layerId = "0D764256-9FC1-4D23-B14D-BAC78E5C0998";
name = "Light Italic";
paths = (
{
closed = 1;
nodes = (
"205 -12 OFFCURVE",
"173 5 OFFCURVE",
"153 36 CURVE SMOOTH",
"133 67 OFFCURVE",
"125 111 OFFCURVE",
"125 164 CURVE SMOOTH",
"125 200 LINE",
"100 180 OFFCURVE",
"76 163 OFFCURVE",
"53 150 CURVE",
"43 166 LINE",
"70 182 OFFCURVE",
"98 201 OFFCURVE",
"125 225 CURVE",
"125 572 LINE SMOOTH",
"125 692 OFFCURVE",
"163 752 OFFCURVE",
"238 752 CURVE SMOOTH",
"309 752 OFFCURVE",
"344 705 OFFCURVE",
"344 611 CURVE SMOOTH",
"344 539 OFFCURVE",
"322 465 OFFCURVE",
"286 397 CURVE SMOOTH",
"250 328 OFFCURVE",
"201 263 OFFCURVE",
"146 214 CURVE",
"146 164 LINE SMOOTH",
"146 60 OFFCURVE",
"176 7 OFFCURVE",
"253 7 CURVE SMOOTH",
"292 7 OFFCURVE",
"322 21 OFFCURVE",
"346 42 CURVE SMOOTH",
"370 62 OFFCURVE",
"389 91 OFFCURVE",
"406 122 CURVE",
"424 113 LINE",
"407 82 OFFCURVE",
"387 51 OFFCURVE",
"360 28 CURVE SMOOTH",
"332 4 OFFCURVE",
"298 -12 OFFCURVE",
"253 -12 CURVE SMOOTH"
);
},
{
closed = 1;
nodes = (
"210 733 OFFCURVE",
"187 722 OFFCURVE",
"171 698 CURVE SMOOTH",
"155 673 OFFCURVE",
"146 632 OFFCURVE",
"146 572 CURVE SMOOTH",
"146 239 LINE",
"195 288 OFFCURVE",
"240 348 OFFCURVE",
"272 412 CURVE SMOOTH",
"304 476 OFFCURVE",
"323 543 OFFCURVE",
"323 608 CURVE SMOOTH",
"323 620 LINE SMOOTH",
"323 699 OFFCURVE",
"290 733 OFFCURVE",
"238 733 CURVE SMOOTH"
);
}
);
width = 460;
}
);
unicode = 2113;
},
{
glyphname = uni2116;
layers = (
{
layerId = "0D764256-9FC1-4D23-B14D-BAC78E5C0998";
name = "Light Italic";
paths = (
{
closed = 1;
nodes = (
"776 366 OFFCURVE",
"729 416 OFFCURVE",
"729 493 CURVE SMOOTH",
"729 545 OFFCURVE",
"745 600 OFFCURVE",
"776 641 CURVE SMOOTH",
"807 681 OFFCURVE",
"851 710 OFFCURVE",
"910 710 CURVE SMOOTH",
"986 710 OFFCURVE",
"1033 660 OFFCURVE",
"1033 583 CURVE SMOOTH",
"1033 531 OFFCURVE",
"1017 476 OFFCURVE",
"986 436 CURVE SMOOTH",
"955 395 OFFCURVE",
"911 366 OFFCURVE",
"852 366 CURVE SMOOTH"
);
},
{
closed = 1;
nodes = (
"54 0 LINE",
"194 698 LINE",
"224 698 LINE",
"506 27 LINE",
"509 27 LINE",
"643 698 LINE",
"664 698 LINE",
"524 0 LINE",
"494 0 LINE",
"212 671 LINE",
"209 671 LINE",
"75 0 LINE"
);
},
{
closed = 1;
nodes = (
"893 383 OFFCURVE",
"927 398 OFFCURVE",
"953 422 CURVE SMOOTH",
"979 446 OFFCURVE",
"996 479 OFFCURVE",
"1003 515 CURVE SMOOTH",
"1010 550 LINE",
"1013 561 OFFCURVE",
"1014 572 OFFCURVE",
"1014 583 CURVE SMOOTH",
"1014 646 OFFCURVE",
"982 693 OFFCURVE",
"909 693 CURVE SMOOTH",
"869 693 OFFCURVE",
"836 678 OFFCURVE",
"810 654 CURVE SMOOTH",
"784 630 OFFCURVE",
"766 597 OFFCURVE",
"759 561 CURVE SMOOTH",
"752 526 LINE",
"749 515 OFFCURVE",
"748 504 OFFCURVE",
"748 493 CURVE SMOOTH",
"748 430 OFFCURVE",
"780 383 OFFCURVE",
"853 383 CURVE SMOOTH"
);
},
{
closed = 1;
nodes = (
"693 285 LINE",
"697 304 LINE",
"972 304 LINE",
"968 285 LINE"
);
}
);
width = 1010;
}
);
unicode = 2116;
},
{
glyphname = partialdiff;
layers = (
{
layerId = "0D764256-9FC1-4D23-B14D-BAC78E5C0998";
name = "Light Italic";
paths = (
{
closed = 1;
nodes = (
"128 -12 OFFCURVE",
"60 59 OFFCURVE",
"60 178 CURVE SMOOTH",
"60 278 OFFCURVE",
"86 359 OFFCURVE",
"131 416 CURVE SMOOTH",
"175 472 OFFCURVE",
"237 504 OFFCURVE",
"309 504 CURVE SMOOTH",
"380 504 OFFCURVE",
"435 472 OFFCURVE",
"463 415 CURVE",
"466 417 LINE",
"454 477 OFFCURVE",
"423 532 OFFCURVE",
"380 580 CURVE SMOOTH",
"337 627 OFFCURVE",
"284 667 OFFCURVE",
"225 698 CURVE",
"261 698 LINE",
"308 670 OFFCURVE",
"365 631 OFFCURVE",
"412 572 CURVE SMOOTH",
"459 513 OFFCURVE",
"494 435 OFFCURVE",
"494 328 CURVE SMOOTH",
"494 216 OFFCURVE",
"466 131 OFFCURVE",
"421 74 CURVE SMOOTH",
"376 17 OFFCURVE",
"312 -12 OFFCURVE",
"239 -12 CURVE SMOOTH"
);
},
{
closed = 1;
nodes = (
"352 7 OFFCURVE",
"436 81 OFFCURVE",
"460 213 CURVE SMOOTH",
"468 257 LINE SMOOTH",
"472 277 OFFCURVE",
"472 297 OFFCURVE",
"472 314 CURVE SMOOTH",
"472 422 OFFCURVE",
"408 485 OFFCURVE",
"312 485 CURVE SMOOTH",
"203 485 OFFCURVE",
"116 411 OFFCURVE",
"92 279 CURVE SMOOTH",
"84 235 LINE SMOOTH",
"80 215 OFFCURVE",
"80 195 OFFCURVE",
"80 178 CURVE SMOOTH",
"80 70 OFFCURVE",
"144 7 OFFCURVE",
"240 7 CURVE SMOOTH"
);
}
);
width = 560;
}
);
unicode = 2202;
},
{
glyphname = cent;
layers = (
{
layerId = "0D764256-9FC1-4D23-B14D-BAC78E5C0998";
name = "Light Italic";
paths = (
{
closed = 1;
nodes = (
"199 -11 LINE",
"152 -6 OFFCURVE",
"118 18 OFFCURVE",
"95 53 CURVE SMOOTH",
"72 88 OFFCURVE",
"61 134 OFFCURVE",
"61 186 CURVE SMOOTH",
"61 279 OFFCURVE",
"82 362 OFFCURVE",
"123 422 CURVE SMOOTH",
"163 482 OFFCURVE",
"224 518 OFFCURVE",
"304 518 CURVE",
"324 620 LINE",
"344 620 LINE",
"323 517 LINE",
"391 508 OFFCURVE",
"438 464 OFFCURVE",
"451 403 CURVE",
"432 398 LINE",
"419 457 OFFCURVE",
"376 491 OFFCURVE",
"320 498 CURVE",
"222 7 LINE",
"301 7 OFFCURVE",
"354 47 OFFCURVE",
"405 123 CURVE",
"422 114 LINE",
"362 25 OFFCURVE",
"302 -12 OFFCURVE",
"218 -12 CURVE",
"198 -114 LINE",
"178 -114 LINE"
);
},
{
closed = 1;
nodes = (
"81 139 OFFCURVE",
"90 98 OFFCURVE",
"110 66 CURVE SMOOTH",
"129 34 OFFCURVE",
"159 13 OFFCURVE",
"202 8 CURVE",
"300 499 LINE",
"248 499 OFFCURVE",
"203 480 OFFCURVE",
"168 445 CURVE SMOOTH",
"132 409 OFFCURVE",
"108 358 OFFCURVE",
"96 297 CURVE SMOOTH",
"87 248 LINE SMOOTH",
"83 224 OFFCURVE",
"81 211 OFFCURVE",
"81 186 CURVE SMOOTH"
);
}
);
width = 488;
}
);
unicode = 00A2;
},
{
glyphname = Euro;
layers = (
{
layerId = "0D764256-9FC1-4D23-B14D-BAC78E5C0998";
name = "Light Italic";
paths = (
{
closed = 1;
nodes = (
"224 -12 OFFCURVE",
"170 8 OFFCURVE",
"131 48 CURVE SMOOTH",
"91 87 OFFCURVE",
"69 144 OFFCURVE",
"69 220 CURVE SMOOTH",
"69 285 OFFCURVE",
"78 363 OFFCURVE",
"101 435 CURVE SMOOTH",
"124 507 OFFCURVE",
"157 576 OFFCURVE",
"206 627 CURVE SMOOTH",
"255 678 OFFCURVE",
"318 710 OFFCURVE",
"398 710 CURVE SMOOTH",
"510 710 OFFCURVE",
"566 656 OFFCURVE",
"589 569 CURVE",
"568 564 LINE",
"557 601 OFFCURVE",
"541 634 OFFCURVE",
"514 656 CURVE SMOOTH",
"486 678 OFFCURVE",
"449 690 OFFCURVE",
"397 690 CURVE SMOOTH",
"333 690 OFFCURVE",
"276 665 OFFCURVE",
"229 621 CURVE SMOOTH",
"182 577 OFFCURVE",
"147 514 OFFCURVE",
"124 435 CURVE",
"386 435 LINE",
"382 416 LINE",
"119 416 LINE",
"108 375 OFFCURVE",
"101 341 OFFCURVE",
"94 282 CURVE",
"356 282 LINE",
"352 263 LINE",
"92 263 LINE",
"91 256 OFFCURVE",
"91 243 OFFCURVE",
"91 225 CURVE SMOOTH",
"91 220 LINE SMOOTH",
"91 89 OFFCURVE",
"162 8 OFFCURVE",
"291 8 CURVE SMOOTH",
"384 8 OFFCURVE",
"447 55 OFFCURVE",
"500 151 CURVE",
"519 141 LINE",
"456 32 OFFCURVE",
"388 -12 OFFCURVE",
"291 -12 CURVE SMOOTH"
);
}
);
width = 595;
}
);
unicode = 20AC;
},
{
glyphname = florin;
layers = (
{
layerId = "0D764256-9FC1-4D23-B14D-BAC78E5C0998";
name = "Light Italic";
paths = (
{
closed = 1;
nodes = (
"-78 -115 LINE",
"100 -115 LINE",
"227 311 LINE",
"54 311 LINE",
"60 330 LINE",
"233 330 LINE",
"333 665 LINE SMOOTH",
"341 690 OFFCURVE",
"346 698 OFFCURVE",
"374 698 CURVE SMOOTH",
"549 698 LINE",
"543 679 LINE",
"358 679 LINE",
"254 330 LINE",
"464 330 LINE",
"458 311 LINE",
"248 311 LINE",
"125 -101 LINE SMOOTH",
"117 -126 OFFCURVE",
"112 -134 OFFCURVE",
"84 -134 CURVE SMOOTH",
"-84 -134 LINE"
);
}
);
width = 488;
}
);
unicode = 0192;
},
{
glyphname = sterling;
layers = (
{
layerId = "0D764256-9FC1-4D23-B14D-BAC78E5C0998";
name = "Light Italic";
paths = (
{
closed = 1;
nodes = (
"33 0 LINE",
"38 25 LINE",
"133 69 OFFCURVE",
"186 152 OFFCURVE",
"186 260 CURVE SMOOTH",
"186 277 OFFCURVE",
"185 294 OFFCURVE",
"183 311 CURVE",
"86 311 LINE",
"90 331 LINE",
"181 331 LINE",
"174 388 OFFCURVE",
"167 445 OFFCURVE",
"167 497 CURVE SMOOTH",
"167 564 OFFCURVE",
"192 617 OFFCURVE",
"233 654 CURVE SMOOTH",
"273 690 OFFCURVE",
"329 710 OFFCURVE",
"390 710 CURVE SMOOTH",
"478 710 OFFCURVE",
"544 672 OFFCURVE",
"577 592 CURVE",
"557 582 LINE",
"526 659 OFFCURVE",
"470 690 OFFCURVE",
"389 690 CURVE SMOOTH",
"333 690 OFFCURVE",
"283 672 OFFCURVE",
"247 640 CURVE SMOOTH",
"211 607 OFFCURVE",
"189 558 OFFCURVE",
"189 497 CURVE SMOOTH",
"189 445 OFFCURVE",
"196 388 OFFCURVE",
"203 331 CURVE",
"416 331 LINE",
"412 311 LINE",
"205 311 LINE",
"207 294 OFFCURVE",
"208 277 OFFCURVE",
"208 260 CURVE SMOOTH",
"208 152 OFFCURVE",
"153 63 OFFCURVE",
"64 22 CURVE",
"63 20 LINE",
"467 20 LINE",
"463 0 LINE"
);
}
);
width = 579;
}
);
unicode = 00A3;
},
{
glyphname = dollar;
layers = (
{
layerId = "0D764256-9FC1-4D23-B14D-BAC78E5C0998";
name = "Light Italic";
paths = (
{
closed = 1;
nodes = (
"210 1 LINE",
"110 8 OFFCURVE",
"53 49 OFFCURVE",
"14 113 CURVE",
"32 126 LINE",
"68 65 OFFCURVE",
"121 26 OFFCURVE",
"213 21 CURVE",
"279 348 LINE",
"242 358 LINE SMOOTH",
"151 382 OFFCURVE",
"110 432 OFFCURVE",
"110 513 CURVE SMOOTH",
"110 562 OFFCURVE",
"128 610 OFFCURVE",
"165 643 CURVE SMOOTH",
"201 676 OFFCURVE",
"256 698 OFFCURVE",
"331 698 CURVE SMOOTH",
"349 698 LINE",
"365 780 LINE",
"385 780 LINE",
"368 697 LINE",
"413 693 OFFCURVE",
"445 683 OFFCURVE",
"470 667 CURVE SMOOTH",
"495 651 OFFCURVE",
"513 628 OFFCURVE",
"528 600 CURVE",
"510 589 LINE",
"478 646 OFFCURVE",
"441 672 OFFCURVE",
"364 677 CURVE",
"302 362 LINE",
"333 354 LINE SMOOTH",
"424 331 OFFCURVE",
"469 280 OFFCURVE",
"469 201 CURVE SMOOTH",
"469 146 OFFCURVE",
"451 96 OFFCURVE",
"414 60 CURVE SMOOTH",
"377 23 OFFCURVE",
"318 0 OFFCURVE",
"238 0 CURVE SMOOTH",
"229 0 LINE",
"213 -82 LINE",
"193 -82 LINE"
);
},
{
closed = 1;
nodes = (
"298 344 LINE",
"233 20 LINE",
"239 20 LINE SMOOTH",
"314 20 OFFCURVE",
"366 41 OFFCURVE",
"399 74 CURVE SMOOTH",
"432 107 OFFCURVE",
"447 153 OFFCURVE",
"447 201 CURVE SMOOTH",
"447 274 OFFCURVE",
"412 313 OFFCURVE",
"328 336 CURVE SMOOTH"
);
},
{
closed = 1;
nodes = (
"132 438 OFFCURVE",
"167 397 OFFCURVE",
"248 376 CURVE SMOOTH",
"283 367 LINE",
"345 678 LINE",
"330 678 LINE SMOOTH",
"262 678 OFFCURVE",
"212 659 OFFCURVE",
"180 629 CURVE SMOOTH",
"147 599 OFFCURVE",
"132 557 OFFCURVE",
"132 513 CURVE SMOOTH"
);
}
);
width = 536;
}
);
unicode = 0024;
},
{
glyphname = yen;
layers = (
{
layerId = "0D764256-9FC1-4D23-B14D-BAC78E5C0998";
name = "Light Italic";
paths = (
{
closed = 1;
nodes = (
"277 168 LINE",
"243 0 LINE",
"221 0 LINE",
"255 168 LINE",
"57 168 LINE",
"61 187 LINE",
"259 187 LINE",
"287 325 LINE",
"89 325 LINE",
"93 344 LINE",
"279 344 LINE",
"132 698 LINE",
"155 698 LINE",
"299 348 LINE",
"302 348 LINE",
"586 698 LINE",
"612 698 LINE",
"325 344 LINE",
"511 344 LINE",
"507 325 LINE",
"309 325 LINE",
"281 187 LINE",
"479 187 LINE",
"475 168 LINE"
);
}
);
width = 566;
}
);
unicode = 00A5;
},
{
glyphname = uni0E3F;
layers = (
{
layerId = "0D764256-9FC1-4D23-B14D-BAC78E5C0998";
name = "Light Italic";
paths = (
{
closed = 1;
nodes = (
"228 -82 LINE",
"208 -82 LINE",
"228 20 LINE",
"59 20 LINE",
"190 677 LINE",
"359 677 LINE",
"380 780 LINE",
"400 780 LINE",
"379 677 LINE",
"393 677 LINE SMOOTH",
"482 677 OFFCURVE",
"544 632 OFFCURVE",
"544 551 CURVE SMOOTH",
"544 506 OFFCURVE",
"535 464 OFFCURVE",
"513 432 CURVE SMOOTH",
"491 400 OFFCURVE",
"455 377 OFFCURVE",
"402 368 CURVE",
"402 365 LINE",
"477 350 OFFCURVE",
"510 294 OFFCURVE",
"510 226 CURVE SMOOTH",
"510 166 OFFCURVE",
"497 114 OFFCURVE",
"464 78 CURVE SMOOTH",
"431 42 OFFCURVE",
"378 20 OFFCURVE",
"297 20 CURVE SMOOTH",
"248 20 LINE"
);
},
{
closed = 1;
nodes = (
"299 376 LINE",
"355 657 LINE",
"208 657 LINE",
"151 376 LINE"
);
},
{
closed = 1;
nodes = (
"319 376 LINE",
"332 376 LINE SMOOTH",
"437 376 OFFCURVE",
"500 419 OFFCURVE",
"513 486 CURVE SMOOTH",
"517 507 OFFCURVE",
"520 522 OFFCURVE",
"521 531 CURVE SMOOTH",
"522 539 OFFCURVE",
"522 546 OFFCURVE",
"522 551 CURVE SMOOTH",
"522 627 OFFCURVE",
"466 657 OFFCURVE",
"386 657 CURVE SMOOTH",
"375 657 LINE"
);
},
{
closed = 1;
nodes = (
"232 40 LINE",
"295 356 LINE",
"147 356 LINE",
"85 40 LINE"
);
},
{
closed = 1;
nodes = (
"252 40 LINE",
"305 40 LINE SMOOTH",
"404 40 OFFCURVE",
"463 81 OFFCURVE",
"478 154 CURVE SMOOTH",
"483 175 OFFCURVE",
"486 191 OFFCURVE",
"487 202 CURVE SMOOTH",
"488 213 OFFCURVE",
"488 221 OFFCURVE",
"488 226 CURVE SMOOTH",
"488 259 OFFCURVE",
"478 292 OFFCURVE",
"457 316 CURVE SMOOTH",
"436 340 OFFCURVE",
"402 356 OFFCURVE",
"354 356 CURVE SMOOTH",
"315 356 LINE"
);
}
);
width = 595;
}
);
unicode = 0E3F;
},
{
glyphname = uni20A1;
layers = (
{
layerId = "0D764256-9FC1-4D23-B14D-BAC78E5C0998";
name = "Light Italic";
paths = (
{
closed = 1;
nodes = (
"105 -82 LINE",
"145 42 LINE",
"97 79 OFFCURVE",
"69 137 OFFCURVE",
"69 217 CURVE SMOOTH",
"69 277 OFFCURVE",
"78 347 OFFCURVE",
"96 415 CURVE SMOOTH",
"114 482 OFFCURVE",
"144 547 OFFCURVE",
"186 599 CURVE SMOOTH",
"228 650 OFFCURVE",
"284 686 OFFCURVE",
"356 697 CURVE",
"383 780 LINE",
"402 780 LINE",
"376 699 LINE",
"381 700 OFFCURVE",
"386 700 OFFCURVE",
"390 700 CURVE SMOOTH",
"393 700 OFFCURVE",
"396 700 OFFCURVE",
"398 700 CURVE SMOOTH",
"433 700 OFFCURVE",
"463 695 OFFCURVE",
"487 685 CURVE",
"518 780 LINE",
"537 780 LINE",
"504 678 LINE",
"549 654 OFFCURVE",
"575 614 OFFCURVE",
"590 559 CURVE",
"571 553 LINE",
"559 600 OFFCURVE",
"536 634 OFFCURVE",
"497 657 CURVE",
"291 18 LINE",
"292 18 LINE SMOOTH",
"385 18 OFFCURVE",
"448 65 OFFCURVE",
"501 161 CURVE",
"519 152 LINE",
"488 97 OFFCURVE",
"456 59 OFFCURVE",
"420 34 CURVE SMOOTH",
"383 9 OFFCURVE",
"341 -2 OFFCURVE",
"292 -2 CURVE SMOOTH",
"285 -2 LINE",
"259 -82 LINE",
"240 -82 LINE",
"266 -1 LINE",
"225 2 OFFCURVE",
"190 13 OFFCURVE",
"161 32 CURVE",
"124 -82 LINE"
);
},
{
closed = 1;
nodes = (
"392 680 OFFCURVE",
"389 680 OFFCURVE",
"385 680 CURVE SMOOTH",
"381 680 OFFCURVE",
"376 680 OFFCURVE",
"369 679 CURVE",
"167 53 LINE",
"197 32 OFFCURVE",
"232 21 OFFCURVE",
"272 19 CURVE",
"481 665 LINE",
"457 675 OFFCURVE",
"428 680 OFFCURVE",
"395 680 CURVE SMOOTH"
);
},
{
closed = 1;
nodes = (
"91 150 OFFCURVE",
"113 99 OFFCURVE",
"152 64 CURVE",
"349 676 LINE",
"236 655 OFFCURVE",
"149 557 OFFCURVE",
"114 390 CURVE SMOOTH",
"102 331 LINE SMOOTH",
"93 287 OFFCURVE",
"91 248 OFFCURVE",
"91 217 CURVE SMOOTH"
);
}
);
width = 606;
}
);
unicode = 20A1;
},
{
glyphname = uni20A4;
layers = (
{
layerId = "0D764256-9FC1-4D23-B14D-BAC78E5C0998";
name = "Light Italic";
paths = (
{
closed = 1;
nodes = (
"463 0 LINE",
"33 0 LINE",
"38 25 LINE",
"130 68 OFFCURVE",
"183 147 OFFCURVE",
"186 251 CURVE",
"69 251 LINE",
"73 270 LINE",
"186 270 LINE",
"185 321 OFFCURVE",
"179 364 OFFCURVE",
"172 408 CURVE",
"100 408 LINE",
"104 427 LINE",
"170 427 LINE",
"168 451 OFFCURVE",
"167 474 OFFCURVE",
"167 497 CURVE SMOOTH",
"167 564 OFFCURVE",
"192 617 OFFCURVE",
"233 654 CURVE SMOOTH",
"273 690 OFFCURVE",
"329 710 OFFCURVE",
"390 710 CURVE SMOOTH",
"478 710 OFFCURVE",
"544 672 OFFCURVE",
"577 592 CURVE",
"557 582 LINE",
"526 659 OFFCURVE",
"470 690 OFFCURVE",
"389 690 CURVE SMOOTH",
"333 690 OFFCURVE",
"283 672 OFFCURVE",
"247 640 CURVE SMOOTH",
"211 607 OFFCURVE",
"189 558 OFFCURVE",
"189 497 CURVE SMOOTH",
"189 474 OFFCURVE",
"190 451 OFFCURVE",
"192 427 CURVE",
"428 427 LINE",
"424 408 LINE",
"194 408 LINE",
"201 363 OFFCURVE",
"207 319 OFFCURVE",
"208 270 CURVE",
"397 270 LINE",
"393 251 LINE",
"208 251 LINE",
"205 147 OFFCURVE",
"151 62 OFFCURVE",
"64 22 CURVE",
"63 20 LINE",
"467 20 LINE"
);
}
);
width = 579;
}
);
unicode = 20A4;
},
{
glyphname = uni20A6;
layers = (
{
layerId = "0D764256-9FC1-4D23-B14D-BAC78E5C0998";
name = "Light Italic";
paths = (
{
closed = 1;
nodes = (
"50 437 LINE",
"145 437 LINE",
"197 698 LINE",
"225 698 LINE",
"325 437 LINE",
"568 437 LINE",
"620 698 LINE",
"640 698 LINE",
"588 437 LINE",
"685 437 LINE",
"681 418 LINE",
"584 418 LINE",
"556 280 LINE",
"653 280 LINE",
"649 261 LINE",
"552 261 LINE",
"500 0 LINE",
"472 0 LINE",
"372 261 LINE",
"129 261 LINE",
"77 0 LINE",
"57 0 LINE",
"109 261 LINE",
"14 261 LINE",
"18 280 LINE",
"113 280 LINE",
"141 418 LINE",
"46 418 LINE"
);
},
{
closed = 1;
nodes = (
"164 437 LINE",
"304 437 LINE",
"214 671 LINE",
"211 671 LINE"
);
},
{
closed = 1;
nodes = (
"364 280 LINE",
"311 418 LINE",
"161 418 LINE",
"133 280 LINE"
);
},
{
closed = 1;
nodes = (
"386 280 LINE",
"537 280 LINE",
"565 418 LINE",
"333 418 LINE"
);
},
{
closed = 1;
nodes = (
"487 27 LINE",
"534 261 LINE",
"393 261 LINE",
"483 27 LINE"
);
}
);
width = 657;
}
);
unicode = 20A6;
},
{
glyphname = uni20A8;
layers = (
{
layerId = "0D764256-9FC1-4D23-B14D-BAC78E5C0998";
name = "Light Italic";
paths = (
{
closed = 1;
nodes = (
"194 698 LINE",
"313 698 LINE SMOOTH",
"364 698 OFFCURVE",
"399 685 OFFCURVE",
"421 664 CURVE SMOOTH",
"443 643 OFFCURVE",
"451 612 OFFCURVE",
"451 577 CURVE SMOOTH",
"451 521 OFFCURVE",
"440 465 OFFCURVE",
"414 421 CURVE SMOOTH",
"388 377 OFFCURVE",
"347 344 OFFCURVE",
"287 335 CURVE",
"369 110 LINE SMOOTH",
"382 71 OFFCURVE",
"399 46 OFFCURVE",
"421 30 CURVE SMOOTH",
"443 14 OFFCURVE",
"471 8 OFFCURVE",
"510 8 CURVE SMOOTH",
"539 8 OFFCURVE",
"570 17 OFFCURVE",
"592 34 CURVE SMOOTH",
"614 51 OFFCURVE",
"628 77 OFFCURVE",
"628 110 CURVE SMOOTH",
"628 149 OFFCURVE",
"612 173 OFFCURVE",
"581 202 CURVE SMOOTH",
"539 242 LINE SMOOTH",
"498 281 OFFCURVE",
"485 312 OFFCURVE",
"485 353 CURVE SMOOTH",
"485 382 OFFCURVE",
"497 414 OFFCURVE",
"520 436 CURVE SMOOTH",
"543 458 OFFCURVE",
"574 473 OFFCURVE",
"614 473 CURVE SMOOTH",
"653 473 OFFCURVE",
"686 461 OFFCURVE",
"706 438 CURVE",
"691 423 LINE",
"673 443 OFFCURVE",
"647 453 OFFCURVE",
"613 453 CURVE SMOOTH",
"553 453 OFFCURVE",
"507 412 OFFCURVE",
"507 353 CURVE SMOOTH",
"507 314 OFFCURVE",
"518 289 OFFCURVE",
"553 258 CURVE SMOOTH",
"596 218 LINE SMOOTH",
"637 179 OFFCURVE",
"650 150 OFFCURVE",
"650 110 CURVE SMOOTH",
"650 38 OFFCURVE",
"595 -12 OFFCURVE",
"510 -12 CURVE SMOOTH",
"422 -12 OFFCURVE",
"380 17 OFFCURVE",
"351 96 CURVE SMOOTH",
"264 332 LINE",
"144 332 LINE",
"77 0 LINE",
"55 0 LINE"
);
},
{
closed = 1;
nodes = (
"246 352 LINE SMOOTH",
"341 352 OFFCURVE",
"398 397 OFFCURVE",
"417 488 CURVE SMOOTH",
"426 530 LINE SMOOTH",
"429 545 OFFCURVE",
"430 562 OFFCURVE",
"430 577 CURVE SMOOTH",
"430 641 OFFCURVE",
"397 678 OFFCURVE",
"313 678 CURVE SMOOTH",
"213 678 LINE",
"148 352 LINE"
);
}
);
width = 731;
}
);
unicode = 20A8;
},
{
glyphname = uni20A9;
layers = (
{
layerId = "0D764256-9FC1-4D23-B14D-BAC78E5C0998";
name = "Light Italic";
paths = (
{
closed = 1;
nodes = (
"42 275 LINE",
"153 275 LINE",
"145 413 LINE",
"68 413 LINE",
"72 432 LINE",
"144 432 LINE",
"129 698 LINE",
"151 698 LINE",
"166 432 LINE",
"386 432 LINE",
"515 698 LINE",
"545 698 LINE",
"565 432 LINE",
"788 432 LINE",
"914 698 LINE",
"937 698 LINE",
"810 432 LINE",
"883 432 LINE",
"879 413 LINE",
"801 413 LINE",
"736 275 LINE",
"851 275 LINE",
"847 256 LINE",
"727 256 LINE",
"605 0 LINE",
"578 0 LINE",
"559 256 LINE",
"322 256 LINE",
"198 0 LINE",
"169 0 LINE",
"154 256 LINE",
"38 256 LINE"
);
},
{
closed = 1;
nodes = (
"407 432 LINE",
"545 432 LINE",
"527 673 LINE",
"524 673 LINE"
);
},
{
closed = 1;
nodes = (
"547 413 LINE",
"398 413 LINE",
"331 275 LINE",
"557 275 LINE"
);
},
{
closed = 1;
nodes = (
"175 275 LINE",
"310 275 LINE",
"377 413 LINE",
"167 413 LINE"
);
},
{
closed = 1;
nodes = (
"567 413 LINE",
"577 275 LINE",
"714 275 LINE",
"779 413 LINE"
);
},
{
closed = 1;
nodes = (
"599 31 LINE",
"705 256 LINE",
"579 256 LINE",
"596 31 LINE"
);
},
{
closed = 1;
nodes = (
"191 31 LINE",
"301 256 LINE",
"176 256 LINE",
"188 31 LINE"
);
}
);
width = 877;
}
);
unicode = 20A9;
},
{
glyphname = uni20AA;
layers = (
{
layerId = "0D764256-9FC1-4D23-B14D-BAC78E5C0998";
name = "Light Italic";
paths = (
{
closed = 1;
nodes = (
"345 572 LINE",
"367 572 LINE",
"256 20 LINE",
"477 20 LINE SMOOTH",
"506 20 OFFCURVE",
"535 28 OFFCURVE",
"559 49 CURVE SMOOTH",
"583 69 OFFCURVE",
"602 104 OFFCURVE",
"613 156 CURVE SMOOTH",
"722 698 LINE",
"744 698 LINE",
"635 156 LINE SMOOTH",
"612 48 OFFCURVE",
"561 0 OFFCURVE",
"473 0 CURVE SMOOTH",
"230 0 LINE"
);
},
{
closed = 1;
nodes = (
"54 0 LINE",
"194 698 LINE",
"425 698 LINE SMOOTH",
"501 698 OFFCURVE",
"542 663 OFFCURVE",
"542 588 CURVE SMOOTH",
"542 573 OFFCURVE",
"540 559 OFFCURVE",
"537 542 CURVE SMOOTH",
"453 126 LINE",
"431 126 LINE",
"515 542 LINE SMOOTH",
"518 559 OFFCURVE",
"520 574 OFFCURVE",
"520 588 CURVE SMOOTH",
"520 655 OFFCURVE",
"484 678 OFFCURVE",
"421 678 CURVE SMOOTH",
"212 678 LINE",
"76 0 LINE"
);
}
);
width = 760;
}
);
unicode = 20AA;
},
{
glyphname = uni20AB;
layers = (
{
layerId = "0D764256-9FC1-4D23-B14D-BAC78E5C0998";
name = "Light Italic";
paths = (
{
closed = 1;
nodes = (
"424 196 LINE",
"421 196 LINE",
"406 172 OFFCURVE",
"384 148 OFFCURVE",
"356 129 CURVE SMOOTH",
"328 110 OFFCURVE",
"292 98 OFFCURVE",
"251 98 CURVE SMOOTH",
"143 98 OFFCURVE",
"85 163 OFFCURVE",
"85 271 CURVE SMOOTH",
"85 360 OFFCURVE",
"111 429 OFFCURVE",
"153 477 CURVE SMOOTH",
"195 524 OFFCURVE",
"252 548 OFFCURVE",
"317 548 CURVE SMOOTH",
"362 548 OFFCURVE",
"399 536 OFFCURVE",
"425 518 CURVE SMOOTH",
"451 500 OFFCURVE",
"466 475 OFFCURVE",
"473 452 CURVE",
"476 452 LINE",
"513 645 LINE",
"348 645 LINE",
"352 664 LINE",
"517 664 LINE",
"532 740 LINE",
"553 740 LINE",
"538 664 LINE",
"610 664 LINE",
"606 645 LINE",
"534 645 LINE",
"428 110 LINE",
"407 110 LINE"
);
},
{
closed = 1;
nodes = (
"295 117 OFFCURVE",
"338 135 OFFCURVE",
"372 163 CURVE SMOOTH",
"406 191 OFFCURVE",
"431 229 OFFCURVE",
"439 272 CURVE SMOOTH",
"463 392 LINE SMOOTH",
"470 427 OFFCURVE",
"459 462 OFFCURVE",
"434 487 CURVE SMOOTH",
"409 512 OFFCURVE",
"367 529 OFFCURVE",
"314 529 CURVE SMOOTH",
"219 529 OFFCURVE",
"141 471 OFFCURVE",
"120 359 CURVE SMOOTH",
"117 345 OFFCURVE",
"115 333 OFFCURVE",
"113 324 CURVE SMOOTH",
"109 304 OFFCURVE",
"107 291 OFFCURVE",
"107 283 CURVE",
"106 278 OFFCURVE",
"106 274 OFFCURVE",
"106 271 CURVE SMOOTH",
"106 175 OFFCURVE",
"154 117 OFFCURVE",
"254 117 CURVE SMOOTH"
);
},
{
closed = 1;
nodes = (
"25 0 LINE",
"29 20 LINE",
"445 20 LINE",
"441 0 LINE"
);
}
);
width = 562;
}
);
unicode = 20AB;
},
{
glyphname = uni20AD;
layers = (
{
layerId = "0D764256-9FC1-4D23-B14D-BAC78E5C0998";
name = "Light Italic";
paths = (
{
closed = 1;
nodes = (
"79 0 LINE",
"57 0 LINE",
"129 358 LINE",
"34 358 LINE",
"38 378 LINE",
"133 378 LINE",
"197 698 LINE",
"219 698 LINE",
"155 378 LINE",
"250 378 LINE",
"577 698 LINE",
"604 698 LINE",
"278 378 LINE",
"529 378 LINE",
"525 358 LINE",
"273 358 LINE",
"482 0 LINE",
"458 0 LINE",
"248 358 LINE",
"151 358 LINE"
);
}
);
width = 569;
}
);
unicode = 20AD;
},
{
glyphname = uni20AE;
layers = (
{
layerId = "0D764256-9FC1-4D23-B14D-BAC78E5C0998";
name = "Light Italic";
paths = (
{
closed = 1;
nodes = (
"295 254 LINE",
"244 0 LINE",
"222 0 LINE",
"271 243 LINE",
"100 168 LINE",
"104 190 LINE",
"275 265 LINE",
"300 391 LINE",
"130 316 LINE",
"134 338 LINE",
"305 413 LINE",
"358 678 LINE",
"109 678 LINE",
"113 698 LINE",
"633 698 LINE",
"629 678 LINE",
"380 678 LINE",
"329 424 LINE",
"500 499 LINE",
"496 477 LINE",
"325 402 LINE",
"299 276 LINE",
"470 351 LINE",
"466 329 LINE"
);
}
);
width = 568;
}
);
unicode = 20AE;
},
{
glyphname = uni20B1;
layers = (
{
layerId = "0D764256-9FC1-4D23-B14D-BAC78E5C0998";
name = "Light Italic";
paths = (
{
closed = 1;
nodes = (
"135 394 LINE",
"41 394 LINE",
"45 413 LINE",
"140 413 LINE",
"165 542 LINE",
"70 542 LINE",
"74 561 LINE",
"169 561 LINE",
"196 698 LINE",
"386 698 LINE SMOOTH",
"481 698 OFFCURVE",
"538 641 OFFCURVE",
"551 561 CURVE",
"646 561 LINE",
"642 542 LINE",
"552 542 LINE",
"552 499 OFFCURVE",
"549 453 OFFCURVE",
"534 413 CURVE",
"617 413 LINE",
"613 394 LINE",
"528 394 LINE",
"495 307 OFFCURVE",
"428 259 OFFCURVE",
"332 259 CURVE SMOOTH",
"131 259 LINE",
"79 0 LINE",
"57 0 LINE"
);
},
{
closed = 1;
nodes = (
"191 561 LINE",
"528 561 LINE",
"517 626 OFFCURVE",
"473 678 OFFCURVE",
"385 678 CURVE SMOOTH",
"214 678 LINE"
);
},
{
closed = 1;
nodes = (
"162 413 LINE",
"511 413 LINE",
"527 468 OFFCURVE",
"530 498 OFFCURVE",
"530 542 CURVE",
"187 542 LINE"
);
},
{
closed = 1;
nodes = (
"333 279 LINE SMOOTH",
"422 279 OFFCURVE",
"477 322 OFFCURVE",
"505 394 CURVE",
"157 394 LINE",
"135 279 LINE"
);
}
);
width = 608;
}
);
unicode = 20B1;
},
{
glyphname = uni20B2;
layers = (
{
layerId = "0D764256-9FC1-4D23-B14D-BAC78E5C0998";
name = "Light Italic";
paths = (
{
closed = 1;
nodes = (
"205 11 LINE",
"121 38 OFFCURVE",
"69 106 OFFCURVE",
"69 222 CURVE SMOOTH",
"69 287 OFFCURVE",
"78 362 OFFCURVE",
"98 434 CURVE SMOOTH",
"118 505 OFFCURVE",
"152 571 OFFCURVE",
"200 620 CURVE SMOOTH",
"248 669 OFFCURVE",
"313 700 OFFCURVE",
"397 700 CURVE SMOOTH",
"416 700 OFFCURVE",
"432 699 OFFCURVE",
"448 696 CURVE",
"478 780 LINE",
"499 780 LINE",
"468 692 LINE",
"541 675 OFFCURVE",
"583 627 OFFCURVE",
"600 559 CURVE",
"580 553 LINE",
"564 613 OFFCURVE",
"530 657 OFFCURVE",
"461 673 CURVE",
"339 332 LINE",
"570 332 LINE",
"544 204 LINE SMOOTH",
"517 75 OFFCURVE",
"426 -2 OFFCURVE",
"297 -2 CURVE SMOOTH",
"272 -2 OFFCURVE",
"248 1 OFFCURVE",
"223 6 CURVE",
"192 -82 LINE",
"172 -82 LINE"
);
},
{
closed = 1;
nodes = (
"91 122 OFFCURVE",
"133 58 OFFCURVE",
"212 31 CURVE",
"441 677 LINE",
"427 679 OFFCURVE",
"412 680 OFFCURVE",
"395 680 CURVE SMOOTH",
"259 680 OFFCURVE",
"153 584 OFFCURVE",
"114 395 CURVE SMOOTH",
"102 336 LINE SMOOTH",
"93 292 OFFCURVE",
"91 253 OFFCURVE",
"91 222 CURVE SMOOTH"
);
},
{
closed = 1;
nodes = (
"230 25 LINE",
"249 20 OFFCURVE",
"272 18 OFFCURVE",
"297 18 CURVE SMOOTH",
"350 18 OFFCURVE",
"399 32 OFFCURVE",
"439 63 CURVE SMOOTH",
"479 94 OFFCURVE",
"509 140 OFFCURVE",
"522 205 CURVE SMOOTH",
"544 312 LINE",
"332 312 LINE"
);
}
);
width = 637;
}
);
unicode = 20B2;
},
{
glyphname = uni20B4;
layers = (
{
layerId = "0D764256-9FC1-4D23-B14D-BAC78E5C0998";
name = "Light Italic";
paths = (
{
closed = 1;
nodes = (
"230 -12 OFFCURVE",
"186 4 OFFCURVE",
"155 32 CURVE SMOOTH",
"124 59 OFFCURVE",
"108 96 OFFCURVE",
"108 140 CURVE SMOOTH",
"108 200 OFFCURVE",
"142 243 OFFCURVE",
"174 270 CURVE",
"59 270 LINE",
"62 289 LINE",
"192 289 LINE",
"437 427 LINE",
"89 427 LINE",
"93 446 LINE",
"464 446 LINE",
"508 481 OFFCURVE",
"522 526 OFFCURVE",
"522 563 CURVE SMOOTH",
"522 599 OFFCURVE",
"509 630 OFFCURVE",
"485 653 CURVE SMOOTH",
"461 676 OFFCURVE",
"425 690 OFFCURVE",
"380 690 CURVE SMOOTH",
"324 690 OFFCURVE",
"264 673 OFFCURVE",
"200 617 CURVE",
"187 632 LINE",
"251 689 OFFCURVE",
"320 710 OFFCURVE",
"381 710 CURVE SMOOTH",
"433 710 OFFCURVE",
"473 695 OFFCURVE",
"501 669 CURVE SMOOTH",
"529 643 OFFCURVE",
"544 606 OFFCURVE",
"544 566 CURVE SMOOTH",
"544 519 OFFCURVE",
"524 474 OFFCURVE",
"492 446 CURVE",
"603 446 LINE",
"599 427 LINE",
"472 427 LINE",
"227 289 LINE",
"572 289 LINE",
"569 270 LINE",
"201 270 LINE",
"158 238 OFFCURVE",
"130 194 OFFCURVE",
"130 141 CURVE SMOOTH",
"130 65 OFFCURVE",
"185 8 OFFCURVE",
"290 8 CURVE SMOOTH",
"350 8 OFFCURVE",
"416 30 OFFCURVE",
"484 91 CURVE",
"496 76 LINE",
"427 12 OFFCURVE",
"353 -12 OFFCURVE",
"289 -12 CURVE SMOOTH"
);
}
);
width = 618;
}
);
unicode = 20B4;
},
{
glyphname = uni20B5;
layers = (
{
layerId = "0D764256-9FC1-4D23-B14D-BAC78E5C0998";
name = "Light Italic";
paths = (
{
closed = 1;
nodes = (
"191 16 LINE",
"115 47 OFFCURVE",
"69 114 OFFCURVE",
"69 217 CURVE SMOOTH",
"69 281 OFFCURVE",
"78 355 OFFCURVE",
"99 427 CURVE SMOOTH",
"120 499 OFFCURVE",
"153 566 OFFCURVE",
"202 617 CURVE SMOOTH",
"251 668 OFFCURVE",
"315 700 OFFCURVE",
"398 700 CURVE SMOOTH",
"410 700 OFFCURVE",
"422 699 OFFCURVE",
"433 698 CURVE",
"462 780 LINE",
"483 780 LINE",
"453 695 LINE",
"529 680 OFFCURVE",
"570 631 OFFCURVE",
"589 559 CURVE",
"569 553 LINE",
"553 617 OFFCURVE",
"517 660 OFFCURVE",
"446 675 CURVE",
"216 29 LINE",
"240 22 OFFCURVE",
"265 18 OFFCURVE",
"292 18 CURVE SMOOTH",
"385 18 OFFCURVE",
"448 65 OFFCURVE",
"501 161 CURVE",
"519 152 LINE",
"488 97 OFFCURVE",
"456 59 OFFCURVE",
"420 34 CURVE SMOOTH",
"383 9 OFFCURVE",
"341 -2 OFFCURVE",
"292 -2 CURVE SMOOTH",
"262 -2 OFFCURVE",
"235 2 OFFCURVE",
"210 10 CURVE",
"177 -82 LINE",
"156 -82 LINE"
);
},
{
closed = 1;
nodes = (
"91 129 OFFCURVE",
"130 65 OFFCURVE",
"198 36 CURVE",
"426 678 LINE",
"415 679 OFFCURVE",
"407 680 OFFCURVE",
"396 680 CURVE SMOOTH",
"329 680 OFFCURVE",
"268 654 OFFCURVE",
"220 606 CURVE SMOOTH",
"171 557 OFFCURVE",
"133 483 OFFCURVE",
"114 390 CURVE SMOOTH",
"102 331 LINE SMOOTH",
"93 287 OFFCURVE",
"91 248 OFFCURVE",
"91 217 CURVE SMOOTH"
);
}
);
width = 595;
}
);
unicode = 20B5;
},
{
glyphname = uni20B8;
layers = (
{
layerId = "0D764256-9FC1-4D23-B14D-BAC78E5C0998";
name = "Light Italic";
paths = (
{
closed = 1;
nodes = (
"120 678 LINE",
"124 698 LINE",
"644 698 LINE",
"640 678 LINE"
);
},
{
closed = 1;
nodes = (
"361 529 LINE",
"255 0 LINE",
"233 0 LINE",
"339 529 LINE",
"90 529 LINE",
"94 549 LINE",
"614 549 LINE",
"610 529 LINE"
);
}
);
width = 588;
}
);
unicode = 20B8;
},
{
glyphname = uni20B9;
layers = (
{
layerId = "0D764256-9FC1-4D23-B14D-BAC78E5C0998";
name = "Light Italic";
paths = (
{
closed = 1;
nodes = (
"430 0 LINE",
"249 322 LINE",
"79 322 LINE",
"83 342 LINE",
"311 342 LINE SMOOTH",
"368 342 OFFCURVE",
"411 364 OFFCURVE",
"440 396 CURVE SMOOTH",
"468 428 OFFCURVE",
"483 469 OFFCURVE",
"486 509 CURVE",
"116 509 LINE",
"121 529 LINE",
"489 529 LINE",
"489 561 OFFCURVE",
"482 599 OFFCURVE",
"462 628 CURVE SMOOTH",
"442 656 OFFCURVE",
"409 678 OFFCURVE",
"358 678 CURVE SMOOTH",
"149 678 LINE",
"154 698 LINE",
"660 698 LINE",
"655 678 LINE",
"434 678 LINE",
"434 676 LINE",
"482 655 OFFCURVE",
"511 596 OFFCURVE",
"511 529 CURVE",
"626 529 LINE",
"621 509 LINE",
"509 509 LINE",
"504 456 OFFCURVE",
"483 409 OFFCURVE",
"450 376 CURVE SMOOTH",
"417 343 OFFCURVE",
"369 322 OFFCURVE",
"308 322 CURVE SMOOTH",
"274 322 LINE",
"456 0 LINE"
);
}
);
width = 605;
}
);
unicode = 20B9;
},
{
glyphname = uni20BA;
layers = (
{
layerId = "0D764256-9FC1-4D23-B14D-BAC78E5C0998";
name = "Light Italic";
paths = (
{
closed = 1;
nodes = (
"167 301 LINE",
"24 239 LINE",
"27 261 LINE",
"172 324 LINE",
"197 452 LINE",
"53 389 LINE",
"57 411 LINE",
"202 474 LINE",
"246 698 LINE",
"268 698 LINE",
"225 483 LINE",
"453 584 LINE",
"450 562 LINE",
"221 461 LINE",
"194 333 LINE",
"424 434 LINE",
"420 412 LINE",
"191 311 LINE",
"133 20 LINE",
"267 20 LINE SMOOTH",
"340 20 OFFCURVE",
"399 49 OFFCURVE",
"444 100 CURVE SMOOTH",
"489 151 OFFCURVE",
"520 222 OFFCURVE",
"536 305 CURVE",
"558 305 LINE",
"541 214 OFFCURVE",
"508 138 OFFCURVE",
"459 85 CURVE SMOOTH",
"410 32 OFFCURVE",
"345 0 OFFCURVE",
"265 0 CURVE SMOOTH",
"107 0 LINE"
);
}
);
width = 616;
}
);
unicode = 20BA;
},
{
glyphname = uni20BD;
layers = (
{
layerId = "0D764256-9FC1-4D23-B14D-BAC78E5C0998";
name = "Light Italic";
paths = (
{
closed = 1;
nodes = (
"121 173 LINE",
"86 0 LINE",
"64 0 LINE",
"99 173 LINE",
"4 173 LINE",
"8 193 LINE",
"103 193 LINE",
"129 322 LINE",
"34 322 LINE",
"38 342 LINE",
"133 342 LINE",
"204 698 LINE",
"453 698 LINE SMOOTH",
"550 698 OFFCURVE",
"604 635 OFFCURVE",
"604 550 CURVE SMOOTH",
"604 405 OFFCURVE",
"525 322 OFFCURVE",
"394 322 CURVE SMOOTH",
"151 322 LINE",
"125 193 LINE",
"371 193 LINE",
"367 173 LINE"
);
},
{
closed = 1;
nodes = (
"155 342 LINE",
"396 342 LINE SMOOTH",
"500 342 OFFCURVE",
"557 401 OFFCURVE",
"573 481 CURVE SMOOTH",
"577 500 OFFCURVE",
"580 515 OFFCURVE",
"581 526 CURVE SMOOTH",
"582 537 OFFCURVE",
"582 545 OFFCURVE",
"582 550 CURVE SMOOTH",
"582 585 OFFCURVE",
"572 617 OFFCURVE",
"551 641 CURVE SMOOTH",
"530 664 OFFCURVE",
"496 678 OFFCURVE",
"451 678 CURVE SMOOTH",
"221 678 LINE"
);
}
);
width = 600;
}
);
unicode = 20BD;
},
{
glyphname = uni20BF;
layers = (
{
layerId = "0D764256-9FC1-4D23-B14D-BAC78E5C0998";
name = "Light Italic";
paths = (
{
closed = 1;
nodes = (
"278 20 LINE",
"179 20 LINE",
"158 -82 LINE",
"139 -82 LINE",
"160 20 LINE",
"59 20 LINE",
"190 677 LINE",
"290 677 LINE",
"311 780 LINE",
"330 780 LINE",
"309 677 LINE",
"408 677 LINE",
"429 781 LINE",
"448 781 LINE",
"427 675 LINE",
"496 667 OFFCURVE",
"544 627 OFFCURVE",
"544 551 CURVE SMOOTH",
"544 506 OFFCURVE",
"535 464 OFFCURVE",
"513 432 CURVE SMOOTH",
"491 400 OFFCURVE",
"455 377 OFFCURVE",
"402 368 CURVE",
"402 365 LINE",
"477 350 OFFCURVE",
"510 294 OFFCURVE",
"510 226 CURVE SMOOTH",
"510 166 OFFCURVE",
"497 114 OFFCURVE",
"464 78 CURVE SMOOTH",
"431 42 OFFCURVE",
"378 20 OFFCURVE",
"297 20 CURVE",
"276 -82 LINE",
"257 -82 LINE"
);
},
{
closed = 1;
nodes = (
"151 376 LINE",
"332 376 LINE SMOOTH",
"437 376 OFFCURVE",
"500 419 OFFCURVE",
"513 486 CURVE SMOOTH",
"517 507 OFFCURVE",
"520 522 OFFCURVE",
"521 531 CURVE SMOOTH",
"522 539 OFFCURVE",
"522 546 OFFCURVE",
"522 551 CURVE SMOOTH",
"522 627 OFFCURVE",
"471 657 OFFCURVE",
"383 657 CURVE SMOOTH",
"208 657 LINE"
);
},
{
closed = 1;
nodes = (
"85 40 LINE",
"305 40 LINE SMOOTH",
"404 40 OFFCURVE",
"463 81 OFFCURVE",
"478 154 CURVE SMOOTH",
"483 175 OFFCURVE",
"486 191 OFFCURVE",
"487 202 CURVE SMOOTH",
"488 213 OFFCURVE",
"488 221 OFFCURVE",
"488 226 CURVE SMOOTH",
"488 259 OFFCURVE",
"478 292 OFFCURVE",
"457 316 CURVE SMOOTH",
"436 340 OFFCURVE",
"402 356 OFFCURVE",
"354 356 CURVE SMOOTH",
"147 356 LINE"
);
}
);
width = 595;
}
);
unicode = 20BF;
},
{
glyphname = fi;
layers = (
{
layerId = "0D764256-9FC1-4D23-B14D-BAC78E5C0998";
name = "Light Italic";
paths = (
{
closed = 1;
nodes = (
"73 506 LINE",
"173 506 LINE",
"212 707 LINE SMOOTH",
"217 734 OFFCURVE",
"225 740 OFFCURVE",
"253 740 CURVE SMOOTH",
"345 740 LINE",
"341 721 LINE",
"236 721 LINE",
"194 506 LINE",
"455 506 LINE",
"357 19 LINE",
"442 19 LINE",
"438 0 LINE",
"362 0 LINE SMOOTH",
"347 0 OFFCURVE",
"338 4 OFFCURVE",
"338 21 CURVE SMOOTH",
"338 25 OFFCURVE",
"339 32 OFFCURVE",
"341 43 CURVE SMOOTH",
"343 54 OFFCURVE",
"345 63 OFFCURVE",
"346 70 CURVE",
"430 487 LINE",
"190 487 LINE",
"61 -167 LINE SMOOTH",
"56 -194 OFFCURVE",
"48 -200 OFFCURVE",
"20 -200 CURVE SMOOTH",
"-62 -200 LINE",
"-58 -181 LINE",
"37 -181 LINE",
"169 487 LINE",
"69 487 LINE"
);
},
{
closed = 1;
nodes = (
"464 673 OFFCURVE",
"459 681 OFFCURVE",
"459 689 CURVE SMOOTH",
"459 693 OFFCURVE",
"460 696 OFFCURVE",
"461 703 CURVE",
"464 715 OFFCURVE",
"471 722 OFFCURVE",
"488 722 CURVE SMOOTH",
"503 722 OFFCURVE",
"508 714 OFFCURVE",
"508 706 CURVE SMOOTH",
"508 702 OFFCURVE",
"507 699 OFFCURVE",
"506 692 CURVE",
"503 680 OFFCURVE",
"496 673 OFFCURVE",
"479 673 CURVE SMOOTH"
);
}
);
width = 514;
}
);
leftKerningGroup = f;
rightKerningGroup = i;
unicode = FB01;
},
{
glyphname = fl;
layers = (
{
layerId = "0D764256-9FC1-4D23-B14D-BAC78E5C0998";
name = "Light Italic";
paths = (
{
closed = 1;
nodes = (
"73 506 LINE",
"173 506 LINE",
"212 707 LINE SMOOTH",
"217 734 OFFCURVE",
"223 740 OFFCURVE",
"251 740 CURVE SMOOTH",
"345 740 LINE",
"341 721 LINE",
"236 721 LINE",
"194 506 LINE",
"298 506 LINE",
"294 487 LINE",
"190 487 LINE",
"61 -167 LINE SMOOTH",
"56 -194 OFFCURVE",
"50 -200 OFFCURVE",
"22 -200 CURVE SMOOTH",
"-62 -200 LINE",
"-58 -181 LINE",
"37 -181 LINE",
"169 487 LINE",
"69 487 LINE"
);
},
{
closed = 1;
nodes = (
"363 0 LINE SMOOTH",
"348 0 OFFCURVE",
"340 6 OFFCURVE",
"340 19 CURVE SMOOTH",
"340 26 OFFCURVE",
"341 28 OFFCURVE",
"342 35 CURVE",
"483 740 LINE",
"504 740 LINE",
"360 19 LINE",
"445 19 LINE",
"441 0 LINE"
);
}
);
width = 517;
}
);
leftKerningGroup = f;
rightKerningGroup = d;
unicode = FB02;
},
{
glyphname = aacute;
layers = (
{
layerId = "0D764256-9FC1-4D23-B14D-BAC78E5C0998";
name = "Light Italic";
paths = (
{
closed = 1;
nodes = (
"413 0 LINE SMOOTH",
"398 0 OFFCURVE",
"390 6 OFFCURVE",
"390 19 CURVE SMOOTH",
"390 26 OFFCURVE",
"391 28 OFFCURVE",
"392 35 CURVE",
"407 111 LINE",
"404 111 LINE",
"361 36 OFFCURVE",
"308 -12 OFFCURVE",
"223 -12 CURVE SMOOTH",
"171 -12 OFFCURVE",
"130 9 OFFCURVE",
"102 42 CURVE SMOOTH",
"74 75 OFFCURVE",
"60 123 OFFCURVE",
"60 176 CURVE SMOOTH",
"60 268 OFFCURVE",
"83 353 OFFCURVE",
"125 416 CURVE SMOOTH",
"167 479 OFFCURVE",
"229 518 OFFCURVE",
"309 518 CURVE SMOOTH",
"394 518 OFFCURVE",
"446 476 OFFCURVE",
"465 413 CURVE",
"468 413 LINE",
"486 506 LINE",
"507 506 LINE",
"410 19 LINE",
"495 19 LINE",
"491 0 LINE"
);
},
{
closed = 1;
nodes = (
"266 7 OFFCURVE",
"298 18 OFFCURVE",
"333 47 CURVE SMOOTH",
"372 79 OFFCURVE",
"411 133 OFFCURVE",
"426 204 CURVE SMOOTH",
"454 346 LINE SMOOTH",
"461 379 OFFCURVE",
"454 418 OFFCURVE",
"431 448 CURVE SMOOTH",
"408 478 OFFCURVE",
"369 499 OFFCURVE",
"309 499 CURVE SMOOTH",
"194 499 OFFCURVE",
"119 414 OFFCURVE",
"94 282 CURVE SMOOTH",
"87 247 LINE SMOOTH",
"83 224 OFFCURVE",
"81 204 OFFCURVE",
"81 176 CURVE SMOOTH",
"81 129 OFFCURVE",
"92 88 OFFCURVE",
"116 57 CURVE SMOOTH",
"139 26 OFFCURVE",
"174 7 OFFCURVE",
"223 7 CURVE SMOOTH"
);
},
{
closed = 1;
nodes = (
"318 587 LINE",
"305 598 LINE",
"448 751 LINE",
"465 738 LINE"
);
}
);
width = 567;
}
);
leftKerningGroup = a;
rightKerningGroup = a;
unicode = 00E1;
},
{
glyphname = abreve;
layers = (
{
layerId = "0D764256-9FC1-4D23-B14D-BAC78E5C0998";
name = "Light Italic";
paths = (
{
closed = 1;
nodes = (
"413 0 LINE SMOOTH",
"398 0 OFFCURVE",
"390 6 OFFCURVE",
"390 19 CURVE SMOOTH",
"390 26 OFFCURVE",
"391 28 OFFCURVE",
"392 35 CURVE",
"407 111 LINE",
"404 111 LINE",
"361 36 OFFCURVE",
"308 -12 OFFCURVE",
"223 -12 CURVE SMOOTH",
"171 -12 OFFCURVE",
"130 9 OFFCURVE",
"102 42 CURVE SMOOTH",
"74 75 OFFCURVE",
"60 123 OFFCURVE",
"60 176 CURVE SMOOTH",
"60 268 OFFCURVE",
"83 353 OFFCURVE",
"125 416 CURVE SMOOTH",
"167 479 OFFCURVE",
"229 518 OFFCURVE",
"309 518 CURVE SMOOTH",
"394 518 OFFCURVE",
"446 476 OFFCURVE",
"465 413 CURVE",
"468 413 LINE",
"486 506 LINE",
"507 506 LINE",
"410 19 LINE",
"495 19 LINE",
"491 0 LINE"
);
},
{
closed = 1;
nodes = (
"266 7 OFFCURVE",
"298 18 OFFCURVE",
"333 47 CURVE SMOOTH",
"372 79 OFFCURVE",
"411 133 OFFCURVE",
"426 204 CURVE SMOOTH",
"454 346 LINE SMOOTH",
"461 379 OFFCURVE",
"454 418 OFFCURVE",
"431 448 CURVE SMOOTH",
"408 478 OFFCURVE",
"369 499 OFFCURVE",
"309 499 CURVE SMOOTH",
"194 499 OFFCURVE",
"119 414 OFFCURVE",
"94 282 CURVE SMOOTH",
"87 247 LINE SMOOTH",
"83 224 OFFCURVE",
"81 204 OFFCURVE",
"81 176 CURVE SMOOTH",
"81 129 OFFCURVE",
"92 88 OFFCURVE",
"116 57 CURVE SMOOTH",
"139 26 OFFCURVE",
"174 7 OFFCURVE",
"223 7 CURVE SMOOTH"
);
},
{
closed = 1;
nodes = (
"311 606 OFFCURVE",
"288 617 OFFCURVE",
"271 637 CURVE SMOOTH",
"254 657 OFFCURVE",
"241 686 OFFCURVE",
"229 723 CURVE",
"245 730 LINE",
"260 693 LINE SMOOTH",
"280 644 OFFCURVE",
"303 625 OFFCURVE",
"344 625 CURVE SMOOTH",
"389 625 OFFCURVE",
"415 642 OFFCURVE",
"451 694 CURVE SMOOTH",
"476 730 LINE",
"492 723 LINE",
"468 687 OFFCURVE",
"449 658 OFFCURVE",
"427 638 CURVE SMOOTH",
"405 617 OFFCURVE",
"379 606 OFFCURVE",
"344 606 CURVE SMOOTH"
);
}
);
width = 567;
}
);
leftKerningGroup = a;
rightKerningGroup = a;
unicode = 0103;
},
{
glyphname = acircumflex;
layers = (
{
layerId = "0D764256-9FC1-4D23-B14D-BAC78E5C0998";
name = "Light Italic";
paths = (
{
closed = 1;
nodes = (
"413 0 LINE SMOOTH",
"398 0 OFFCURVE",
"390 6 OFFCURVE",
"390 19 CURVE SMOOTH",
"390 26 OFFCURVE",
"391 28 OFFCURVE",
"392 35 CURVE",
"407 111 LINE",
"404 111 LINE",
"361 36 OFFCURVE",
"308 -12 OFFCURVE",
"223 -12 CURVE SMOOTH",
"171 -12 OFFCURVE",
"130 9 OFFCURVE",
"102 42 CURVE SMOOTH",
"74 75 OFFCURVE",
"60 123 OFFCURVE",
"60 176 CURVE SMOOTH",
"60 268 OFFCURVE",
"83 353 OFFCURVE",
"125 416 CURVE SMOOTH",
"167 479 OFFCURVE",
"229 518 OFFCURVE",
"309 518 CURVE SMOOTH",
"394 518 OFFCURVE",
"446 476 OFFCURVE",
"465 413 CURVE",
"468 413 LINE",
"486 506 LINE",
"507 506 LINE",
"410 19 LINE",
"495 19 LINE",
"491 0 LINE"
);
},
{
closed = 1;
nodes = (
"266 7 OFFCURVE",
"298 18 OFFCURVE",
"333 47 CURVE SMOOTH",
"372 79 OFFCURVE",
"411 133 OFFCURVE",
"426 204 CURVE SMOOTH",
"454 346 LINE SMOOTH",
"461 379 OFFCURVE",
"454 418 OFFCURVE",
"431 448 CURVE SMOOTH",
"408 478 OFFCURVE",
"369 499 OFFCURVE",
"309 499 CURVE SMOOTH",
"194 499 OFFCURVE",
"119 414 OFFCURVE",
"94 282 CURVE SMOOTH",
"87 247 LINE SMOOTH",
"83 224 OFFCURVE",
"81 204 OFFCURVE",
"81 176 CURVE SMOOTH",
"81 129 OFFCURVE",
"92 88 OFFCURVE",
"116 57 CURVE SMOOTH",
"139 26 OFFCURVE",
"174 7 OFFCURVE",
"223 7 CURVE SMOOTH"
);
},
{
closed = 1;
nodes = (
"381 743 LINE",
"487 609 LINE",
"472 599 LINE",
"368 726 LINE",
"220 599 LINE",
"207 611 LINE",
"357 743 LINE"
);
}
);
width = 567;
}
);
leftKerningGroup = a;
rightKerningGroup = a;
unicode = 00E2;
},
{
glyphname = adieresis;
layers = (
{
layerId = "0D764256-9FC1-4D23-B14D-BAC78E5C0998";
name = "Light Italic";
paths = (
{
closed = 1;
nodes = (
"413 0 LINE SMOOTH",
"398 0 OFFCURVE",
"390 6 OFFCURVE",
"390 19 CURVE SMOOTH",
"390 26 OFFCURVE",
"391 28 OFFCURVE",
"392 35 CURVE",
"407 111 LINE",
"404 111 LINE",
"361 36 OFFCURVE",
"308 -12 OFFCURVE",
"223 -12 CURVE SMOOTH",
"171 -12 OFFCURVE",
"130 9 OFFCURVE",
"102 42 CURVE SMOOTH",
"74 75 OFFCURVE",
"60 123 OFFCURVE",
"60 176 CURVE SMOOTH",
"60 268 OFFCURVE",
"83 353 OFFCURVE",
"125 416 CURVE SMOOTH",
"167 479 OFFCURVE",
"229 518 OFFCURVE",
"309 518 CURVE SMOOTH",
"394 518 OFFCURVE",
"446 476 OFFCURVE",
"465 413 CURVE",
"468 413 LINE",
"486 506 LINE",
"507 506 LINE",
"410 19 LINE",
"495 19 LINE",
"491 0 LINE"
);
},
{
closed = 1;
nodes = (
"266 7 OFFCURVE",
"298 18 OFFCURVE",
"333 47 CURVE SMOOTH",
"372 79 OFFCURVE",
"411 133 OFFCURVE",
"426 204 CURVE SMOOTH",
"454 346 LINE SMOOTH",
"461 379 OFFCURVE",
"454 418 OFFCURVE",
"431 448 CURVE SMOOTH",
"408 478 OFFCURVE",
"369 499 OFFCURVE",
"309 499 CURVE SMOOTH",
"194 499 OFFCURVE",
"119 414 OFFCURVE",
"94 282 CURVE SMOOTH",
"87 247 LINE SMOOTH",
"83 224 OFFCURVE",
"81 204 OFFCURVE",
"81 176 CURVE SMOOTH",
"81 129 OFFCURVE",
"92 88 OFFCURVE",
"116 57 CURVE SMOOTH",
"139 26 OFFCURVE",
"174 7 OFFCURVE",
"223 7 CURVE SMOOTH"
);
},
{
closed = 1;
nodes = (
"245 642 OFFCURVE",
"241 651 OFFCURVE",
"241 659 CURVE SMOOTH",
"241 667 OFFCURVE",
"245 679 OFFCURVE",
"251 686 CURVE",
"254 689 OFFCURVE",
"259 691 OFFCURVE",
"267 691 CURVE SMOOTH",
"283 691 OFFCURVE",
"287 682 OFFCURVE",
"287 674 CURVE SMOOTH",
"287 666 OFFCURVE",
"284 654 OFFCURVE",
"278 647 CURVE",
"275 644 OFFCURVE",
"269 642 OFFCURVE",
"261 642 CURVE SMOOTH"
);
},
{
closed = 1;
nodes = (
"427 642 OFFCURVE",
"423 651 OFFCURVE",
"423 659 CURVE SMOOTH",
"423 667 OFFCURVE",
"427 679 OFFCURVE",
"433 686 CURVE",
"436 689 OFFCURVE",
"441 691 OFFCURVE",
"449 691 CURVE SMOOTH",
"465 691 OFFCURVE",
"469 682 OFFCURVE",
"469 674 CURVE SMOOTH",
"469 666 OFFCURVE",
"466 654 OFFCURVE",
"460 647 CURVE",
"457 644 OFFCURVE",
"451 642 OFFCURVE",
"443 642 CURVE SMOOTH"
);
}
);
width = 567;
}
);
leftKerningGroup = a;
rightKerningGroup = a;
unicode = 00E4;
},
{
glyphname = uni1EA1;
layers = (
{
layerId = "0D764256-9FC1-4D23-B14D-BAC78E5C0998";
name = "Light Italic";
paths = (
{
closed = 1;
nodes = (
"413 0 LINE SMOOTH",
"398 0 OFFCURVE",
"390 6 OFFCURVE",
"390 19 CURVE SMOOTH",
"390 26 OFFCURVE",
"391 28 OFFCURVE",
"392 35 CURVE",
"407 111 LINE",
"404 111 LINE",
"361 36 OFFCURVE",
"308 -12 OFFCURVE",
"223 -12 CURVE SMOOTH",
"171 -12 OFFCURVE",
"130 9 OFFCURVE",
"102 42 CURVE SMOOTH",
"74 75 OFFCURVE",
"60 123 OFFCURVE",
"60 176 CURVE SMOOTH",
"60 268 OFFCURVE",
"83 353 OFFCURVE",
"125 416 CURVE SMOOTH",
"167 479 OFFCURVE",
"229 518 OFFCURVE",
"309 518 CURVE SMOOTH",
"394 518 OFFCURVE",
"446 476 OFFCURVE",
"465 413 CURVE",
"468 413 LINE",
"486 506 LINE",
"507 506 LINE",
"410 19 LINE",
"495 19 LINE",
"491 0 LINE"
);
},
{
closed = 1;
nodes = (
"266 7 OFFCURVE",
"298 18 OFFCURVE",
"333 47 CURVE SMOOTH",
"372 79 OFFCURVE",
"411 133 OFFCURVE",
"426 204 CURVE SMOOTH",
"454 346 LINE SMOOTH",
"461 379 OFFCURVE",
"454 418 OFFCURVE",
"431 448 CURVE SMOOTH",
"408 478 OFFCURVE",
"369 499 OFFCURVE",
"309 499 CURVE SMOOTH",
"194 499 OFFCURVE",
"119 414 OFFCURVE",
"94 282 CURVE SMOOTH",
"87 247 LINE SMOOTH",
"83 224 OFFCURVE",
"81 204 OFFCURVE",
"81 176 CURVE SMOOTH",
"81 129 OFFCURVE",
"92 88 OFFCURVE",
"116 57 CURVE SMOOTH",
"139 26 OFFCURVE",
"174 7 OFFCURVE",
"223 7 CURVE SMOOTH"
);
},
{
closed = 1;
nodes = (
"183 -134 OFFCURVE",
"179 -125 OFFCURVE",
"179 -117 CURVE SMOOTH",
"179 -109 OFFCURVE",
"183 -97 OFFCURVE",
"189 -90 CURVE",
"192 -87 OFFCURVE",
"197 -85 OFFCURVE",
"205 -85 CURVE SMOOTH",
"221 -85 OFFCURVE",
"225 -94 OFFCURVE",
"225 -102 CURVE SMOOTH",
"225 -110 OFFCURVE",
"222 -122 OFFCURVE",
"216 -129 CURVE",
"213 -132 OFFCURVE",
"207 -134 OFFCURVE",
"199 -134 CURVE SMOOTH"
);
}
);
width = 567;
}
);
leftKerningGroup = a;
rightKerningGroup = a;
unicode = 1EA1;
},
{
glyphname = agrave;
layers = (
{
layerId = "0D764256-9FC1-4D23-B14D-BAC78E5C0998";
name = "Light Italic";
paths = (
{
closed = 1;
nodes = (
"413 0 LINE SMOOTH",
"398 0 OFFCURVE",
"390 6 OFFCURVE",
"390 19 CURVE SMOOTH",
"390 26 OFFCURVE",
"391 28 OFFCURVE",
"392 35 CURVE",
"407 111 LINE",
"404 111 LINE",
"361 36 OFFCURVE",
"308 -12 OFFCURVE",
"223 -12 CURVE SMOOTH",
"171 -12 OFFCURVE",
"130 9 OFFCURVE",
"102 42 CURVE SMOOTH",
"74 75 OFFCURVE",
"60 123 OFFCURVE",
"60 176 CURVE SMOOTH",
"60 268 OFFCURVE",
"83 353 OFFCURVE",
"125 416 CURVE SMOOTH",
"167 479 OFFCURVE",
"229 518 OFFCURVE",
"309 518 CURVE SMOOTH",
"394 518 OFFCURVE",
"446 476 OFFCURVE",
"465 413 CURVE",
"468 413 LINE",
"486 506 LINE",
"507 506 LINE",
"410 19 LINE",
"495 19 LINE",
"491 0 LINE"
);
},
{
closed = 1;
nodes = (
"266 7 OFFCURVE",
"298 18 OFFCURVE",
"333 47 CURVE SMOOTH",
"372 79 OFFCURVE",
"411 133 OFFCURVE",
"426 204 CURVE SMOOTH",
"454 346 LINE SMOOTH",
"461 379 OFFCURVE",
"454 418 OFFCURVE",
"431 448 CURVE SMOOTH",
"408 478 OFFCURVE",
"369 499 OFFCURVE",
"309 499 CURVE SMOOTH",
"194 499 OFFCURVE",
"119 414 OFFCURVE",
"94 282 CURVE SMOOTH",
"87 247 LINE SMOOTH",
"83 224 OFFCURVE",
"81 204 OFFCURVE",
"81 176 CURVE SMOOTH",
"81 129 OFFCURVE",
"92 88 OFFCURVE",
"116 57 CURVE SMOOTH",
"139 26 OFFCURVE",
"174 7 OFFCURVE",
"223 7 CURVE SMOOTH"
);
},
{
closed = 1;
nodes = (
"265 740 LINE",
"284 751 LINE",
"365 596 LINE",
"349 587 LINE"
);
}
);
width = 567;
}
);
leftKerningGroup = a;
rightKerningGroup = a;
unicode = 00E0;
},
{
glyphname = uni1EA3;
layers = (
{
layerId = "0D764256-9FC1-4D23-B14D-BAC78E5C0998";
name = "Light Italic";
paths = (
{
closed = 1;
nodes = (
"413 0 LINE SMOOTH",
"398 0 OFFCURVE",
"390 6 OFFCURVE",
"390 19 CURVE SMOOTH",
"390 26 OFFCURVE",
"391 28 OFFCURVE",
"392 35 CURVE",
"407 111 LINE",
"404 111 LINE",
"361 36 OFFCURVE",
"308 -12 OFFCURVE",
"223 -12 CURVE SMOOTH",
"171 -12 OFFCURVE",
"130 9 OFFCURVE",
"102 42 CURVE SMOOTH",
"74 75 OFFCURVE",
"60 123 OFFCURVE",
"60 176 CURVE SMOOTH",
"60 268 OFFCURVE",
"83 353 OFFCURVE",
"125 416 CURVE SMOOTH",
"167 479 OFFCURVE",
"229 518 OFFCURVE",
"309 518 CURVE SMOOTH",
"394 518 OFFCURVE",
"446 476 OFFCURVE",
"465 413 CURVE",
"468 413 LINE",
"486 506 LINE",
"507 506 LINE",
"410 19 LINE",
"495 19 LINE",
"491 0 LINE"
);
},
{
closed = 1;
nodes = (
"266 7 OFFCURVE",
"298 18 OFFCURVE",
"333 47 CURVE SMOOTH",
"372 79 OFFCURVE",
"411 133 OFFCURVE",
"426 204 CURVE SMOOTH",
"454 346 LINE SMOOTH",
"461 379 OFFCURVE",
"454 418 OFFCURVE",
"431 448 CURVE SMOOTH",
"408 478 OFFCURVE",
"369 499 OFFCURVE",
"309 499 CURVE SMOOTH",
"194 499 OFFCURVE",
"119 414 OFFCURVE",
"94 282 CURVE SMOOTH",
"87 247 LINE SMOOTH",
"83 224 OFFCURVE",
"81 204 OFFCURVE",
"81 176 CURVE SMOOTH",
"81 129 OFFCURVE",
"92 88 OFFCURVE",
"116 57 CURVE SMOOTH",
"139 26 OFFCURVE",
"174 7 OFFCURVE",
"223 7 CURVE SMOOTH"
);
},
{
closed = 1;
nodes = (
"299 737 LINE",
"432 737 LINE SMOOTH",
"451 737 OFFCURVE",
"456 731 OFFCURVE",
"456 722 CURVE SMOOTH",
"456 718 OFFCURVE",
"455 714 OFFCURVE",
"450 706 CURVE SMOOTH",
"445 698 OFFCURVE",
"435 687 OFFCURVE",
"418 667 CURVE SMOOTH",
"349 585 LINE",
"334 594 LINE",
"436 719 LINE",
"296 719 LINE"
);
}
);
width = 567;
}
);
leftKerningGroup = a;
rightKerningGroup = a;
unicode = 1EA3;
},
{
glyphname = amacron;
layers = (
{
layerId = "0D764256-9FC1-4D23-B14D-BAC78E5C0998";
name = "Light Italic";
paths = (
{
closed = 1;
nodes = (
"413 0 LINE SMOOTH",
"398 0 OFFCURVE",
"390 6 OFFCURVE",
"390 19 CURVE SMOOTH",
"390 26 OFFCURVE",
"391 28 OFFCURVE",
"392 35 CURVE",
"407 111 LINE",
"404 111 LINE",
"361 36 OFFCURVE",
"308 -12 OFFCURVE",
"223 -12 CURVE SMOOTH",
"171 -12 OFFCURVE",
"130 9 OFFCURVE",
"102 42 CURVE SMOOTH",
"74 75 OFFCURVE",
"60 123 OFFCURVE",
"60 176 CURVE SMOOTH",
"60 268 OFFCURVE",
"83 353 OFFCURVE",
"125 416 CURVE SMOOTH",
"167 479 OFFCURVE",
"229 518 OFFCURVE",
"309 518 CURVE SMOOTH",
"394 518 OFFCURVE",
"446 476 OFFCURVE",
"465 413 CURVE",
"468 413 LINE",
"486 506 LINE",
"507 506 LINE",
"410 19 LINE",
"495 19 LINE",
"491 0 LINE"
);
},
{
closed = 1;
nodes = (
"266 7 OFFCURVE",
"298 18 OFFCURVE",
"333 47 CURVE SMOOTH",
"372 79 OFFCURVE",
"411 133 OFFCURVE",
"426 204 CURVE SMOOTH",
"454 346 LINE SMOOTH",
"461 379 OFFCURVE",
"454 418 OFFCURVE",
"431 448 CURVE SMOOTH",
"408 478 OFFCURVE",
"369 499 OFFCURVE",
"309 499 CURVE SMOOTH",
"194 499 OFFCURVE",
"119 414 OFFCURVE",
"94 282 CURVE SMOOTH",
"87 247 LINE SMOOTH",
"83 224 OFFCURVE",
"81 204 OFFCURVE",
"81 176 CURVE SMOOTH",
"81 129 OFFCURVE",
"92 88 OFFCURVE",
"116 57 CURVE SMOOTH",
"139 26 OFFCURVE",
"174 7 OFFCURVE",
"223 7 CURVE SMOOTH"
);
},
{
closed = 1;
nodes = (
"226 676 LINE",
"484 676 LINE",
"481 658 LINE",
"223 658 LINE"
);
}
);
width = 567;
}
);
leftKerningGroup = a;
rightKerningGroup = a;
unicode = 0101;
},
{
glyphname = aogonek;
layers = (
{
layerId = "0D764256-9FC1-4D23-B14D-BAC78E5C0998";
name = "Light Italic";
paths = (
{
closed = 1;
nodes = (
"491 0 LINE",
"439 -29 OFFCURVE",
"402 -50 OFFCURVE",
"378 -70 CURVE SMOOTH",
"354 -91 OFFCURVE",
"343 -111 OFFCURVE",
"343 -136 CURVE SMOOTH",
"343 -168 OFFCURVE",
"365 -184 OFFCURVE",
"394 -184 CURVE SMOOTH",
"426 -184 OFFCURVE",
"447 -171 OFFCURVE",
"459 -159 CURVE",
"472 -170 LINE",
"456 -189 OFFCURVE",
"429 -202 OFFCURVE",
"394 -202 CURVE SMOOTH",
"353 -202 OFFCURVE",
"322 -181 OFFCURVE",
"322 -136 CURVE SMOOTH",
"322 -119 OFFCURVE",
"329 -98 OFFCURVE",
"350 -76 CURVE SMOOTH",
"370 -54 OFFCURVE",
"405 -31 OFFCURVE",
"461 -3 CURVE",
"460 0 LINE",
"413 0 LINE SMOOTH",
"398 0 OFFCURVE",
"390 6 OFFCURVE",
"390 19 CURVE SMOOTH",
"390 26 OFFCURVE",
"391 28 OFFCURVE",
"392 35 CURVE",
"407 111 LINE",
"404 111 LINE",
"361 36 OFFCURVE",
"308 -12 OFFCURVE",
"223 -12 CURVE SMOOTH",
"171 -12 OFFCURVE",
"130 9 OFFCURVE",
"102 42 CURVE SMOOTH",
"74 75 OFFCURVE",
"60 123 OFFCURVE",
"60 176 CURVE SMOOTH",
"60 268 OFFCURVE",
"83 353 OFFCURVE",
"125 416 CURVE SMOOTH",
"167 479 OFFCURVE",
"229 518 OFFCURVE",
"309 518 CURVE SMOOTH",
"394 518 OFFCURVE",
"446 476 OFFCURVE",
"465 413 CURVE",
"468 413 LINE",
"486 506 LINE",
"507 506 LINE",
"410 19 LINE",
"495 19 LINE"
);
},
{
closed = 1;
nodes = (
"266 7 OFFCURVE",
"298 18 OFFCURVE",
"333 47 CURVE SMOOTH",
"372 79 OFFCURVE",
"411 133 OFFCURVE",
"426 204 CURVE SMOOTH",
"454 346 LINE SMOOTH",
"461 379 OFFCURVE",
"454 418 OFFCURVE",
"431 448 CURVE SMOOTH",
"408 478 OFFCURVE",
"369 499 OFFCURVE",
"309 499 CURVE SMOOTH",
"194 499 OFFCURVE",
"119 414 OFFCURVE",
"94 282 CURVE SMOOTH",
"87 247 LINE SMOOTH",
"83 224 OFFCURVE",
"81 204 OFFCURVE",
"81 176 CURVE SMOOTH",
"81 129 OFFCURVE",
"92 88 OFFCURVE",
"116 57 CURVE SMOOTH",
"139 26 OFFCURVE",
"174 7 OFFCURVE",
"223 7 CURVE SMOOTH"
);
}
);
width = 567;
}
);
leftKerningGroup = a;
rightKerningGroup = a;
unicode = 0105;
},
{
glyphname = aring;
layers = (
{
layerId = "0D764256-9FC1-4D23-B14D-BAC78E5C0998";
name = "Light Italic";
paths = (
{
closed = 1;
nodes = (
"413 0 LINE SMOOTH",
"398 0 OFFCURVE",
"390 6 OFFCURVE",
"390 19 CURVE SMOOTH",
"390 26 OFFCURVE",
"391 28 OFFCURVE",
"392 35 CURVE",
"407 111 LINE",
"404 111 LINE",
"361 36 OFFCURVE",
"308 -12 OFFCURVE",
"223 -12 CURVE SMOOTH",
"171 -12 OFFCURVE",
"130 9 OFFCURVE",
"102 42 CURVE SMOOTH",
"74 75 OFFCURVE",
"60 123 OFFCURVE",
"60 176 CURVE SMOOTH",
"60 268 OFFCURVE",
"83 353 OFFCURVE",
"125 416 CURVE SMOOTH",
"167 479 OFFCURVE",
"229 518 OFFCURVE",
"309 518 CURVE SMOOTH",
"394 518 OFFCURVE",
"446 476 OFFCURVE",
"465 413 CURVE",
"468 413 LINE",
"486 506 LINE",
"507 506 LINE",
"410 19 LINE",
"495 19 LINE",
"491 0 LINE"
);
},
{
closed = 1;
nodes = (
"266 7 OFFCURVE",
"298 18 OFFCURVE",
"333 47 CURVE SMOOTH",
"372 79 OFFCURVE",
"411 133 OFFCURVE",
"426 204 CURVE SMOOTH",
"454 346 LINE SMOOTH",
"461 379 OFFCURVE",
"454 418 OFFCURVE",
"431 448 CURVE SMOOTH",
"408 478 OFFCURVE",
"369 499 OFFCURVE",
"309 499 CURVE SMOOTH",
"194 499 OFFCURVE",
"119 414 OFFCURVE",
"94 282 CURVE SMOOTH",
"87 247 LINE SMOOTH",
"83 224 OFFCURVE",
"81 204 OFFCURVE",
"81 176 CURVE SMOOTH",
"81 129 OFFCURVE",
"92 88 OFFCURVE",
"116 57 CURVE SMOOTH",
"139 26 OFFCURVE",
"174 7 OFFCURVE",
"223 7 CURVE SMOOTH"
);
},
{
closed = 1;
nodes = (
"310 589 OFFCURVE",
"291 599 OFFCURVE",
"279 613 CURVE SMOOTH",
"267 627 OFFCURVE",
"263 645 OFFCURVE",
"263 661 CURVE SMOOTH",
"263 728 OFFCURVE",
"304 771 OFFCURVE",
"368 771 CURVE SMOOTH",
"397 771 OFFCURVE",
"417 762 OFFCURVE",
"429 748 CURVE SMOOTH",
"441 734 OFFCURVE",
"445 715 OFFCURVE",
"445 699 CURVE SMOOTH",
"445 632 OFFCURVE",
"403 589 OFFCURVE",
"339 589 CURVE SMOOTH"
);
},
{
closed = 1;
nodes = (
"384 607 OFFCURVE",
"415 630 OFFCURVE",
"423 673 CURVE",
"424 682 OFFCURVE",
"425 688 OFFCURVE",
"426 691 CURVE SMOOTH",
"427 694 OFFCURVE",
"427 697 OFFCURVE",
"427 700 CURVE SMOOTH",
"427 732 OFFCURVE",
"407 753 OFFCURVE",
"364 753 CURVE SMOOTH",
"324 753 OFFCURVE",
"293 730 OFFCURVE",
"285 687 CURVE",
"284 678 OFFCURVE",
"283 673 OFFCURVE",
"282 670 CURVE SMOOTH",
"281 667 OFFCURVE",
"281 663 OFFCURVE",
"281 660 CURVE SMOOTH",
"281 628 OFFCURVE",
"302 607 OFFCURVE",
"343 607 CURVE SMOOTH"
);
}
);
width = 567;
}
);
leftKerningGroup = a;
rightKerningGroup = a;
unicode = 00E5;
},
{
glyphname = aringacute;
layers = (
{
layerId = "0D764256-9FC1-4D23-B14D-BAC78E5C0998";
name = "Light Italic";
paths = (
{
closed = 1;
nodes = (
"413 0 LINE SMOOTH",
"398 0 OFFCURVE",
"390 6 OFFCURVE",
"390 19 CURVE SMOOTH",
"390 26 OFFCURVE",
"391 28 OFFCURVE",
"392 35 CURVE",
"407 111 LINE",
"404 111 LINE",
"361 36 OFFCURVE",
"308 -12 OFFCURVE",
"223 -12 CURVE SMOOTH",
"171 -12 OFFCURVE",
"130 9 OFFCURVE",
"102 42 CURVE SMOOTH",
"74 75 OFFCURVE",
"60 123 OFFCURVE",
"60 176 CURVE SMOOTH",
"60 268 OFFCURVE",
"83 353 OFFCURVE",
"125 416 CURVE SMOOTH",
"167 479 OFFCURVE",
"229 518 OFFCURVE",
"309 518 CURVE SMOOTH",
"394 518 OFFCURVE",
"446 476 OFFCURVE",
"465 413 CURVE",
"468 413 LINE",
"486 506 LINE",
"507 506 LINE",
"410 19 LINE",
"495 19 LINE",
"491 0 LINE"
);
},
{
closed = 1;
nodes = (
"266 7 OFFCURVE",
"298 18 OFFCURVE",
"333 47 CURVE SMOOTH",
"372 79 OFFCURVE",
"411 133 OFFCURVE",
"426 204 CURVE SMOOTH",
"454 346 LINE SMOOTH",
"461 379 OFFCURVE",
"454 418 OFFCURVE",
"431 448 CURVE SMOOTH",
"408 478 OFFCURVE",
"369 499 OFFCURVE",
"309 499 CURVE SMOOTH",
"194 499 OFFCURVE",
"119 414 OFFCURVE",
"94 282 CURVE SMOOTH",
"87 247 LINE SMOOTH",
"83 224 OFFCURVE",
"81 204 OFFCURVE",
"81 176 CURVE SMOOTH",
"81 129 OFFCURVE",
"92 88 OFFCURVE",
"116 57 CURVE SMOOTH",
"139 26 OFFCURVE",
"174 7 OFFCURVE",
"223 7 CURVE SMOOTH"
);
},
{
closed = 1;
nodes = (
"373 799 LINE",
"360 809 LINE",
"456 911 LINE",
"473 897 LINE"
);
},
{
closed = 1;
nodes = (
"310 589 OFFCURVE",
"291 599 OFFCURVE",
"279 613 CURVE SMOOTH",
"267 627 OFFCURVE",
"263 645 OFFCURVE",
"263 661 CURVE SMOOTH",
"263 728 OFFCURVE",
"304 771 OFFCURVE",
"368 771 CURVE SMOOTH",
"397 771 OFFCURVE",
"417 762 OFFCURVE",
"429 748 CURVE SMOOTH",
"441 734 OFFCURVE",
"445 715 OFFCURVE",
"445 699 CURVE SMOOTH",
"445 632 OFFCURVE",
"403 589 OFFCURVE",
"339 589 CURVE SMOOTH"
);
},
{
closed = 1;
nodes = (
"384 607 OFFCURVE",
"415 630 OFFCURVE",
"423 673 CURVE",
"424 682 OFFCURVE",
"425 688 OFFCURVE",
"426 691 CURVE SMOOTH",
"427 694 OFFCURVE",
"427 697 OFFCURVE",
"427 700 CURVE SMOOTH",
"427 732 OFFCURVE",
"407 753 OFFCURVE",
"364 753 CURVE SMOOTH",
"324 753 OFFCURVE",
"293 730 OFFCURVE",
"285 687 CURVE",
"284 678 OFFCURVE",
"283 673 OFFCURVE",
"282 670 CURVE SMOOTH",
"281 667 OFFCURVE",
"281 663 OFFCURVE",
"281 660 CURVE SMOOTH",
"281 628 OFFCURVE",
"302 607 OFFCURVE",
"343 607 CURVE SMOOTH"
);
}
);
width = 567;
}
);
leftKerningGroup = a;
rightKerningGroup = a;
unicode = 01FB;
},
{
glyphname = atilde;
layers = (
{
layerId = "0D764256-9FC1-4D23-B14D-BAC78E5C0998";
name = "Light Italic";
paths = (
{
closed = 1;
nodes = (
"413 0 LINE SMOOTH",
"398 0 OFFCURVE",
"390 6 OFFCURVE",
"390 19 CURVE SMOOTH",
"390 26 OFFCURVE",
"391 28 OFFCURVE",
"392 35 CURVE",
"407 111 LINE",
"404 111 LINE",
"361 36 OFFCURVE",
"308 -12 OFFCURVE",
"223 -12 CURVE SMOOTH",
"171 -12 OFFCURVE",
"130 9 OFFCURVE",
"102 42 CURVE SMOOTH",
"74 75 OFFCURVE",
"60 123 OFFCURVE",
"60 176 CURVE SMOOTH",
"60 268 OFFCURVE",
"83 353 OFFCURVE",
"125 416 CURVE SMOOTH",
"167 479 OFFCURVE",
"229 518 OFFCURVE",
"309 518 CURVE SMOOTH",
"394 518 OFFCURVE",
"446 476 OFFCURVE",
"465 413 CURVE",
"468 413 LINE",
"486 506 LINE",
"507 506 LINE",
"410 19 LINE",
"495 19 LINE",
"491 0 LINE"
);
},
{
closed = 1;
nodes = (
"266 7 OFFCURVE",
"298 18 OFFCURVE",
"333 47 CURVE SMOOTH",
"372 79 OFFCURVE",
"411 133 OFFCURVE",
"426 204 CURVE SMOOTH",
"454 346 LINE SMOOTH",
"461 379 OFFCURVE",
"454 418 OFFCURVE",
"431 448 CURVE SMOOTH",
"408 478 OFFCURVE",
"369 499 OFFCURVE",
"309 499 CURVE SMOOTH",
"194 499 OFFCURVE",
"119 414 OFFCURVE",
"94 282 CURVE SMOOTH",
"87 247 LINE SMOOTH",
"83 224 OFFCURVE",
"81 204 OFFCURVE",
"81 176 CURVE SMOOTH",
"81 129 OFFCURVE",
"92 88 OFFCURVE",
"116 57 CURVE SMOOTH",
"139 26 OFFCURVE",
"174 7 OFFCURVE",
"223 7 CURVE SMOOTH"
);
},
{
closed = 1;
nodes = (
"392 628 OFFCURVE",
"378 638 OFFCURVE",
"347 659 CURVE SMOOTH",
"322 676 OFFCURVE",
"306 684 OFFCURVE",
"283 684 CURVE SMOOTH",
"262 684 OFFCURVE",
"239 673 OFFCURVE",
"214 651 CURVE",
"203 663 LINE",
"234 692 OFFCURVE",
"260 702 OFFCURVE",
"288 702 CURVE SMOOTH",
"315 702 OFFCURVE",
"329 693 OFFCURVE",
"360 672 CURVE SMOOTH",
"385 655 OFFCURVE",
"401 646 OFFCURVE",
"424 646 CURVE SMOOTH",
"447 646 OFFCURVE",
"468 656 OFFCURVE",
"493 679 CURVE",
"504 667 LINE",
"473 638 OFFCURVE",
"447 628 OFFCURVE",
"419 628 CURVE SMOOTH"
);
}
);
width = 567;
}
);
leftKerningGroup = a;
rightKerningGroup = a;
unicode = 00E3;
},
{
glyphname = uni1EAF;
layers = (
{
layerId = "0D764256-9FC1-4D23-B14D-BAC78E5C0998";
name = "Light Italic";
paths = (
{
closed = 1;
nodes = (
"413 0 LINE SMOOTH",
"398 0 OFFCURVE",
"390 6 OFFCURVE",
"390 19 CURVE SMOOTH",
"390 26 OFFCURVE",
"391 28 OFFCURVE",
"392 35 CURVE",
"407 111 LINE",
"404 111 LINE",
"361 36 OFFCURVE",
"308 -12 OFFCURVE",
"223 -12 CURVE SMOOTH",
"171 -12 OFFCURVE",
"130 9 OFFCURVE",
"102 42 CURVE SMOOTH",
"74 75 OFFCURVE",
"60 123 OFFCURVE",
"60 176 CURVE SMOOTH",
"60 268 OFFCURVE",
"83 353 OFFCURVE",
"125 416 CURVE SMOOTH",
"167 479 OFFCURVE",
"229 518 OFFCURVE",
"309 518 CURVE SMOOTH",
"394 518 OFFCURVE",
"446 476 OFFCURVE",
"465 413 CURVE",
"468 413 LINE",
"486 506 LINE",
"507 506 LINE",
"410 19 LINE",
"495 19 LINE",
"491 0 LINE"
);
},
{
closed = 1;
nodes = (
"266 7 OFFCURVE",
"298 18 OFFCURVE",
"333 47 CURVE SMOOTH",
"372 79 OFFCURVE",
"411 133 OFFCURVE",
"426 204 CURVE SMOOTH",
"454 346 LINE SMOOTH",
"461 379 OFFCURVE",
"454 418 OFFCURVE",
"431 448 CURVE SMOOTH",
"408 478 OFFCURVE",
"369 499 OFFCURVE",
"309 499 CURVE SMOOTH",
"194 499 OFFCURVE",
"119 414 OFFCURVE",
"94 282 CURVE SMOOTH",
"87 247 LINE SMOOTH",
"83 224 OFFCURVE",
"81 204 OFFCURVE",
"81 176 CURVE SMOOTH",
"81 129 OFFCURVE",
"92 88 OFFCURVE",
"116 57 CURVE SMOOTH",
"139 26 OFFCURVE",
"174 7 OFFCURVE",
"223 7 CURVE SMOOTH"
);
},
{
closed = 1;
nodes = (
"276 594 OFFCURVE",
"251 633 OFFCURVE",
"228 701 CURVE",
"244 708 LINE",
"259 673 LINE SMOOTH",
"278 630 OFFCURVE",
"302 613 OFFCURVE",
"343 613 CURVE SMOOTH",
"366 613 OFFCURVE",
"384 616 OFFCURVE",
"401 625 CURVE SMOOTH",
"417 634 OFFCURVE",
"432 649 OFFCURVE",
"449 672 CURVE SMOOTH",
"475 708 LINE",
"491 701 LINE",
"468 666 OFFCURVE",
"450 640 OFFCURVE",
"427 622 CURVE SMOOTH",
"404 604 OFFCURVE",
"378 594 OFFCURVE",
"343 594 CURVE SMOOTH"
);
},
{
closed = 1;
nodes = (
"344 697 LINE",
"331 708 LINE",
"474 861 LINE",
"491 848 LINE"
);
}
);
width = 567;
}
);
leftKerningGroup = a;
rightKerningGroup = a;
unicode = 1EAF;
},
{
glyphname = uni1EB7;
layers = (
{
layerId = "0D764256-9FC1-4D23-B14D-BAC78E5C0998";
name = "Light Italic";
paths = (
{
closed = 1;
nodes = (
"413 0 LINE SMOOTH",
"398 0 OFFCURVE",
"390 6 OFFCURVE",
"390 19 CURVE SMOOTH",
"390 26 OFFCURVE",
"391 28 OFFCURVE",
"392 35 CURVE",
"407 111 LINE",
"404 111 LINE",
"361 36 OFFCURVE",
"308 -12 OFFCURVE",
"223 -12 CURVE SMOOTH",
"171 -12 OFFCURVE",
"130 9 OFFCURVE",
"102 42 CURVE SMOOTH",
"74 75 OFFCURVE",
"60 123 OFFCURVE",
"60 176 CURVE SMOOTH",
"60 268 OFFCURVE",
"83 353 OFFCURVE",
"125 416 CURVE SMOOTH",
"167 479 OFFCURVE",
"229 518 OFFCURVE",
"309 518 CURVE SMOOTH",
"394 518 OFFCURVE",
"446 476 OFFCURVE",
"465 413 CURVE",
"468 413 LINE",
"486 506 LINE",
"507 506 LINE",
"410 19 LINE",
"495 19 LINE",
"491 0 LINE"
);
},
{
closed = 1;
nodes = (
"266 7 OFFCURVE",
"298 18 OFFCURVE",
"333 47 CURVE SMOOTH",
"372 79 OFFCURVE",
"411 133 OFFCURVE",
"426 204 CURVE SMOOTH",
"454 346 LINE SMOOTH",
"461 379 OFFCURVE",
"454 418 OFFCURVE",
"431 448 CURVE SMOOTH",
"408 478 OFFCURVE",
"369 499 OFFCURVE",
"309 499 CURVE SMOOTH",
"194 499 OFFCURVE",
"119 414 OFFCURVE",
"94 282 CURVE SMOOTH",
"87 247 LINE SMOOTH",
"83 224 OFFCURVE",
"81 204 OFFCURVE",
"81 176 CURVE SMOOTH",
"81 129 OFFCURVE",
"92 88 OFFCURVE",
"116 57 CURVE SMOOTH",
"139 26 OFFCURVE",
"174 7 OFFCURVE",
"223 7 CURVE SMOOTH"
);
},
{
closed = 1;
nodes = (
"311 606 OFFCURVE",
"288 617 OFFCURVE",
"271 637 CURVE SMOOTH",
"254 657 OFFCURVE",
"241 686 OFFCURVE",
"229 723 CURVE",
"245 730 LINE",
"260 693 LINE SMOOTH",
"280 644 OFFCURVE",
"303 625 OFFCURVE",
"344 625 CURVE SMOOTH",
"389 625 OFFCURVE",
"415 642 OFFCURVE",
"451 694 CURVE SMOOTH",
"476 730 LINE",
"492 723 LINE",
"468 687 OFFCURVE",
"449 658 OFFCURVE",
"427 638 CURVE SMOOTH",
"405 617 OFFCURVE",
"379 606 OFFCURVE",
"344 606 CURVE SMOOTH"
);
},
{
closed = 1;
nodes = (
"183 -134 OFFCURVE",
"179 -125 OFFCURVE",
"179 -117 CURVE SMOOTH",
"179 -109 OFFCURVE",
"183 -97 OFFCURVE",
"189 -90 CURVE",
"192 -87 OFFCURVE",
"197 -85 OFFCURVE",
"205 -85 CURVE SMOOTH",
"221 -85 OFFCURVE",
"225 -94 OFFCURVE",
"225 -102 CURVE SMOOTH",
"225 -110 OFFCURVE",
"222 -122 OFFCURVE",
"216 -129 CURVE",
"213 -132 OFFCURVE",
"207 -134 OFFCURVE",
"199 -134 CURVE SMOOTH"
);
}
);
width = 567;
}
);
leftKerningGroup = a;
rightKerningGroup = a;
unicode = 1EB7;
},
{
glyphname = uni1EB1;
layers = (
{
layerId = "0D764256-9FC1-4D23-B14D-BAC78E5C0998";
name = "Light Italic";
paths = (
{
closed = 1;
nodes = (
"413 0 LINE SMOOTH",
"398 0 OFFCURVE",
"390 6 OFFCURVE",
"390 19 CURVE SMOOTH",
"390 26 OFFCURVE",
"391 28 OFFCURVE",
"392 35 CURVE",
"407 111 LINE",
"404 111 LINE",
"361 36 OFFCURVE",
"308 -12 OFFCURVE",
"223 -12 CURVE SMOOTH",
"171 -12 OFFCURVE",
"130 9 OFFCURVE",
"102 42 CURVE SMOOTH",
"74 75 OFFCURVE",
"60 123 OFFCURVE",
"60 176 CURVE SMOOTH",
"60 268 OFFCURVE",
"83 353 OFFCURVE",
"125 416 CURVE SMOOTH",
"167 479 OFFCURVE",
"229 518 OFFCURVE",
"309 518 CURVE SMOOTH",
"394 518 OFFCURVE",
"446 476 OFFCURVE",
"465 413 CURVE",
"468 413 LINE",
"486 506 LINE",
"507 506 LINE",
"410 19 LINE",
"495 19 LINE",
"491 0 LINE"
);
},
{
closed = 1;
nodes = (
"266 7 OFFCURVE",
"298 18 OFFCURVE",
"333 47 CURVE SMOOTH",
"372 79 OFFCURVE",
"411 133 OFFCURVE",
"426 204 CURVE SMOOTH",
"454 346 LINE SMOOTH",
"461 379 OFFCURVE",
"454 418 OFFCURVE",
"431 448 CURVE SMOOTH",
"408 478 OFFCURVE",
"369 499 OFFCURVE",
"309 499 CURVE SMOOTH",
"194 499 OFFCURVE",
"119 414 OFFCURVE",
"94 282 CURVE SMOOTH",
"87 247 LINE SMOOTH",
"83 224 OFFCURVE",
"81 204 OFFCURVE",
"81 176 CURVE SMOOTH",
"81 129 OFFCURVE",
"92 88 OFFCURVE",
"116 57 CURVE SMOOTH",
"139 26 OFFCURVE",
"174 7 OFFCURVE",
"223 7 CURVE SMOOTH"
);
},
{
closed = 1;
nodes = (
"276 594 OFFCURVE",
"251 633 OFFCURVE",
"228 701 CURVE",
"244 708 LINE",
"259 673 LINE SMOOTH",
"278 630 OFFCURVE",
"302 613 OFFCURVE",
"343 613 CURVE SMOOTH",
"366 613 OFFCURVE",
"384 616 OFFCURVE",
"401 625 CURVE SMOOTH",
"417 634 OFFCURVE",
"432 649 OFFCURVE",
"449 672 CURVE SMOOTH",
"475 708 LINE",
"491 701 LINE",
"468 666 OFFCURVE",
"450 640 OFFCURVE",
"427 622 CURVE SMOOTH",
"404 604 OFFCURVE",
"378 594 OFFCURVE",
"343 594 CURVE SMOOTH"
);
},
{
closed = 1;
nodes = (
"275 850 LINE",
"294 861 LINE",
"375 706 LINE",
"359 697 LINE"
);
}
);
width = 567;
}
);
leftKerningGroup = a;
rightKerningGroup = a;
unicode = 1EB1;
},
{
glyphname = uni1EB3;
layers = (
{
layerId = "0D764256-9FC1-4D23-B14D-BAC78E5C0998";
name = "Light Italic";
paths = (
{
closed = 1;
nodes = (
"413 0 LINE SMOOTH",
"398 0 OFFCURVE",
"390 6 OFFCURVE",
"390 19 CURVE SMOOTH",
"390 26 OFFCURVE",
"391 28 OFFCURVE",
"392 35 CURVE",
"407 111 LINE",
"404 111 LINE",
"361 36 OFFCURVE",
"308 -12 OFFCURVE",
"223 -12 CURVE SMOOTH",
"171 -12 OFFCURVE",
"130 9 OFFCURVE",
"102 42 CURVE SMOOTH",
"74 75 OFFCURVE",
"60 123 OFFCURVE",
"60 176 CURVE SMOOTH",
"60 268 OFFCURVE",
"83 353 OFFCURVE",
"125 416 CURVE SMOOTH",
"167 479 OFFCURVE",
"229 518 OFFCURVE",
"309 518 CURVE SMOOTH",
"394 518 OFFCURVE",
"446 476 OFFCURVE",
"465 413 CURVE",
"468 413 LINE",
"486 506 LINE",
"507 506 LINE",
"410 19 LINE",
"495 19 LINE",
"491 0 LINE"
);
},
{
closed = 1;
nodes = (
"266 7 OFFCURVE",
"298 18 OFFCURVE",
"333 47 CURVE SMOOTH",
"372 79 OFFCURVE",
"411 133 OFFCURVE",
"426 204 CURVE SMOOTH",
"454 346 LINE SMOOTH",
"461 379 OFFCURVE",
"454 418 OFFCURVE",
"431 448 CURVE SMOOTH",
"408 478 OFFCURVE",
"369 499 OFFCURVE",
"309 499 CURVE SMOOTH",
"194 499 OFFCURVE",
"119 414 OFFCURVE",
"94 282 CURVE SMOOTH",
"87 247 LINE SMOOTH",
"83 224 OFFCURVE",
"81 204 OFFCURVE",
"81 176 CURVE SMOOTH",
"81 129 OFFCURVE",
"92 88 OFFCURVE",
"116 57 CURVE SMOOTH",
"139 26 OFFCURVE",
"174 7 OFFCURVE",
"223 7 CURVE SMOOTH"
);
},
{
closed = 1;
nodes = (
"276 594 OFFCURVE",
"251 633 OFFCURVE",
"228 701 CURVE",
"244 708 LINE",
"259 673 LINE SMOOTH",
"278 630 OFFCURVE",
"302 613 OFFCURVE",
"343 613 CURVE SMOOTH",
"366 613 OFFCURVE",
"384 616 OFFCURVE",
"401 625 CURVE SMOOTH",
"417 634 OFFCURVE",
"432 649 OFFCURVE",
"449 672 CURVE SMOOTH",
"475 708 LINE",
"491 701 LINE",
"468 666 OFFCURVE",
"450 640 OFFCURVE",
"427 622 CURVE SMOOTH",
"404 604 OFFCURVE",
"378 594 OFFCURVE",
"343 594 CURVE SMOOTH"
);
},
{
closed = 1;
nodes = (
"294 847 LINE",
"427 847 LINE SMOOTH",
"446 847 OFFCURVE",
"451 841 OFFCURVE",
"451 832 CURVE SMOOTH",
"451 828 OFFCURVE",
"450 824 OFFCURVE",
"445 816 CURVE SMOOTH",
"440 808 OFFCURVE",
"430 797 OFFCURVE",
"413 777 CURVE SMOOTH",
"344 695 LINE",
"329 704 LINE",
"431 829 LINE",
"291 829 LINE"
);
}
);
width = 567;
}
);
leftKerningGroup = a;
rightKerningGroup = a;
unicode = 1EB3;
},
{
glyphname = uni1EB5;
layers = (
{
layerId = "0D764256-9FC1-4D23-B14D-BAC78E5C0998";
name = "Light Italic";
paths = (
{
closed = 1;
nodes = (
"413 0 LINE SMOOTH",
"398 0 OFFCURVE",
"390 6 OFFCURVE",
"390 19 CURVE SMOOTH",
"390 26 OFFCURVE",
"391 28 OFFCURVE",
"392 35 CURVE",
"407 111 LINE",
"404 111 LINE",
"361 36 OFFCURVE",
"308 -12 OFFCURVE",
"223 -12 CURVE SMOOTH",
"171 -12 OFFCURVE",
"130 9 OFFCURVE",
"102 42 CURVE SMOOTH",
"74 75 OFFCURVE",
"60 123 OFFCURVE",
"60 176 CURVE SMOOTH",
"60 268 OFFCURVE",
"83 353 OFFCURVE",
"125 416 CURVE SMOOTH",
"167 479 OFFCURVE",
"229 518 OFFCURVE",
"309 518 CURVE SMOOTH",
"394 518 OFFCURVE",
"446 476 OFFCURVE",
"465 413 CURVE",
"468 413 LINE",
"486 506 LINE",
"507 506 LINE",
"410 19 LINE",
"495 19 LINE",
"491 0 LINE"
);
},
{
closed = 1;
nodes = (
"266 7 OFFCURVE",
"298 18 OFFCURVE",
"333 47 CURVE SMOOTH",
"372 79 OFFCURVE",
"411 133 OFFCURVE",
"426 204 CURVE SMOOTH",
"454 346 LINE SMOOTH",
"461 379 OFFCURVE",
"454 418 OFFCURVE",
"431 448 CURVE SMOOTH",
"408 478 OFFCURVE",
"369 499 OFFCURVE",
"309 499 CURVE SMOOTH",
"194 499 OFFCURVE",
"119 414 OFFCURVE",
"94 282 CURVE SMOOTH",
"87 247 LINE SMOOTH",
"83 224 OFFCURVE",
"81 204 OFFCURVE",
"81 176 CURVE SMOOTH",
"81 129 OFFCURVE",
"92 88 OFFCURVE",
"116 57 CURVE SMOOTH",
"139 26 OFFCURVE",
"174 7 OFFCURVE",
"223 7 CURVE SMOOTH"
);
},
{
closed = 1;
nodes = (
"276 594 OFFCURVE",
"251 633 OFFCURVE",
"228 701 CURVE",
"244 708 LINE",
"259 673 LINE SMOOTH",
"278 630 OFFCURVE",
"302 613 OFFCURVE",
"343 613 CURVE SMOOTH",
"366 613 OFFCURVE",
"384 616 OFFCURVE",
"401 625 CURVE SMOOTH",
"417 634 OFFCURVE",
"432 649 OFFCURVE",
"449 672 CURVE SMOOTH",
"475 708 LINE",
"491 701 LINE",
"468 666 OFFCURVE",
"450 640 OFFCURVE",
"427 622 CURVE SMOOTH",
"404 604 OFFCURVE",
"378 594 OFFCURVE",
"343 594 CURVE SMOOTH"
);
},
{
closed = 1;
nodes = (
"415 762 OFFCURVE",
"401 772 OFFCURVE",
"370 793 CURVE SMOOTH",
"345 810 OFFCURVE",
"329 818 OFFCURVE",
"306 818 CURVE SMOOTH",
"285 818 OFFCURVE",
"262 807 OFFCURVE",
"237 785 CURVE",
"226 797 LINE",
"257 826 OFFCURVE",
"283 836 OFFCURVE",
"311 836 CURVE SMOOTH",
"338 836 OFFCURVE",
"352 827 OFFCURVE",
"383 806 CURVE SMOOTH",
"408 789 OFFCURVE",
"424 780 OFFCURVE",
"447 780 CURVE SMOOTH",
"470 780 OFFCURVE",
"491 790 OFFCURVE",
"516 813 CURVE",
"527 801 LINE",
"496 772 OFFCURVE",
"470 762 OFFCURVE",
"442 762 CURVE SMOOTH"
);
}
);
width = 567;
}
);
leftKerningGroup = a;
rightKerningGroup = a;
unicode = 1EB5;
},
{
glyphname = uni1EA5;
layers = (
{
layerId = "0D764256-9FC1-4D23-B14D-BAC78E5C0998";
name = "Light Italic";
paths = (
{
closed = 1;
nodes = (
"413 0 LINE SMOOTH",
"398 0 OFFCURVE",
"390 6 OFFCURVE",
"390 19 CURVE SMOOTH",
"390 26 OFFCURVE",
"391 28 OFFCURVE",
"392 35 CURVE",
"407 111 LINE",
"404 111 LINE",
"361 36 OFFCURVE",
"308 -12 OFFCURVE",
"223 -12 CURVE SMOOTH",
"171 -12 OFFCURVE",
"130 9 OFFCURVE",
"102 42 CURVE SMOOTH",
"74 75 OFFCURVE",
"60 123 OFFCURVE",
"60 176 CURVE SMOOTH",
"60 268 OFFCURVE",
"83 353 OFFCURVE",
"125 416 CURVE SMOOTH",
"167 479 OFFCURVE",
"229 518 OFFCURVE",
"309 518 CURVE SMOOTH",
"394 518 OFFCURVE",
"446 476 OFFCURVE",
"465 413 CURVE",
"468 413 LINE",
"486 506 LINE",
"507 506 LINE",
"410 19 LINE",
"495 19 LINE",
"491 0 LINE"
);
},
{
closed = 1;
nodes = (
"266 7 OFFCURVE",
"298 18 OFFCURVE",
"333 47 CURVE SMOOTH",
"372 79 OFFCURVE",
"411 133 OFFCURVE",
"426 204 CURVE SMOOTH",
"454 346 LINE SMOOTH",
"461 379 OFFCURVE",
"454 418 OFFCURVE",
"431 448 CURVE SMOOTH",
"408 478 OFFCURVE",
"369 499 OFFCURVE",
"309 499 CURVE SMOOTH",
"194 499 OFFCURVE",
"119 414 OFFCURVE",
"94 282 CURVE SMOOTH",
"87 247 LINE SMOOTH",
"83 224 OFFCURVE",
"81 204 OFFCURVE",
"81 176 CURVE SMOOTH",
"81 129 OFFCURVE",
"92 88 OFFCURVE",
"116 57 CURVE SMOOTH",
"139 26 OFFCURVE",
"174 7 OFFCURVE",
"223 7 CURVE SMOOTH"
);
},
{
closed = 1;
nodes = (
"473 697 LINE",
"460 708 LINE",
"603 861 LINE",
"620 848 LINE"
);
},
{
closed = 1;
nodes = (
"379 735 LINE",
"485 601 LINE",
"470 591 LINE",
"366 718 LINE",
"218 591 LINE",
"205 603 LINE",
"355 735 LINE"
);
}
);
width = 567;
}
);
leftKerningGroup = a;
rightKerningGroup = a;
unicode = 1EA5;
},
{
glyphname = uni1EAD;
layers = (
{
layerId = "0D764256-9FC1-4D23-B14D-BAC78E5C0998";
name = "Light Italic";
paths = (
{
closed = 1;
nodes = (
"413 0 LINE SMOOTH",
"398 0 OFFCURVE",
"390 6 OFFCURVE",
"390 19 CURVE SMOOTH",
"390 26 OFFCURVE",
"391 28 OFFCURVE",
"392 35 CURVE",
"407 111 LINE",
"404 111 LINE",
"361 36 OFFCURVE",
"308 -12 OFFCURVE",
"223 -12 CURVE SMOOTH",
"171 -12 OFFCURVE",
"130 9 OFFCURVE",
"102 42 CURVE SMOOTH",
"74 75 OFFCURVE",
"60 123 OFFCURVE",
"60 176 CURVE SMOOTH",
"60 268 OFFCURVE",
"83 353 OFFCURVE",
"125 416 CURVE SMOOTH",
"167 479 OFFCURVE",
"229 518 OFFCURVE",
"309 518 CURVE SMOOTH",
"394 518 OFFCURVE",
"446 476 OFFCURVE",
"465 413 CURVE",
"468 413 LINE",
"486 506 LINE",
"507 506 LINE",
"410 19 LINE",
"495 19 LINE",
"491 0 LINE"
);
},
{
closed = 1;
nodes = (
"266 7 OFFCURVE",
"298 18 OFFCURVE",
"333 47 CURVE SMOOTH",
"372 79 OFFCURVE",
"411 133 OFFCURVE",
"426 204 CURVE SMOOTH",
"454 346 LINE SMOOTH",
"461 379 OFFCURVE",
"454 418 OFFCURVE",
"431 448 CURVE SMOOTH",
"408 478 OFFCURVE",
"369 499 OFFCURVE",
"309 499 CURVE SMOOTH",
"194 499 OFFCURVE",
"119 414 OFFCURVE",
"94 282 CURVE SMOOTH",
"87 247 LINE SMOOTH",
"83 224 OFFCURVE",
"81 204 OFFCURVE",
"81 176 CURVE SMOOTH",
"81 129 OFFCURVE",
"92 88 OFFCURVE",
"116 57 CURVE SMOOTH",
"139 26 OFFCURVE",
"174 7 OFFCURVE",
"223 7 CURVE SMOOTH"
);
},
{
closed = 1;
nodes = (
"381 743 LINE",
"487 609 LINE",
"472 599 LINE",
"368 726 LINE",
"220 599 LINE",
"207 611 LINE",
"357 743 LINE"
);
},
{
closed = 1;
nodes = (
"183 -134 OFFCURVE",
"179 -125 OFFCURVE",
"179 -117 CURVE SMOOTH",
"179 -109 OFFCURVE",
"183 -97 OFFCURVE",
"189 -90 CURVE",
"192 -87 OFFCURVE",
"197 -85 OFFCURVE",
"205 -85 CURVE SMOOTH",
"221 -85 OFFCURVE",
"225 -94 OFFCURVE",
"225 -102 CURVE SMOOTH",
"225 -110 OFFCURVE",
"222 -122 OFFCURVE",
"216 -129 CURVE",
"213 -132 OFFCURVE",
"207 -134 OFFCURVE",
"199 -134 CURVE SMOOTH"
);
}
);
width = 567;
}
);
leftKerningGroup = a;
rightKerningGroup = a;
unicode = 1EAD;
},
{
glyphname = uni1EA7;
layers = (
{
layerId = "0D764256-9FC1-4D23-B14D-BAC78E5C0998";
name = "Light Italic";
paths = (
{
closed = 1;
nodes = (
"413 0 LINE SMOOTH",
"398 0 OFFCURVE",
"390 6 OFFCURVE",
"390 19 CURVE SMOOTH",
"390 26 OFFCURVE",
"391 28 OFFCURVE",
"392 35 CURVE",
"407 111 LINE",
"404 111 LINE",
"361 36 OFFCURVE",
"308 -12 OFFCURVE",
"223 -12 CURVE SMOOTH",
"171 -12 OFFCURVE",
"130 9 OFFCURVE",
"102 42 CURVE SMOOTH",
"74 75 OFFCURVE",
"60 123 OFFCURVE",
"60 176 CURVE SMOOTH",
"60 268 OFFCURVE",
"83 353 OFFCURVE",
"125 416 CURVE SMOOTH",
"167 479 OFFCURVE",
"229 518 OFFCURVE",
"309 518 CURVE SMOOTH",
"394 518 OFFCURVE",
"446 476 OFFCURVE",
"465 413 CURVE",
"468 413 LINE",
"486 506 LINE",
"507 506 LINE",
"410 19 LINE",
"495 19 LINE",
"491 0 LINE"
);
},
{
closed = 1;
nodes = (
"266 7 OFFCURVE",
"298 18 OFFCURVE",
"333 47 CURVE SMOOTH",
"372 79 OFFCURVE",
"411 133 OFFCURVE",
"426 204 CURVE SMOOTH",
"454 346 LINE SMOOTH",
"461 379 OFFCURVE",
"454 418 OFFCURVE",
"431 448 CURVE SMOOTH",
"408 478 OFFCURVE",
"369 499 OFFCURVE",
"309 499 CURVE SMOOTH",
"194 499 OFFCURVE",
"119 414 OFFCURVE",
"94 282 CURVE SMOOTH",
"87 247 LINE SMOOTH",
"83 224 OFFCURVE",
"81 204 OFFCURVE",
"81 176 CURVE SMOOTH",
"81 129 OFFCURVE",
"92 88 OFFCURVE",
"116 57 CURVE SMOOTH",
"139 26 OFFCURVE",
"174 7 OFFCURVE",
"223 7 CURVE SMOOTH"
);
},
{
closed = 1;
nodes = (
"137 850 LINE",
"156 861 LINE",
"237 706 LINE",
"221 697 LINE"
);
},
{
closed = 1;
nodes = (
"379 735 LINE",
"485 601 LINE",
"470 591 LINE",
"366 718 LINE",
"218 591 LINE",
"205 603 LINE",
"355 735 LINE"
);
}
);
width = 567;
}
);
leftKerningGroup = a;
rightKerningGroup = a;
unicode = 1EA7;
},
{
glyphname = uni1EA9;
layers = (
{
layerId = "0D764256-9FC1-4D23-B14D-BAC78E5C0998";
name = "Light Italic";
paths = (
{
closed = 1;
nodes = (
"413 0 LINE SMOOTH",
"398 0 OFFCURVE",
"390 6 OFFCURVE",
"390 19 CURVE SMOOTH",
"390 26 OFFCURVE",
"391 28 OFFCURVE",
"392 35 CURVE",
"407 111 LINE",
"404 111 LINE",
"361 36 OFFCURVE",
"308 -12 OFFCURVE",
"223 -12 CURVE SMOOTH",
"171 -12 OFFCURVE",
"130 9 OFFCURVE",
"102 42 CURVE SMOOTH",
"74 75 OFFCURVE",
"60 123 OFFCURVE",
"60 176 CURVE SMOOTH",
"60 268 OFFCURVE",
"83 353 OFFCURVE",
"125 416 CURVE SMOOTH",
"167 479 OFFCURVE",
"229 518 OFFCURVE",
"309 518 CURVE SMOOTH",
"394 518 OFFCURVE",
"446 476 OFFCURVE",
"465 413 CURVE",
"468 413 LINE",
"486 506 LINE",
"507 506 LINE",
"410 19 LINE",
"495 19 LINE",
"491 0 LINE"
);
},
{
closed = 1;
nodes = (
"266 7 OFFCURVE",
"298 18 OFFCURVE",
"333 47 CURVE SMOOTH",
"372 79 OFFCURVE",
"411 133 OFFCURVE",
"426 204 CURVE SMOOTH",
"454 346 LINE SMOOTH",
"461 379 OFFCURVE",
"454 418 OFFCURVE",
"431 448 CURVE SMOOTH",
"408 478 OFFCURVE",
"369 499 OFFCURVE",
"309 499 CURVE SMOOTH",
"194 499 OFFCURVE",
"119 414 OFFCURVE",
"94 282 CURVE SMOOTH",
"87 247 LINE SMOOTH",
"83 224 OFFCURVE",
"81 204 OFFCURVE",
"81 176 CURVE SMOOTH",
"81 129 OFFCURVE",
"92 88 OFFCURVE",
"116 57 CURVE SMOOTH",
"139 26 OFFCURVE",
"174 7 OFFCURVE",
"223 7 CURVE SMOOTH"
);
},
{
closed = 1;
nodes = (
"421 847 LINE",
"554 847 LINE SMOOTH",
"573 847 OFFCURVE",
"578 841 OFFCURVE",
"578 832 CURVE SMOOTH",
"578 828 OFFCURVE",
"577 824 OFFCURVE",
"572 816 CURVE SMOOTH",
"567 808 OFFCURVE",
"557 797 OFFCURVE",
"540 777 CURVE SMOOTH",
"471 695 LINE",
"456 704 LINE",
"558 829 LINE",
"418 829 LINE"
);
},
{
closed = 1;
nodes = (
"379 735 LINE",
"485 601 LINE",
"470 591 LINE",
"366 718 LINE",
"218 591 LINE",
"205 603 LINE",
"355 735 LINE"
);
}
);
width = 567;
}
);
leftKerningGroup = a;
rightKerningGroup = a;
unicode = 1EA9;
},
{
glyphname = uni1EAB;
layers = (
{
layerId = "0D764256-9FC1-4D23-B14D-BAC78E5C0998";
name = "Light Italic";
paths = (
{
closed = 1;
nodes = (
"413 0 LINE SMOOTH",
"398 0 OFFCURVE",
"390 6 OFFCURVE",
"390 19 CURVE SMOOTH",
"390 26 OFFCURVE",
"391 28 OFFCURVE",
"392 35 CURVE",
"407 111 LINE",
"404 111 LINE",
"361 36 OFFCURVE",
"308 -12 OFFCURVE",
"223 -12 CURVE SMOOTH",
"171 -12 OFFCURVE",
"130 9 OFFCURVE",
"102 42 CURVE SMOOTH",
"74 75 OFFCURVE",
"60 123 OFFCURVE",
"60 176 CURVE SMOOTH",
"60 268 OFFCURVE",
"83 353 OFFCURVE",
"125 416 CURVE SMOOTH",
"167 479 OFFCURVE",
"229 518 OFFCURVE",
"309 518 CURVE SMOOTH",
"394 518 OFFCURVE",
"446 476 OFFCURVE",
"465 413 CURVE",
"468 413 LINE",
"486 506 LINE",
"507 506 LINE",
"410 19 LINE",
"495 19 LINE",
"491 0 LINE"
);
},
{
closed = 1;
nodes = (
"266 7 OFFCURVE",
"298 18 OFFCURVE",
"333 47 CURVE SMOOTH",
"372 79 OFFCURVE",
"411 133 OFFCURVE",
"426 204 CURVE SMOOTH",
"454 346 LINE SMOOTH",
"461 379 OFFCURVE",
"454 418 OFFCURVE",
"431 448 CURVE SMOOTH",
"408 478 OFFCURVE",
"369 499 OFFCURVE",
"309 499 CURVE SMOOTH",
"194 499 OFFCURVE",
"119 414 OFFCURVE",
"94 282 CURVE SMOOTH",
"87 247 LINE SMOOTH",
"83 224 OFFCURVE",
"81 204 OFFCURVE",
"81 176 CURVE SMOOTH",
"81 129 OFFCURVE",
"92 88 OFFCURVE",
"116 57 CURVE SMOOTH",
"139 26 OFFCURVE",
"174 7 OFFCURVE",
"223 7 CURVE SMOOTH"
);
},
{
closed = 1;
nodes = (
"338 847 OFFCURVE",
"352 838 OFFCURVE",
"383 817 CURVE SMOOTH",
"408 800 OFFCURVE",
"424 791 OFFCURVE",
"447 791 CURVE SMOOTH",
"470 791 OFFCURVE",
"491 801 OFFCURVE",
"516 824 CURVE",
"527 812 LINE",
"496 783 OFFCURVE",
"470 773 OFFCURVE",
"442 773 CURVE SMOOTH",
"415 773 OFFCURVE",
"401 783 OFFCURVE",
"370 804 CURVE SMOOTH",
"345 821 OFFCURVE",
"329 829 OFFCURVE",
"306 829 CURVE SMOOTH",
"285 829 OFFCURVE",
"262 818 OFFCURVE",
"237 796 CURVE",
"226 808 LINE",
"257 837 OFFCURVE",
"283 847 OFFCURVE",
"311 847 CURVE SMOOTH"
);
},
{
closed = 1;
nodes = (
"379 735 LINE",
"485 601 LINE",
"470 591 LINE",
"366 718 LINE",
"218 591 LINE",
"205 603 LINE",
"355 735 LINE"
);
}
);
width = 567;
}
);
leftKerningGroup = a;
rightKerningGroup = a;
unicode = 1EAB;
},
{
glyphname = ae;
layers = (
{
layerId = "0D764256-9FC1-4D23-B14D-BAC78E5C0998";
name = "Light Italic";
paths = (
{
closed = 1;
nodes = (
"249 7 OFFCURVE",
"295 20 OFFCURVE",
"332 46 CURVE SMOOTH",
"369 72 OFFCURVE",
"397 110 OFFCURVE",
"406 162 CURVE SMOOTH",
"420 243 LINE",
"240 234 LINE SMOOTH",
"128 227 OFFCURVE",
"84 195 OFFCURVE",
"73 143 CURVE SMOOTH",
"68 119 OFFCURVE",
"68 113 OFFCURVE",
"68 102 CURVE SMOOTH",
"68 42 OFFCURVE",
"116 7 OFFCURVE",
"204 7 CURVE SMOOTH"
);
},
{
closed = 1;
nodes = (
"605 499 OFFCURVE",
"557 475 OFFCURVE",
"520 435 CURVE SMOOTH",
"483 394 OFFCURVE",
"458 337 OFFCURVE",
"446 273 CURVE SMOOTH",
"444 262 LINE",
"595 265 OFFCURVE",
"683 283 OFFCURVE",
"735 309 CURVE SMOOTH",
"786 335 OFFCURVE",
"799 367 OFFCURVE",
"799 399 CURVE SMOOTH",
"799 459 OFFCURVE",
"758 499 OFFCURVE",
"661 499 CURVE SMOOTH"
);
},
{
closed = 1;
nodes = (
"103 -12 OFFCURVE",
"47 28 OFFCURVE",
"47 103 CURVE SMOOTH",
"47 203 OFFCURVE",
"109 245 OFFCURVE",
"241 252 CURVE SMOOTH",
"424 261 LINE",
"437 329 LINE SMOOTH",
"441 348 OFFCURVE",
"442 366 OFFCURVE",
"442 381 CURVE SMOOTH",
"442 413 OFFCURVE",
"434 443 OFFCURVE",
"414 464 CURVE SMOOTH",
"393 485 OFFCURVE",
"359 499 OFFCURVE",
"307 499 CURVE SMOOTH",
"262 499 OFFCURVE",
"228 492 OFFCURVE",
"201 476 CURVE SMOOTH",
"174 460 OFFCURVE",
"153 435 OFFCURVE",
"132 402 CURVE",
"115 411 LINE",
"135 444 OFFCURVE",
"158 472 OFFCURVE",
"188 490 CURVE SMOOTH",
"218 508 OFFCURVE",
"256 518 OFFCURVE",
"309 518 CURVE SMOOTH",
"362 518 OFFCURVE",
"401 503 OFFCURVE",
"426 480 CURVE",
"450 456 OFFCURVE",
"461 423 OFFCURVE",
"462 387 CURVE",
"465 387 LINE",
"506 466 OFFCURVE",
"572 518 OFFCURVE",
"663 518 CURVE SMOOTH",
"759 518 OFFCURVE",
"821 474 OFFCURVE",
"821 399 CURVE SMOOTH",
"821 364 OFFCURVE",
"809 326 OFFCURVE",
"755 297 CURVE SMOOTH",
"701 268 OFFCURVE",
"606 247 OFFCURVE",
"442 243 CURVE",
"441 234 OFFCURVE",
"439 225 OFFCURVE",
"438 216 CURVE SMOOTH",
"437 207 OFFCURVE",
"436 199 OFFCURVE",
"436 190 CURVE SMOOTH",
"436 78 OFFCURVE",
"488 7 OFFCURVE",
"592 7 CURVE SMOOTH",
"675 7 OFFCURVE",
"740 53 OFFCURVE",
"781 132 CURVE",
"800 125 LINE",
"747 29 OFFCURVE",
"676 -12 OFFCURVE",
"592 -12 CURVE SMOOTH",
"500 -12 OFFCURVE",
"434 42 OFFCURVE",
"421 138 CURVE",
"418 138 LINE",
"407 93 OFFCURVE",
"380 56 OFFCURVE",
"342 30 CURVE SMOOTH",
"304 4 OFFCURVE",
"255 -12 OFFCURVE",
"202 -12 CURVE SMOOTH"
);
}
);
width = 860;
}
);
leftKerningGroup = ae;
rightKerningGroup = e;
unicode = 00E6;
},
{
glyphname = aeacute;
layers = (
{
layerId = "0D764256-9FC1-4D23-B14D-BAC78E5C0998";
name = "Light Italic";
paths = (
{
closed = 1;
nodes = (
"249 7 OFFCURVE",
"295 20 OFFCURVE",
"332 46 CURVE SMOOTH",
"369 72 OFFCURVE",
"397 110 OFFCURVE",
"406 162 CURVE SMOOTH",
"420 243 LINE",
"240 234 LINE SMOOTH",
"128 227 OFFCURVE",
"84 195 OFFCURVE",
"73 143 CURVE SMOOTH",
"68 119 OFFCURVE",
"68 113 OFFCURVE",
"68 102 CURVE SMOOTH",
"68 42 OFFCURVE",
"116 7 OFFCURVE",
"204 7 CURVE SMOOTH"
);
},
{
closed = 1;
nodes = (
"605 499 OFFCURVE",
"557 475 OFFCURVE",
"520 435 CURVE SMOOTH",
"483 394 OFFCURVE",
"458 337 OFFCURVE",
"446 273 CURVE SMOOTH",
"444 262 LINE",
"595 265 OFFCURVE",
"683 283 OFFCURVE",
"735 309 CURVE SMOOTH",
"786 335 OFFCURVE",
"799 367 OFFCURVE",
"799 399 CURVE SMOOTH",
"799 459 OFFCURVE",
"758 499 OFFCURVE",
"661 499 CURVE SMOOTH"
);
},
{
closed = 1;
nodes = (
"103 -12 OFFCURVE",
"47 28 OFFCURVE",
"47 103 CURVE SMOOTH",
"47 203 OFFCURVE",
"109 245 OFFCURVE",
"241 252 CURVE SMOOTH",
"424 261 LINE",
"437 329 LINE SMOOTH",
"441 348 OFFCURVE",
"442 366 OFFCURVE",
"442 381 CURVE SMOOTH",
"442 413 OFFCURVE",
"434 443 OFFCURVE",
"414 464 CURVE SMOOTH",
"393 485 OFFCURVE",
"359 499 OFFCURVE",
"307 499 CURVE SMOOTH",
"262 499 OFFCURVE",
"228 492 OFFCURVE",
"201 476 CURVE SMOOTH",
"174 460 OFFCURVE",
"153 435 OFFCURVE",
"132 402 CURVE",
"115 411 LINE",
"135 444 OFFCURVE",
"158 472 OFFCURVE",
"188 490 CURVE SMOOTH",
"218 508 OFFCURVE",
"256 518 OFFCURVE",
"309 518 CURVE SMOOTH",
"362 518 OFFCURVE",
"401 503 OFFCURVE",
"426 480 CURVE",
"450 456 OFFCURVE",
"461 423 OFFCURVE",
"462 387 CURVE",
"465 387 LINE",
"506 466 OFFCURVE",
"572 518 OFFCURVE",
"663 518 CURVE SMOOTH",
"759 518 OFFCURVE",
"821 474 OFFCURVE",
"821 399 CURVE SMOOTH",
"821 364 OFFCURVE",
"809 326 OFFCURVE",
"755 297 CURVE SMOOTH",
"701 268 OFFCURVE",
"606 247 OFFCURVE",
"442 243 CURVE",
"441 234 OFFCURVE",
"439 225 OFFCURVE",
"438 216 CURVE SMOOTH",
"437 207 OFFCURVE",
"436 199 OFFCURVE",
"436 190 CURVE SMOOTH",
"436 78 OFFCURVE",
"488 7 OFFCURVE",
"592 7 CURVE SMOOTH",
"675 7 OFFCURVE",
"740 53 OFFCURVE",
"781 132 CURVE",
"800 125 LINE",
"747 29 OFFCURVE",
"676 -12 OFFCURVE",
"592 -12 CURVE SMOOTH",
"500 -12 OFFCURVE",
"434 42 OFFCURVE",
"421 138 CURVE",
"418 138 LINE",
"407 93 OFFCURVE",
"380 56 OFFCURVE",
"342 30 CURVE SMOOTH",
"304 4 OFFCURVE",
"255 -12 OFFCURVE",
"202 -12 CURVE SMOOTH"
);
},
{
closed = 1;
nodes = (
"483 587 LINE",
"470 598 LINE",
"613 751 LINE",
"630 738 LINE"
);
}
);
width = 860;
}
);
leftKerningGroup = ae;
rightKerningGroup = e;
unicode = 01FD;
},
